<svg width="612" height="459" viewBox="0 0 612 459" fill="none" xmlns="http://www.w3.org/2000/svg">
<path d="M3.68212 35.8618L1.95605 34L0.22998 35.8618L1.95605 37.7236L3.68212 35.8618Z" fill="#287E1A"/>
<path d="M25.3802 35.8618L23.6542 34L21.9281 35.8618L23.6542 37.7236L25.3802 35.8618Z" fill="#287E1A"/>
<path d="M47.0781 35.8618L45.3521 34L43.626 35.8618L45.3521 37.7236L47.0781 35.8618Z" fill="#287E1A"/>
<path d="M68.7763 35.8618L67.0502 34L65.3241 35.8618L67.0502 37.7236L68.7763 35.8618Z" fill="#287E1A"/>
<path d="M90.4744 35.8618L88.7483 34L87.0223 35.8618L88.7483 37.7236L90.4744 35.8618Z" fill="#287E1A"/>
<path d="M112.172 35.8618L110.446 34L108.72 35.8618L110.446 37.7236L112.172 35.8618Z" fill="#287E1A"/>
<path d="M133.87 35.8618L132.144 34L130.418 35.8618L132.144 37.7236L133.87 35.8618Z" fill="#287E1A"/>
<path d="M155.568 35.8618L153.842 34L152.116 35.8618L153.842 37.7236L155.568 35.8618Z" fill="#287E1A"/>
<path d="M177.266 35.8618L175.54 34L173.814 35.8618L175.54 37.7236L177.266 35.8618Z" fill="#287E1A"/>
<path d="M198.965 35.8618L197.238 34L195.512 35.8618L197.238 37.7236L198.965 35.8618Z" fill="#287E1A"/>
<path d="M220.662 35.8618L218.936 34L217.21 35.8618L218.936 37.7236L220.662 35.8618Z" fill="#287E1A"/>
<path d="M242.361 35.8618L240.635 34L238.908 35.8618L240.635 37.7236L242.361 35.8618Z" fill="#287E1A"/>
<path d="M264.059 35.8618L262.333 34L260.607 35.8618L262.333 37.7236L264.059 35.8618Z" fill="#287E1A"/>
<path d="M285.757 35.8618L284.031 34L282.304 35.8618L284.031 37.7236L285.757 35.8618Z" fill="#287E1A"/>
<path d="M307.455 35.8618L305.729 34L304.003 35.8618L305.729 37.7236L307.455 35.8618Z" fill="#287E1A"/>
<path d="M329.153 35.8618L327.427 34L325.701 35.8618L327.427 37.7236L329.153 35.8618Z" fill="#287E1A"/>
<path d="M350.851 35.8618L349.125 34L347.399 35.8618L349.125 37.7236L350.851 35.8618Z" fill="#287E1A"/>
<path d="M372.549 35.8618L370.823 34L369.096 35.8618L370.823 37.7236L372.549 35.8618Z" fill="#287E1A"/>
<path d="M394.247 35.8618L392.521 34L390.795 35.8618L392.521 37.7236L394.247 35.8618Z" fill="#287E1A"/>
<path d="M3.68212 59.2661L1.95605 57.4043L0.22998 59.2661L1.95605 61.1279L3.68212 59.2661Z" fill="#287E1A"/>
<path d="M25.3802 59.2661L23.6542 57.4043L21.9281 59.2661L23.6542 61.1279L25.3802 59.2661Z" fill="#287E1A"/>
<path d="M47.0781 59.2661L45.3521 57.4043L43.626 59.2661L45.3521 61.1279L47.0781 59.2661Z" fill="#287E1A"/>
<path d="M68.7763 59.2661L67.0502 57.4043L65.3241 59.2661L67.0502 61.1279L68.7763 59.2661Z" fill="#287E1A"/>
<path d="M90.4744 59.2661L88.7483 57.4043L87.0223 59.2661L88.7483 61.1279L90.4744 59.2661Z" fill="#287E1A"/>
<path d="M112.172 59.2661L110.446 57.4043L108.72 59.2661L110.446 61.1279L112.172 59.2661Z" fill="#287E1A"/>
<path d="M133.87 59.2661L132.144 57.4043L130.418 59.2661L132.144 61.1279L133.87 59.2661Z" fill="#287E1A"/>
<path d="M155.568 59.2661L153.842 57.4043L152.116 59.2661L153.842 61.1279L155.568 59.2661Z" fill="#287E1A"/>
<path d="M177.266 59.2661L175.54 57.4043L173.814 59.2661L175.54 61.1279L177.266 59.2661Z" fill="#287E1A"/>
<path d="M198.965 59.2661L197.238 57.4043L195.512 59.2661L197.238 61.1279L198.965 59.2661Z" fill="#287E1A"/>
<path d="M220.662 59.2661L218.936 57.4043L217.21 59.2661L218.936 61.1279L220.662 59.2661Z" fill="#287E1A"/>
<path d="M242.361 59.2661L240.635 57.4043L238.908 59.2661L240.635 61.1279L242.361 59.2661Z" fill="#287E1A"/>
<path d="M264.059 59.2661L262.333 57.4043L260.607 59.2661L262.333 61.1279L264.059 59.2661Z" fill="#287E1A"/>
<path d="M285.757 59.2661L284.031 57.4043L282.304 59.2661L284.031 61.1279L285.757 59.2661Z" fill="#287E1A"/>
<path d="M307.455 59.2661L305.729 57.4043L304.003 59.2661L305.729 61.1279L307.455 59.2661Z" fill="#287E1A"/>
<path d="M329.153 59.2661L327.427 57.4043L325.701 59.2661L327.427 61.1279L329.153 59.2661Z" fill="#287E1A"/>
<path d="M350.851 59.2661L349.125 57.4043L347.399 59.2661L349.125 61.1279L350.851 59.2661Z" fill="#287E1A"/>
<path d="M372.549 59.2661L370.823 57.4043L369.096 59.2661L370.823 61.1279L372.549 59.2661Z" fill="#287E1A"/>
<path d="M394.247 59.2661L392.521 57.4043L390.795 59.2661L392.521 61.1279L394.247 59.2661Z" fill="#287E1A"/>
<path d="M3.68212 82.6705L1.95605 80.8087L0.22998 82.6705L1.95605 84.5323L3.68212 82.6705Z" fill="#287E1A"/>
<path d="M25.3802 82.6705L23.6542 80.8087L21.9281 82.6705L23.6542 84.5323L25.3802 82.6705Z" fill="#287E1A"/>
<path d="M47.0781 82.6705L45.3521 80.8087L43.626 82.6705L45.3521 84.5323L47.0781 82.6705Z" fill="#287E1A"/>
<path d="M68.7763 82.6705L67.0502 80.8087L65.3241 82.6705L67.0502 84.5323L68.7763 82.6705Z" fill="#287E1A"/>
<path d="M90.4744 82.6705L88.7483 80.8087L87.0223 82.6705L88.7483 84.5323L90.4744 82.6705Z" fill="#287E1A"/>
<path d="M112.172 82.6705L110.446 80.8087L108.72 82.6705L110.446 84.5323L112.172 82.6705Z" fill="#287E1A"/>
<path d="M133.87 82.6705L132.144 80.8087L130.418 82.6705L132.144 84.5323L133.87 82.6705Z" fill="#287E1A"/>
<path d="M155.568 82.6705L153.842 80.8087L152.116 82.6705L153.842 84.5323L155.568 82.6705Z" fill="#287E1A"/>
<path d="M177.266 82.6705L175.54 80.8087L173.814 82.6705L175.54 84.5323L177.266 82.6705Z" fill="#287E1A"/>
<path d="M198.965 82.6705L197.238 80.8087L195.512 82.6705L197.238 84.5323L198.965 82.6705Z" fill="#287E1A"/>
<path d="M220.662 82.6705L218.936 80.8087L217.21 82.6705L218.936 84.5323L220.662 82.6705Z" fill="#287E1A"/>
<path d="M242.361 82.6705L240.635 80.8087L238.908 82.6705L240.635 84.5323L242.361 82.6705Z" fill="#287E1A"/>
<path d="M264.059 82.6705L262.333 80.8087L260.607 82.6705L262.333 84.5323L264.059 82.6705Z" fill="#287E1A"/>
<path d="M285.757 82.6705L284.031 80.8087L282.304 82.6705L284.031 84.5323L285.757 82.6705Z" fill="#287E1A"/>
<path d="M307.455 82.6705L305.729 80.8087L304.003 82.6705L305.729 84.5323L307.455 82.6705Z" fill="#287E1A"/>
<path d="M329.153 82.6705L327.427 80.8087L325.701 82.6705L327.427 84.5323L329.153 82.6705Z" fill="#287E1A"/>
<path d="M350.851 82.6705L349.125 80.8087L347.399 82.6705L349.125 84.5323L350.851 82.6705Z" fill="#287E1A"/>
<path d="M372.549 82.6705L370.823 80.8087L369.096 82.6705L370.823 84.5323L372.549 82.6705Z" fill="#287E1A"/>
<path d="M394.247 82.6705L392.521 80.8087L390.795 82.6705L392.521 84.5323L394.247 82.6705Z" fill="#287E1A"/>
<path d="M3.68212 106.075L1.95605 104.213L0.22998 106.075L1.95605 107.937L3.68212 106.075Z" fill="#287E1A"/>
<path d="M25.3802 106.075L23.6542 104.213L21.9281 106.075L23.6542 107.937L25.3802 106.075Z" fill="#287E1A"/>
<path d="M47.0781 106.075L45.3521 104.213L43.626 106.075L45.3521 107.937L47.0781 106.075Z" fill="#287E1A"/>
<path d="M68.7763 106.075L67.0502 104.213L65.3241 106.075L67.0502 107.937L68.7763 106.075Z" fill="#287E1A"/>
<path d="M90.4744 106.075L88.7483 104.213L87.0223 106.075L88.7483 107.937L90.4744 106.075Z" fill="#287E1A"/>
<path d="M112.172 106.075L110.446 104.213L108.72 106.075L110.446 107.937L112.172 106.075Z" fill="#287E1A"/>
<path d="M133.87 106.075L132.144 104.213L130.418 106.075L132.144 107.937L133.87 106.075Z" fill="#287E1A"/>
<path d="M155.568 106.075L153.842 104.213L152.116 106.075L153.842 107.937L155.568 106.075Z" fill="#287E1A"/>
<path d="M177.266 106.075L175.54 104.213L173.814 106.075L175.54 107.937L177.266 106.075Z" fill="#287E1A"/>
<path d="M198.965 106.075L197.238 104.213L195.512 106.075L197.238 107.937L198.965 106.075Z" fill="#287E1A"/>
<path d="M220.662 106.075L218.936 104.213L217.21 106.075L218.936 107.937L220.662 106.075Z" fill="#287E1A"/>
<path d="M242.361 106.075L240.635 104.213L238.908 106.075L240.635 107.937L242.361 106.075Z" fill="#287E1A"/>
<path d="M264.059 106.075L262.333 104.213L260.607 106.075L262.333 107.937L264.059 106.075Z" fill="#287E1A"/>
<path d="M285.757 106.075L284.031 104.213L282.304 106.075L284.031 107.937L285.757 106.075Z" fill="#287E1A"/>
<path d="M307.455 106.075L305.729 104.213L304.003 106.075L305.729 107.937L307.455 106.075Z" fill="#287E1A"/>
<path d="M329.153 106.075L327.427 104.213L325.701 106.075L327.427 107.937L329.153 106.075Z" fill="#287E1A"/>
<path d="M350.851 106.075L349.125 104.213L347.399 106.075L349.125 107.937L350.851 106.075Z" fill="#287E1A"/>
<path d="M372.549 106.075L370.823 104.213L369.096 106.075L370.823 107.937L372.549 106.075Z" fill="#287E1A"/>
<path d="M394.247 106.075L392.521 104.213L390.795 106.075L392.521 107.937L394.247 106.075Z" fill="#287E1A"/>
<path d="M3.68212 129.479L1.95605 127.617L0.22998 129.479L1.95605 131.341L3.68212 129.479Z" fill="#287E1A"/>
<path d="M25.3802 129.479L23.6542 127.617L21.9281 129.479L23.6542 131.341L25.3802 129.479Z" fill="#287E1A"/>
<path d="M47.0781 129.479L45.3521 127.617L43.626 129.479L45.3521 131.341L47.0781 129.479Z" fill="#287E1A"/>
<path d="M68.7763 129.479L67.0502 127.617L65.3241 129.479L67.0502 131.341L68.7763 129.479Z" fill="#287E1A"/>
<path d="M90.4744 129.479L88.7483 127.617L87.0223 129.479L88.7483 131.341L90.4744 129.479Z" fill="#287E1A"/>
<path d="M112.172 129.479L110.446 127.617L108.72 129.479L110.446 131.341L112.172 129.479Z" fill="#287E1A"/>
<path d="M133.87 129.479L132.144 127.617L130.418 129.479L132.144 131.341L133.87 129.479Z" fill="#287E1A"/>
<path d="M155.568 129.479L153.842 127.617L152.116 129.479L153.842 131.341L155.568 129.479Z" fill="#287E1A"/>
<path d="M177.266 129.479L175.54 127.617L173.814 129.479L175.54 131.341L177.266 129.479Z" fill="#287E1A"/>
<path d="M198.965 129.479L197.238 127.617L195.512 129.479L197.238 131.341L198.965 129.479Z" fill="#287E1A"/>
<path d="M220.662 129.479L218.936 127.617L217.21 129.479L218.936 131.341L220.662 129.479Z" fill="#287E1A"/>
<path d="M242.361 129.479L240.635 127.617L238.908 129.479L240.635 131.341L242.361 129.479Z" fill="#287E1A"/>
<path d="M264.059 129.479L262.333 127.617L260.607 129.479L262.333 131.341L264.059 129.479Z" fill="#287E1A"/>
<path d="M285.757 129.479L284.031 127.617L282.304 129.479L284.031 131.341L285.757 129.479Z" fill="#287E1A"/>
<path d="M307.455 129.479L305.729 127.617L304.003 129.479L305.729 131.341L307.455 129.479Z" fill="#287E1A"/>
<path d="M329.153 129.479L327.427 127.617L325.701 129.479L327.427 131.341L329.153 129.479Z" fill="#287E1A"/>
<path d="M350.851 129.479L349.125 127.617L347.399 129.479L349.125 131.341L350.851 129.479Z" fill="#287E1A"/>
<path d="M372.549 129.479L370.823 127.617L369.096 129.479L370.823 131.341L372.549 129.479Z" fill="#287E1A"/>
<path d="M394.247 129.479L392.521 127.617L390.795 129.479L392.521 131.341L394.247 129.479Z" fill="#287E1A"/>
<path d="M3.68212 152.883L1.95605 151.021L0.22998 152.883L1.95605 154.745L3.68212 152.883Z" fill="#287E1A"/>
<path d="M25.3802 152.883L23.6542 151.021L21.9281 152.883L23.6542 154.745L25.3802 152.883Z" fill="#287E1A"/>
<path d="M47.0781 152.883L45.3521 151.021L43.626 152.883L45.3521 154.745L47.0781 152.883Z" fill="#287E1A"/>
<path d="M68.7763 152.883L67.0502 151.021L65.3241 152.883L67.0502 154.745L68.7763 152.883Z" fill="#287E1A"/>
<path d="M90.4744 152.883L88.7483 151.021L87.0223 152.883L88.7483 154.745L90.4744 152.883Z" fill="#287E1A"/>
<path d="M112.172 152.883L110.446 151.021L108.72 152.883L110.446 154.745L112.172 152.883Z" fill="#287E1A"/>
<path d="M133.87 152.883L132.144 151.021L130.418 152.883L132.144 154.745L133.87 152.883Z" fill="#287E1A"/>
<path d="M155.568 152.883L153.842 151.021L152.116 152.883L153.842 154.745L155.568 152.883Z" fill="#287E1A"/>
<path d="M177.266 152.883L175.54 151.021L173.814 152.883L175.54 154.745L177.266 152.883Z" fill="#287E1A"/>
<path d="M198.965 152.883L197.238 151.021L195.512 152.883L197.238 154.745L198.965 152.883Z" fill="#287E1A"/>
<path d="M220.662 152.883L218.936 151.021L217.21 152.883L218.936 154.745L220.662 152.883Z" fill="#287E1A"/>
<path d="M242.361 152.883L240.635 151.021L238.908 152.883L240.635 154.745L242.361 152.883Z" fill="#287E1A"/>
<path d="M264.059 152.883L262.333 151.021L260.607 152.883L262.333 154.745L264.059 152.883Z" fill="#287E1A"/>
<path d="M285.757 152.883L284.031 151.021L282.304 152.883L284.031 154.745L285.757 152.883Z" fill="#287E1A"/>
<path d="M307.455 152.883L305.729 151.021L304.003 152.883L305.729 154.745L307.455 152.883Z" fill="#287E1A"/>
<path d="M329.153 152.883L327.427 151.021L325.701 152.883L327.427 154.745L329.153 152.883Z" fill="#287E1A"/>
<path d="M350.851 152.883L349.125 151.021L347.399 152.883L349.125 154.745L350.851 152.883Z" fill="#287E1A"/>
<path d="M372.549 152.883L370.823 151.021L369.096 152.883L370.823 154.745L372.549 152.883Z" fill="#287E1A"/>
<path d="M394.247 152.883L392.521 151.021L390.795 152.883L392.521 154.745L394.247 152.883Z" fill="#287E1A"/>
<path d="M3.68212 176.287L1.95605 174.426L0.22998 176.287L1.95605 178.149L3.68212 176.287Z" fill="#287E1A"/>
<path d="M25.3802 176.287L23.6542 174.426L21.9281 176.287L23.6542 178.149L25.3802 176.287Z" fill="#287E1A"/>
<path d="M47.0781 176.287L45.3521 174.426L43.626 176.287L45.3521 178.149L47.0781 176.287Z" fill="#287E1A"/>
<path d="M68.7763 176.287L67.0502 174.426L65.3241 176.287L67.0502 178.149L68.7763 176.287Z" fill="#287E1A"/>
<path d="M90.4744 176.287L88.7483 174.426L87.0223 176.287L88.7483 178.149L90.4744 176.287Z" fill="#287E1A"/>
<path d="M112.172 176.287L110.446 174.426L108.72 176.287L110.446 178.149L112.172 176.287Z" fill="#287E1A"/>
<path d="M133.87 176.287L132.144 174.426L130.418 176.287L132.144 178.149L133.87 176.287Z" fill="#287E1A"/>
<path d="M155.568 176.287L153.842 174.426L152.116 176.287L153.842 178.149L155.568 176.287Z" fill="#287E1A"/>
<path d="M177.266 176.287L175.54 174.426L173.814 176.287L175.54 178.149L177.266 176.287Z" fill="#287E1A"/>
<path d="M198.965 176.287L197.238 174.426L195.512 176.287L197.238 178.149L198.965 176.287Z" fill="#287E1A"/>
<path d="M220.662 176.287L218.936 174.426L217.21 176.287L218.936 178.149L220.662 176.287Z" fill="#287E1A"/>
<path d="M242.361 176.287L240.635 174.426L238.908 176.287L240.635 178.149L242.361 176.287Z" fill="#287E1A"/>
<path d="M264.059 176.287L262.333 174.426L260.607 176.287L262.333 178.149L264.059 176.287Z" fill="#287E1A"/>
<path d="M285.757 176.287L284.031 174.426L282.304 176.287L284.031 178.149L285.757 176.287Z" fill="#287E1A"/>
<path d="M307.455 176.287L305.729 174.426L304.003 176.287L305.729 178.149L307.455 176.287Z" fill="#287E1A"/>
<path d="M329.153 176.287L327.427 174.426L325.701 176.287L327.427 178.149L329.153 176.287Z" fill="#287E1A"/>
<path d="M350.851 176.287L349.125 174.426L347.399 176.287L349.125 178.149L350.851 176.287Z" fill="#287E1A"/>
<path d="M372.549 176.287L370.823 174.426L369.096 176.287L370.823 178.149L372.549 176.287Z" fill="#287E1A"/>
<path d="M394.247 176.287L392.521 174.426L390.795 176.287L392.521 178.149L394.247 176.287Z" fill="#287E1A"/>
<path d="M3.68212 199.691L1.95605 197.829L0.22998 199.691L1.95605 201.553L3.68212 199.691Z" fill="#287E1A"/>
<path d="M25.3802 199.691L23.6542 197.829L21.9281 199.691L23.6542 201.553L25.3802 199.691Z" fill="#287E1A"/>
<path d="M47.0781 199.691L45.3521 197.829L43.626 199.691L45.3521 201.553L47.0781 199.691Z" fill="#287E1A"/>
<path d="M68.7763 199.691L67.0502 197.829L65.3241 199.691L67.0502 201.553L68.7763 199.691Z" fill="#287E1A"/>
<path d="M90.4744 199.691L88.7483 197.829L87.0223 199.691L88.7483 201.553L90.4744 199.691Z" fill="#287E1A"/>
<path d="M112.172 199.691L110.446 197.829L108.72 199.691L110.446 201.553L112.172 199.691Z" fill="#287E1A"/>
<path d="M133.87 199.691L132.144 197.829L130.418 199.691L132.144 201.553L133.87 199.691Z" fill="#287E1A"/>
<path d="M155.568 199.691L153.842 197.829L152.116 199.691L153.842 201.553L155.568 199.691Z" fill="#287E1A"/>
<path d="M177.266 199.691L175.54 197.829L173.814 199.691L175.54 201.553L177.266 199.691Z" fill="#287E1A"/>
<path d="M198.965 199.691L197.238 197.829L195.512 199.691L197.238 201.553L198.965 199.691Z" fill="#287E1A"/>
<path d="M220.662 199.691L218.936 197.829L217.21 199.691L218.936 201.553L220.662 199.691Z" fill="#287E1A"/>
<path d="M242.361 199.691L240.635 197.829L238.908 199.691L240.635 201.553L242.361 199.691Z" fill="#287E1A"/>
<path d="M264.059 199.691L262.333 197.829L260.607 199.691L262.333 201.553L264.059 199.691Z" fill="#287E1A"/>
<path d="M285.757 199.691L284.031 197.829L282.304 199.691L284.031 201.553L285.757 199.691Z" fill="#287E1A"/>
<path d="M307.455 199.691L305.729 197.829L304.003 199.691L305.729 201.553L307.455 199.691Z" fill="#287E1A"/>
<path d="M329.153 199.691L327.427 197.829L325.701 199.691L327.427 201.553L329.153 199.691Z" fill="#287E1A"/>
<path d="M350.851 199.691L349.125 197.829L347.399 199.691L349.125 201.553L350.851 199.691Z" fill="#287E1A"/>
<path d="M372.549 199.691L370.823 197.829L369.096 199.691L370.823 201.553L372.549 199.691Z" fill="#287E1A"/>
<path d="M394.247 199.691L392.521 197.829L390.795 199.691L392.521 201.553L394.247 199.691Z" fill="#287E1A"/>
<path d="M3.68212 223.096L1.95605 221.234L0.22998 223.096L1.95605 224.958L3.68212 223.096Z" fill="#287E1A"/>
<path d="M25.3802 223.096L23.6542 221.234L21.9281 223.096L23.6542 224.958L25.3802 223.096Z" fill="#287E1A"/>
<path d="M47.0781 223.096L45.3521 221.234L43.626 223.096L45.3521 224.958L47.0781 223.096Z" fill="#287E1A"/>
<path d="M68.7763 223.096L67.0502 221.234L65.3241 223.096L67.0502 224.958L68.7763 223.096Z" fill="#287E1A"/>
<path d="M90.4744 223.096L88.7483 221.234L87.0223 223.096L88.7483 224.958L90.4744 223.096Z" fill="#287E1A"/>
<path d="M112.172 223.096L110.446 221.234L108.72 223.096L110.446 224.958L112.172 223.096Z" fill="#287E1A"/>
<path d="M133.87 223.096L132.144 221.234L130.418 223.096L132.144 224.958L133.87 223.096Z" fill="#287E1A"/>
<path d="M155.568 223.096L153.842 221.234L152.116 223.096L153.842 224.958L155.568 223.096Z" fill="#287E1A"/>
<path d="M177.266 223.096L175.54 221.234L173.814 223.096L175.54 224.958L177.266 223.096Z" fill="#287E1A"/>
<path d="M198.965 223.096L197.238 221.234L195.512 223.096L197.238 224.958L198.965 223.096Z" fill="#287E1A"/>
<path d="M220.662 223.096L218.936 221.234L217.21 223.096L218.936 224.958L220.662 223.096Z" fill="#287E1A"/>
<path d="M242.361 223.096L240.635 221.234L238.908 223.096L240.635 224.958L242.361 223.096Z" fill="#287E1A"/>
<path d="M264.059 223.096L262.333 221.234L260.607 223.096L262.333 224.958L264.059 223.096Z" fill="#287E1A"/>
<path d="M285.757 223.096L284.031 221.234L282.304 223.096L284.031 224.958L285.757 223.096Z" fill="#287E1A"/>
<path d="M307.455 223.096L305.729 221.234L304.003 223.096L305.729 224.958L307.455 223.096Z" fill="#287E1A"/>
<path d="M329.153 223.096L327.427 221.234L325.701 223.096L327.427 224.958L329.153 223.096Z" fill="#287E1A"/>
<path d="M350.851 223.096L349.125 221.234L347.399 223.096L349.125 224.958L350.851 223.096Z" fill="#287E1A"/>
<path d="M372.549 223.096L370.823 221.234L369.096 223.096L370.823 224.958L372.549 223.096Z" fill="#287E1A"/>
<path d="M394.247 223.096L392.521 221.234L390.795 223.096L392.521 224.958L394.247 223.096Z" fill="#287E1A"/>
<path d="M3.68212 246.5L1.95605 244.638L0.22998 246.5L1.95605 248.362L3.68212 246.5Z" fill="#287E1A"/>
<path d="M25.3802 246.5L23.6542 244.638L21.9281 246.5L23.6542 248.362L25.3802 246.5Z" fill="#287E1A"/>
<path d="M47.0781 246.5L45.3521 244.638L43.626 246.5L45.3521 248.362L47.0781 246.5Z" fill="#287E1A"/>
<path d="M68.7763 246.5L67.0502 244.638L65.3241 246.5L67.0502 248.362L68.7763 246.5Z" fill="#287E1A"/>
<path d="M90.4744 246.5L88.7483 244.638L87.0223 246.5L88.7483 248.362L90.4744 246.5Z" fill="#287E1A"/>
<path d="M112.172 246.5L110.446 244.638L108.72 246.5L110.446 248.362L112.172 246.5Z" fill="#287E1A"/>
<path d="M133.87 246.5L132.144 244.638L130.418 246.5L132.144 248.362L133.87 246.5Z" fill="#287E1A"/>
<path d="M155.568 246.5L153.842 244.638L152.116 246.5L153.842 248.362L155.568 246.5Z" fill="#287E1A"/>
<path d="M177.266 246.5L175.54 244.638L173.814 246.5L175.54 248.362L177.266 246.5Z" fill="#287E1A"/>
<path d="M198.965 246.5L197.238 244.638L195.512 246.5L197.238 248.362L198.965 246.5Z" fill="#287E1A"/>
<path d="M220.662 246.5L218.936 244.638L217.21 246.5L218.936 248.362L220.662 246.5Z" fill="#287E1A"/>
<path d="M242.361 246.5L240.635 244.638L238.908 246.5L240.635 248.362L242.361 246.5Z" fill="#287E1A"/>
<path d="M264.059 246.5L262.333 244.638L260.607 246.5L262.333 248.362L264.059 246.5Z" fill="#287E1A"/>
<path d="M285.757 246.5L284.031 244.638L282.304 246.5L284.031 248.362L285.757 246.5Z" fill="#287E1A"/>
<path d="M307.455 246.5L305.729 244.638L304.003 246.5L305.729 248.362L307.455 246.5Z" fill="#287E1A"/>
<path d="M329.153 246.5L327.427 244.638L325.701 246.5L327.427 248.362L329.153 246.5Z" fill="#287E1A"/>
<path d="M350.851 246.5L349.125 244.638L347.399 246.5L349.125 248.362L350.851 246.5Z" fill="#287E1A"/>
<path d="M372.549 246.5L370.823 244.638L369.096 246.5L370.823 248.362L372.549 246.5Z" fill="#287E1A"/>
<path d="M394.247 246.5L392.521 244.638L390.795 246.5L392.521 248.362L394.247 246.5Z" fill="#287E1A"/>
<path d="M3.68212 269.904L1.95605 268.042L0.22998 269.904L1.95605 271.766L3.68212 269.904Z" fill="#287E1A"/>
<path d="M25.3802 269.904L23.6542 268.042L21.9281 269.904L23.6542 271.766L25.3802 269.904Z" fill="#287E1A"/>
<path d="M47.0781 269.904L45.3521 268.042L43.626 269.904L45.3521 271.766L47.0781 269.904Z" fill="#287E1A"/>
<path d="M68.7763 269.904L67.0502 268.042L65.3241 269.904L67.0502 271.766L68.7763 269.904Z" fill="#287E1A"/>
<path d="M90.4744 269.904L88.7483 268.042L87.0223 269.904L88.7483 271.766L90.4744 269.904Z" fill="#287E1A"/>
<path d="M112.172 269.904L110.446 268.042L108.72 269.904L110.446 271.766L112.172 269.904Z" fill="#287E1A"/>
<path d="M133.87 269.904L132.144 268.042L130.418 269.904L132.144 271.766L133.87 269.904Z" fill="#287E1A"/>
<path d="M155.568 269.904L153.842 268.042L152.116 269.904L153.842 271.766L155.568 269.904Z" fill="#287E1A"/>
<path d="M177.266 269.904L175.54 268.042L173.814 269.904L175.54 271.766L177.266 269.904Z" fill="#287E1A"/>
<path d="M198.965 269.904L197.238 268.042L195.512 269.904L197.238 271.766L198.965 269.904Z" fill="#287E1A"/>
<path d="M220.662 269.904L218.936 268.042L217.21 269.904L218.936 271.766L220.662 269.904Z" fill="#287E1A"/>
<path d="M242.361 269.904L240.635 268.042L238.908 269.904L240.635 271.766L242.361 269.904Z" fill="#287E1A"/>
<path d="M264.059 269.904L262.333 268.042L260.607 269.904L262.333 271.766L264.059 269.904Z" fill="#287E1A"/>
<path d="M285.757 269.904L284.031 268.042L282.304 269.904L284.031 271.766L285.757 269.904Z" fill="#287E1A"/>
<path d="M307.455 269.904L305.729 268.042L304.003 269.904L305.729 271.766L307.455 269.904Z" fill="#287E1A"/>
<path d="M329.153 269.904L327.427 268.042L325.701 269.904L327.427 271.766L329.153 269.904Z" fill="#287E1A"/>
<path d="M350.851 269.904L349.125 268.042L347.399 269.904L349.125 271.766L350.851 269.904Z" fill="#287E1A"/>
<path d="M372.549 269.904L370.823 268.042L369.096 269.904L370.823 271.766L372.549 269.904Z" fill="#287E1A"/>
<path d="M394.247 269.904L392.521 268.042L390.795 269.904L392.521 271.766L394.247 269.904Z" fill="#287E1A"/>
<path d="M3.68212 293.308L1.95605 291.446L0.22998 293.308L1.95605 295.17L3.68212 293.308Z" fill="#287E1A"/>
<path d="M25.3802 293.308L23.6542 291.446L21.9281 293.308L23.6542 295.17L25.3802 293.308Z" fill="#287E1A"/>
<path d="M47.0781 293.308L45.3521 291.446L43.626 293.308L45.3521 295.17L47.0781 293.308Z" fill="#287E1A"/>
<path d="M68.7763 293.308L67.0502 291.446L65.3241 293.308L67.0502 295.17L68.7763 293.308Z" fill="#287E1A"/>
<path d="M90.4744 293.308L88.7483 291.446L87.0223 293.308L88.7483 295.17L90.4744 293.308Z" fill="#287E1A"/>
<path d="M112.172 293.308L110.446 291.446L108.72 293.308L110.446 295.17L112.172 293.308Z" fill="#287E1A"/>
<path d="M133.87 293.308L132.144 291.446L130.418 293.308L132.144 295.17L133.87 293.308Z" fill="#287E1A"/>
<path d="M155.568 293.308L153.842 291.446L152.116 293.308L153.842 295.17L155.568 293.308Z" fill="#287E1A"/>
<path d="M177.266 293.308L175.54 291.446L173.814 293.308L175.54 295.17L177.266 293.308Z" fill="#287E1A"/>
<path d="M198.965 293.308L197.238 291.446L195.512 293.308L197.238 295.17L198.965 293.308Z" fill="#287E1A"/>
<path d="M220.662 293.308L218.936 291.446L217.21 293.308L218.936 295.17L220.662 293.308Z" fill="#287E1A"/>
<path d="M242.361 293.308L240.635 291.446L238.908 293.308L240.635 295.17L242.361 293.308Z" fill="#287E1A"/>
<path d="M264.059 293.308L262.333 291.446L260.607 293.308L262.333 295.17L264.059 293.308Z" fill="#287E1A"/>
<path d="M285.757 293.308L284.031 291.446L282.304 293.308L284.031 295.17L285.757 293.308Z" fill="#287E1A"/>
<path d="M307.455 293.308L305.729 291.446L304.003 293.308L305.729 295.17L307.455 293.308Z" fill="#287E1A"/>
<path d="M329.153 293.308L327.427 291.446L325.701 293.308L327.427 295.17L329.153 293.308Z" fill="#287E1A"/>
<path d="M350.851 293.308L349.125 291.446L347.399 293.308L349.125 295.17L350.851 293.308Z" fill="#287E1A"/>
<path d="M372.549 293.308L370.823 291.446L369.096 293.308L370.823 295.17L372.549 293.308Z" fill="#287E1A"/>
<path d="M394.247 293.308L392.521 291.446L390.795 293.308L392.521 295.17L394.247 293.308Z" fill="#287E1A"/>
<path d="M3.68212 316.713L1.95605 314.851L0.22998 316.713L1.95605 318.575L3.68212 316.713Z" fill="#287E1A"/>
<path d="M25.3802 316.713L23.6542 314.851L21.9281 316.713L23.6542 318.575L25.3802 316.713Z" fill="#287E1A"/>
<path d="M47.0781 316.713L45.3521 314.851L43.626 316.713L45.3521 318.575L47.0781 316.713Z" fill="#287E1A"/>
<path d="M68.7763 316.713L67.0502 314.851L65.3241 316.713L67.0502 318.575L68.7763 316.713Z" fill="#287E1A"/>
<path d="M90.4744 316.713L88.7483 314.851L87.0223 316.713L88.7483 318.575L90.4744 316.713Z" fill="#287E1A"/>
<path d="M112.172 316.713L110.446 314.851L108.72 316.713L110.446 318.575L112.172 316.713Z" fill="#287E1A"/>
<path d="M133.87 316.713L132.144 314.851L130.418 316.713L132.144 318.575L133.87 316.713Z" fill="#287E1A"/>
<path d="M155.568 316.713L153.842 314.851L152.116 316.713L153.842 318.575L155.568 316.713Z" fill="#287E1A"/>
<path d="M177.266 316.713L175.54 314.851L173.814 316.713L175.54 318.575L177.266 316.713Z" fill="#287E1A"/>
<path d="M198.965 316.713L197.238 314.851L195.512 316.713L197.238 318.575L198.965 316.713Z" fill="#287E1A"/>
<path d="M220.662 316.713L218.936 314.851L217.21 316.713L218.936 318.575L220.662 316.713Z" fill="#287E1A"/>
<path d="M242.361 316.713L240.635 314.851L238.908 316.713L240.635 318.575L242.361 316.713Z" fill="#287E1A"/>
<path d="M264.059 316.713L262.333 314.851L260.607 316.713L262.333 318.575L264.059 316.713Z" fill="#287E1A"/>
<path d="M285.757 316.713L284.031 314.851L282.304 316.713L284.031 318.575L285.757 316.713Z" fill="#287E1A"/>
<path d="M307.455 316.713L305.729 314.851L304.003 316.713L305.729 318.575L307.455 316.713Z" fill="#287E1A"/>
<path d="M329.153 316.713L327.427 314.851L325.701 316.713L327.427 318.575L329.153 316.713Z" fill="#287E1A"/>
<path d="M350.851 316.713L349.125 314.851L347.399 316.713L349.125 318.575L350.851 316.713Z" fill="#287E1A"/>
<path d="M372.549 316.713L370.823 314.851L369.096 316.713L370.823 318.575L372.549 316.713Z" fill="#287E1A"/>
<path d="M394.247 316.713L392.521 314.851L390.795 316.713L392.521 318.575L394.247 316.713Z" fill="#287E1A"/>
<path d="M3.68212 340.117L1.95605 338.255L0.22998 340.117L1.95605 341.979L3.68212 340.117Z" fill="#287E1A"/>
<path d="M25.3802 340.117L23.6542 338.255L21.9281 340.117L23.6542 341.979L25.3802 340.117Z" fill="#287E1A"/>
<path d="M47.0781 340.117L45.3521 338.255L43.626 340.117L45.3521 341.979L47.0781 340.117Z" fill="#287E1A"/>
<path d="M68.7763 340.117L67.0502 338.255L65.3241 340.117L67.0502 341.979L68.7763 340.117Z" fill="#287E1A"/>
<path d="M90.4744 340.117L88.7483 338.255L87.0223 340.117L88.7483 341.979L90.4744 340.117Z" fill="#287E1A"/>
<path d="M112.172 340.117L110.446 338.255L108.72 340.117L110.446 341.979L112.172 340.117Z" fill="#287E1A"/>
<path d="M133.87 340.117L132.144 338.255L130.418 340.117L132.144 341.979L133.87 340.117Z" fill="#287E1A"/>
<path d="M155.568 340.117L153.842 338.255L152.116 340.117L153.842 341.979L155.568 340.117Z" fill="#287E1A"/>
<path d="M177.266 340.117L175.54 338.255L173.814 340.117L175.54 341.979L177.266 340.117Z" fill="#287E1A"/>
<path d="M198.965 340.117L197.238 338.255L195.512 340.117L197.238 341.979L198.965 340.117Z" fill="#287E1A"/>
<path d="M220.662 340.117L218.936 338.255L217.21 340.117L218.936 341.979L220.662 340.117Z" fill="#287E1A"/>
<path d="M242.361 340.117L240.635 338.255L238.908 340.117L240.635 341.979L242.361 340.117Z" fill="#287E1A"/>
<path d="M264.059 340.117L262.333 338.255L260.607 340.117L262.333 341.979L264.059 340.117Z" fill="#287E1A"/>
<path d="M285.757 340.117L284.031 338.255L282.304 340.117L284.031 341.979L285.757 340.117Z" fill="#287E1A"/>
<path d="M307.455 340.117L305.729 338.255L304.003 340.117L305.729 341.979L307.455 340.117Z" fill="#287E1A"/>
<path d="M329.153 340.117L327.427 338.255L325.701 340.117L327.427 341.979L329.153 340.117Z" fill="#287E1A"/>
<path d="M350.851 340.117L349.125 338.255L347.399 340.117L349.125 341.979L350.851 340.117Z" fill="#287E1A"/>
<path d="M372.549 340.117L370.823 338.255L369.096 340.117L370.823 341.979L372.549 340.117Z" fill="#287E1A"/>
<path d="M394.247 340.117L392.521 338.255L390.795 340.117L392.521 341.979L394.247 340.117Z" fill="#287E1A"/>
<path d="M3.68212 363.521L1.95605 361.659L0.22998 363.521L1.95605 365.383L3.68212 363.521Z" fill="#287E1A"/>
<path d="M25.3802 363.521L23.6542 361.659L21.9281 363.521L23.6542 365.383L25.3802 363.521Z" fill="#287E1A"/>
<path d="M47.0781 363.521L45.3521 361.659L43.626 363.521L45.3521 365.383L47.0781 363.521Z" fill="#287E1A"/>
<path d="M68.7763 363.521L67.0502 361.659L65.3241 363.521L67.0502 365.383L68.7763 363.521Z" fill="#287E1A"/>
<path d="M90.4744 363.521L88.7483 361.659L87.0223 363.521L88.7483 365.383L90.4744 363.521Z" fill="#287E1A"/>
<path d="M112.172 363.521L110.446 361.659L108.72 363.521L110.446 365.383L112.172 363.521Z" fill="#287E1A"/>
<path d="M133.87 363.521L132.144 361.659L130.418 363.521L132.144 365.383L133.87 363.521Z" fill="#287E1A"/>
<path d="M155.568 363.521L153.842 361.659L152.116 363.521L153.842 365.383L155.568 363.521Z" fill="#287E1A"/>
<path d="M177.266 363.521L175.54 361.659L173.814 363.521L175.54 365.383L177.266 363.521Z" fill="#287E1A"/>
<path d="M198.965 363.521L197.238 361.659L195.512 363.521L197.238 365.383L198.965 363.521Z" fill="#287E1A"/>
<path d="M220.662 363.521L218.936 361.659L217.21 363.521L218.936 365.383L220.662 363.521Z" fill="#287E1A"/>
<path d="M242.361 363.521L240.635 361.659L238.908 363.521L240.635 365.383L242.361 363.521Z" fill="#287E1A"/>
<path d="M264.059 363.521L262.333 361.659L260.607 363.521L262.333 365.383L264.059 363.521Z" fill="#287E1A"/>
<path d="M285.757 363.521L284.031 361.659L282.304 363.521L284.031 365.383L285.757 363.521Z" fill="#287E1A"/>
<path d="M307.455 363.521L305.729 361.659L304.003 363.521L305.729 365.383L307.455 363.521Z" fill="#287E1A"/>
<path d="M329.153 363.521L327.427 361.659L325.701 363.521L327.427 365.383L329.153 363.521Z" fill="#287E1A"/>
<path d="M350.851 363.521L349.125 361.659L347.399 363.521L349.125 365.383L350.851 363.521Z" fill="#287E1A"/>
<path d="M372.549 363.521L370.823 361.659L369.096 363.521L370.823 365.383L372.549 363.521Z" fill="#287E1A"/>
<path d="M394.247 363.521L392.521 361.659L390.795 363.521L392.521 365.383L394.247 363.521Z" fill="#287E1A"/>
<path d="M3.68212 386.925L1.95605 385.064L0.22998 386.925L1.95605 388.787L3.68212 386.925Z" fill="#287E1A"/>
<path d="M25.3802 386.925L23.6542 385.064L21.9281 386.925L23.6542 388.787L25.3802 386.925Z" fill="#287E1A"/>
<path d="M47.0781 386.925L45.3521 385.064L43.626 386.925L45.3521 388.787L47.0781 386.925Z" fill="#287E1A"/>
<path d="M68.7763 386.925L67.0502 385.064L65.3241 386.925L67.0502 388.787L68.7763 386.925Z" fill="#287E1A"/>
<path d="M90.4744 386.925L88.7483 385.064L87.0223 386.925L88.7483 388.787L90.4744 386.925Z" fill="#287E1A"/>
<path d="M112.172 386.925L110.446 385.064L108.72 386.925L110.446 388.787L112.172 386.925Z" fill="#287E1A"/>
<path d="M133.87 386.925L132.144 385.064L130.418 386.925L132.144 388.787L133.87 386.925Z" fill="#287E1A"/>
<path d="M155.568 386.925L153.842 385.064L152.116 386.925L153.842 388.787L155.568 386.925Z" fill="#287E1A"/>
<path d="M177.266 386.925L175.54 385.064L173.814 386.925L175.54 388.787L177.266 386.925Z" fill="#287E1A"/>
<path d="M198.965 386.925L197.238 385.064L195.512 386.925L197.238 388.787L198.965 386.925Z" fill="#287E1A"/>
<path d="M220.662 386.925L218.936 385.064L217.21 386.925L218.936 388.787L220.662 386.925Z" fill="#287E1A"/>
<path d="M242.361 386.925L240.635 385.064L238.908 386.925L240.635 388.787L242.361 386.925Z" fill="#287E1A"/>
<path d="M264.059 386.925L262.333 385.064L260.607 386.925L262.333 388.787L264.059 386.925Z" fill="#287E1A"/>
<path d="M285.757 386.925L284.031 385.064L282.304 386.925L284.031 388.787L285.757 386.925Z" fill="#287E1A"/>
<path d="M307.455 386.925L305.729 385.064L304.003 386.925L305.729 388.787L307.455 386.925Z" fill="#287E1A"/>
<path d="M329.153 386.925L327.427 385.064L325.701 386.925L327.427 388.787L329.153 386.925Z" fill="#287E1A"/>
<path d="M350.851 386.925L349.125 385.064L347.399 386.925L349.125 388.787L350.851 386.925Z" fill="#287E1A"/>
<path d="M372.549 386.925L370.823 385.064L369.096 386.925L370.823 388.787L372.549 386.925Z" fill="#287E1A"/>
<path d="M394.247 386.925L392.521 385.064L390.795 386.925L392.521 388.787L394.247 386.925Z" fill="#287E1A"/>
<path d="M3.68212 410.33L1.95605 408.468L0.22998 410.33L1.95605 412.191L3.68212 410.33Z" fill="#287E1A"/>
<path d="M25.3802 410.33L23.6542 408.468L21.9281 410.33L23.6542 412.191L25.3802 410.33Z" fill="#287E1A"/>
<path d="M47.0781 410.33L45.3521 408.468L43.626 410.33L45.3521 412.191L47.0781 410.33Z" fill="#287E1A"/>
<path d="M68.7763 410.33L67.0502 408.468L65.3241 410.33L67.0502 412.191L68.7763 410.33Z" fill="#287E1A"/>
<path d="M90.4744 410.33L88.7483 408.468L87.0223 410.33L88.7483 412.191L90.4744 410.33Z" fill="#287E1A"/>
<path d="M112.172 410.33L110.446 408.468L108.72 410.33L110.446 412.191L112.172 410.33Z" fill="#287E1A"/>
<path d="M133.87 410.33L132.144 408.468L130.418 410.33L132.144 412.191L133.87 410.33Z" fill="#287E1A"/>
<path d="M155.568 410.33L153.842 408.468L152.116 410.33L153.842 412.191L155.568 410.33Z" fill="#287E1A"/>
<path d="M177.266 410.33L175.54 408.468L173.814 410.33L175.54 412.191L177.266 410.33Z" fill="#287E1A"/>
<path d="M198.965 410.33L197.238 408.468L195.512 410.33L197.238 412.191L198.965 410.33Z" fill="#287E1A"/>
<path d="M220.662 410.33L218.936 408.468L217.21 410.33L218.936 412.191L220.662 410.33Z" fill="#287E1A"/>
<path d="M242.361 410.33L240.635 408.468L238.908 410.33L240.635 412.191L242.361 410.33Z" fill="#287E1A"/>
<path d="M264.059 410.33L262.333 408.468L260.607 410.33L262.333 412.191L264.059 410.33Z" fill="#287E1A"/>
<path d="M285.757 410.33L284.031 408.468L282.304 410.33L284.031 412.191L285.757 410.33Z" fill="#287E1A"/>
<path d="M307.455 410.33L305.729 408.468L304.003 410.33L305.729 412.191L307.455 410.33Z" fill="#287E1A"/>
<path d="M329.153 410.33L327.427 408.468L325.701 410.33L327.427 412.191L329.153 410.33Z" fill="#287E1A"/>
<path d="M350.851 410.33L349.125 408.468L347.399 410.33L349.125 412.191L350.851 410.33Z" fill="#287E1A"/>
<path d="M372.549 410.33L370.823 408.468L369.096 410.33L370.823 412.191L372.549 410.33Z" fill="#287E1A"/>
<path d="M394.247 410.33L392.521 408.468L390.795 410.33L392.521 412.191L394.247 410.33Z" fill="#287E1A"/>
<path d="M3.68212 433.734L1.95605 431.872L0.22998 433.734L1.95605 435.595L3.68212 433.734Z" fill="#287E1A"/>
<path d="M25.3802 433.734L23.6542 431.872L21.9281 433.734L23.6542 435.595L25.3802 433.734Z" fill="#287E1A"/>
<path d="M47.0781 433.734L45.3521 431.872L43.626 433.734L45.3521 435.595L47.0781 433.734Z" fill="#287E1A"/>
<path d="M68.7763 433.734L67.0502 431.872L65.3241 433.734L67.0502 435.595L68.7763 433.734Z" fill="#287E1A"/>
<path d="M90.4744 433.734L88.7483 431.872L87.0223 433.734L88.7483 435.595L90.4744 433.734Z" fill="#287E1A"/>
<path d="M112.172 433.734L110.446 431.872L108.72 433.734L110.446 435.595L112.172 433.734Z" fill="#287E1A"/>
<path d="M133.87 433.734L132.144 431.872L130.418 433.734L132.144 435.595L133.87 433.734Z" fill="#287E1A"/>
<path d="M155.568 433.734L153.842 431.872L152.116 433.734L153.842 435.595L155.568 433.734Z" fill="#287E1A"/>
<path d="M177.266 433.734L175.54 431.872L173.814 433.734L175.54 435.595L177.266 433.734Z" fill="#287E1A"/>
<path d="M198.965 433.734L197.238 431.872L195.512 433.734L197.238 435.595L198.965 433.734Z" fill="#287E1A"/>
<path d="M220.662 433.734L218.936 431.872L217.21 433.734L218.936 435.595L220.662 433.734Z" fill="#287E1A"/>
<path d="M242.361 433.734L240.635 431.872L238.908 433.734L240.635 435.595L242.361 433.734Z" fill="#287E1A"/>
<path d="M264.059 433.734L262.333 431.872L260.607 433.734L262.333 435.595L264.059 433.734Z" fill="#287E1A"/>
<path d="M285.757 433.734L284.031 431.872L282.304 433.734L284.031 435.595L285.757 433.734Z" fill="#287E1A"/>
<path d="M307.455 433.734L305.729 431.872L304.003 433.734L305.729 435.595L307.455 433.734Z" fill="#287E1A"/>
<path d="M329.153 433.734L327.427 431.872L325.701 433.734L327.427 435.595L329.153 433.734Z" fill="#287E1A"/>
<path d="M350.851 433.734L349.125 431.872L347.399 433.734L349.125 435.595L350.851 433.734Z" fill="#287E1A"/>
<path d="M372.549 433.734L370.823 431.872L369.096 433.734L370.823 435.595L372.549 433.734Z" fill="#287E1A"/>
<path d="M394.247 433.734L392.521 431.872L390.795 433.734L392.521 435.595L394.247 433.734Z" fill="#287E1A"/>
<path d="M3.68212 457.138L1.95605 455.276L0.22998 457.138L1.95605 459L3.68212 457.138Z" fill="#287E1A"/>
<path d="M25.3802 457.138L23.6542 455.276L21.9281 457.138L23.6542 459L25.3802 457.138Z" fill="#287E1A"/>
<path d="M47.0781 457.138L45.3521 455.276L43.626 457.138L45.3521 459L47.0781 457.138Z" fill="#287E1A"/>
<path d="M68.7763 457.138L67.0502 455.276L65.3241 457.138L67.0502 459L68.7763 457.138Z" fill="#287E1A"/>
<path d="M90.4744 457.138L88.7483 455.276L87.0223 457.138L88.7483 459L90.4744 457.138Z" fill="#287E1A"/>
<path d="M112.172 457.138L110.446 455.276L108.72 457.138L110.446 459L112.172 457.138Z" fill="#287E1A"/>
<path d="M133.87 457.138L132.144 455.276L130.418 457.138L132.144 459L133.87 457.138Z" fill="#287E1A"/>
<path d="M155.568 457.138L153.842 455.276L152.116 457.138L153.842 459L155.568 457.138Z" fill="#287E1A"/>
<path d="M177.266 457.138L175.54 455.276L173.814 457.138L175.54 459L177.266 457.138Z" fill="#287E1A"/>
<path d="M198.965 457.138L197.238 455.276L195.512 457.138L197.238 459L198.965 457.138Z" fill="#287E1A"/>
<path d="M220.662 457.138L218.936 455.276L217.21 457.138L218.936 459L220.662 457.138Z" fill="#287E1A"/>
<path d="M242.361 457.138L240.635 455.276L238.908 457.138L240.635 459L242.361 457.138Z" fill="#287E1A"/>
<path d="M264.059 457.138L262.333 455.276L260.607 457.138L262.333 459L264.059 457.138Z" fill="#287E1A"/>
<path d="M285.757 457.138L284.031 455.276L282.304 457.138L284.031 459L285.757 457.138Z" fill="#287E1A"/>
<path d="M307.455 457.138L305.729 455.276L304.003 457.138L305.729 459L307.455 457.138Z" fill="#287E1A"/>
<path d="M329.153 457.138L327.427 455.276L325.701 457.138L327.427 459L329.153 457.138Z" fill="#287E1A"/>
<path d="M350.851 457.138L349.125 455.276L347.399 457.138L349.125 459L350.851 457.138Z" fill="#287E1A"/>
<path d="M372.549 457.138L370.823 455.276L369.096 457.138L370.823 459L372.549 457.138Z" fill="#287E1A"/>
<path d="M394.247 457.138L392.521 455.276L390.795 457.138L392.521 459L394.247 457.138Z" fill="#287E1A"/>
<path d="M220.665 35.8618L218.939 34L217.213 35.8618L218.939 37.7236L220.665 35.8618Z" fill="#287E1A"/>
<path d="M242.363 35.8618L240.637 34L238.911 35.8618L240.637 37.7236L242.363 35.8618Z" fill="#287E1A"/>
<path d="M264.061 35.8618L262.335 34L260.609 35.8618L262.335 37.7236L264.061 35.8618Z" fill="#287E1A"/>
<path d="M285.76 35.8618L284.033 34L282.307 35.8618L284.033 37.7236L285.76 35.8618Z" fill="#287E1A"/>
<path d="M307.458 35.8618L305.732 34L304.005 35.8618L305.732 37.7236L307.458 35.8618Z" fill="#287E1A"/>
<path d="M329.156 35.8618L327.429 34L325.703 35.8618L327.429 37.7236L329.156 35.8618Z" fill="#287E1A"/>
<path d="M350.854 35.8618L349.128 34L347.402 35.8618L349.128 37.7236L350.854 35.8618Z" fill="#287E1A"/>
<path d="M372.552 35.8618L370.825 34L369.099 35.8618L370.825 37.7236L372.552 35.8618Z" fill="#287E1A"/>
<path d="M394.25 35.8618L392.524 34L390.798 35.8618L392.524 37.7236L394.25 35.8618Z" fill="#287E1A"/>
<path d="M415.948 35.8618L414.222 34L412.496 35.8618L414.222 37.7236L415.948 35.8618Z" fill="#287E1A"/>
<path d="M437.646 35.8618L435.92 34L434.194 35.8618L435.92 37.7236L437.646 35.8618Z" fill="#287E1A"/>
<path d="M459.344 35.8618L457.618 34L455.892 35.8618L457.618 37.7236L459.344 35.8618Z" fill="#287E1A"/>
<path d="M481.042 35.8618L479.316 34L477.59 35.8618L479.316 37.7236L481.042 35.8618Z" fill="#287E1A"/>
<path d="M502.74 35.8618L501.014 34L499.288 35.8618L501.014 37.7236L502.74 35.8618Z" fill="#287E1A"/>
<path d="M524.438 35.8618L522.712 34L520.986 35.8618L522.712 37.7236L524.438 35.8618Z" fill="#287E1A"/>
<path d="M546.136 35.8618L544.41 34L542.684 35.8618L544.41 37.7236L546.136 35.8618Z" fill="#287E1A"/>
<path d="M567.834 35.8618L566.108 34L564.382 35.8618L566.108 37.7236L567.834 35.8618Z" fill="#287E1A"/>
<path d="M589.532 35.8618L587.806 34L586.08 35.8618L587.806 37.7236L589.532 35.8618Z" fill="#287E1A"/>
<path d="M611.23 35.8618L609.504 34L607.778 35.8618L609.504 37.7236L611.23 35.8618Z" fill="#287E1A"/>
<path d="M220.665 59.2661L218.939 57.4043L217.213 59.2661L218.939 61.1279L220.665 59.2661Z" fill="#287E1A"/>
<path d="M242.363 59.2661L240.637 57.4043L238.911 59.2661L240.637 61.1279L242.363 59.2661Z" fill="#287E1A"/>
<path d="M264.061 59.2661L262.335 57.4043L260.609 59.2661L262.335 61.1279L264.061 59.2661Z" fill="#287E1A"/>
<path d="M285.76 59.2661L284.033 57.4043L282.307 59.2661L284.033 61.1279L285.76 59.2661Z" fill="#287E1A"/>
<path d="M307.458 59.2661L305.732 57.4043L304.005 59.2661L305.732 61.1279L307.458 59.2661Z" fill="#287E1A"/>
<path d="M329.156 59.2661L327.429 57.4043L325.703 59.2661L327.429 61.1279L329.156 59.2661Z" fill="#287E1A"/>
<path d="M350.854 59.2661L349.128 57.4043L347.402 59.2661L349.128 61.1279L350.854 59.2661Z" fill="#287E1A"/>
<path d="M372.552 59.2661L370.825 57.4043L369.099 59.2661L370.825 61.1279L372.552 59.2661Z" fill="#287E1A"/>
<path d="M394.25 59.2661L392.524 57.4043L390.798 59.2661L392.524 61.1279L394.25 59.2661Z" fill="#287E1A"/>
<path d="M415.948 59.2661L414.222 57.4043L412.496 59.2661L414.222 61.1279L415.948 59.2661Z" fill="#287E1A"/>
<path d="M437.646 59.2661L435.92 57.4043L434.194 59.2661L435.92 61.1279L437.646 59.2661Z" fill="#287E1A"/>
<path d="M459.344 59.2661L457.618 57.4043L455.892 59.2661L457.618 61.1279L459.344 59.2661Z" fill="#287E1A"/>
<path d="M481.042 59.2661L479.316 57.4043L477.59 59.2661L479.316 61.1279L481.042 59.2661Z" fill="#287E1A"/>
<path d="M502.74 59.2661L501.014 57.4043L499.288 59.2661L501.014 61.1279L502.74 59.2661Z" fill="#287E1A"/>
<path d="M524.438 59.2661L522.712 57.4043L520.986 59.2661L522.712 61.1279L524.438 59.2661Z" fill="#287E1A"/>
<path d="M546.136 59.2661L544.41 57.4043L542.684 59.2661L544.41 61.1279L546.136 59.2661Z" fill="#287E1A"/>
<path d="M567.834 59.2661L566.108 57.4043L564.382 59.2661L566.108 61.1279L567.834 59.2661Z" fill="#287E1A"/>
<path d="M589.532 59.2661L587.806 57.4043L586.08 59.2661L587.806 61.1279L589.532 59.2661Z" fill="#287E1A"/>
<path d="M611.23 59.2661L609.504 57.4043L607.778 59.2661L609.504 61.1279L611.23 59.2661Z" fill="#287E1A"/>
<path d="M220.665 82.6704L218.939 80.8086L217.213 82.6704L218.939 84.5322L220.665 82.6704Z" fill="#287E1A"/>
<path d="M242.363 82.6704L240.637 80.8086L238.911 82.6704L240.637 84.5322L242.363 82.6704Z" fill="#287E1A"/>
<path d="M264.061 82.6704L262.335 80.8086L260.609 82.6704L262.335 84.5322L264.061 82.6704Z" fill="#287E1A"/>
<path d="M285.76 82.6704L284.033 80.8086L282.307 82.6704L284.033 84.5322L285.76 82.6704Z" fill="#287E1A"/>
<path d="M307.458 82.6704L305.732 80.8086L304.005 82.6704L305.732 84.5322L307.458 82.6704Z" fill="#287E1A"/>
<path d="M329.156 82.6704L327.429 80.8086L325.703 82.6704L327.429 84.5322L329.156 82.6704Z" fill="#287E1A"/>
<path d="M350.854 82.6704L349.128 80.8086L347.402 82.6704L349.128 84.5322L350.854 82.6704Z" fill="#287E1A"/>
<path d="M372.552 82.6704L370.825 80.8086L369.099 82.6704L370.825 84.5322L372.552 82.6704Z" fill="#287E1A"/>
<path d="M394.25 82.6704L392.524 80.8086L390.798 82.6704L392.524 84.5322L394.25 82.6704Z" fill="#287E1A"/>
<path d="M415.948 82.6704L414.222 80.8086L412.496 82.6704L414.222 84.5322L415.948 82.6704Z" fill="#287E1A"/>
<path d="M437.646 82.6704L435.92 80.8086L434.194 82.6704L435.92 84.5322L437.646 82.6704Z" fill="#287E1A"/>
<path d="M459.344 82.6704L457.618 80.8086L455.892 82.6704L457.618 84.5322L459.344 82.6704Z" fill="#287E1A"/>
<path d="M481.042 82.6704L479.316 80.8086L477.59 82.6704L479.316 84.5322L481.042 82.6704Z" fill="#287E1A"/>
<path d="M502.74 82.6704L501.014 80.8086L499.288 82.6704L501.014 84.5322L502.74 82.6704Z" fill="#287E1A"/>
<path d="M524.438 82.6704L522.712 80.8086L520.986 82.6704L522.712 84.5322L524.438 82.6704Z" fill="#287E1A"/>
<path d="M546.136 82.6704L544.41 80.8086L542.684 82.6704L544.41 84.5322L546.136 82.6704Z" fill="#287E1A"/>
<path d="M567.834 82.6704L566.108 80.8086L564.382 82.6704L566.108 84.5322L567.834 82.6704Z" fill="#287E1A"/>
<path d="M589.532 82.6704L587.806 80.8086L586.08 82.6704L587.806 84.5322L589.532 82.6704Z" fill="#287E1A"/>
<path d="M611.23 82.6704L609.504 80.8086L607.778 82.6704L609.504 84.5322L611.23 82.6704Z" fill="#287E1A"/>
<path d="M220.665 106.075L218.939 104.213L217.213 106.075L218.939 107.937L220.665 106.075Z" fill="#287E1A"/>
<path d="M242.363 106.075L240.637 104.213L238.911 106.075L240.637 107.937L242.363 106.075Z" fill="#287E1A"/>
<path d="M264.061 106.075L262.335 104.213L260.609 106.075L262.335 107.937L264.061 106.075Z" fill="#287E1A"/>
<path d="M285.76 106.075L284.033 104.213L282.307 106.075L284.033 107.937L285.76 106.075Z" fill="#287E1A"/>
<path d="M307.458 106.075L305.732 104.213L304.005 106.075L305.732 107.937L307.458 106.075Z" fill="#287E1A"/>
<path d="M329.156 106.075L327.429 104.213L325.703 106.075L327.429 107.937L329.156 106.075Z" fill="#287E1A"/>
<path d="M350.854 106.075L349.128 104.213L347.402 106.075L349.128 107.937L350.854 106.075Z" fill="#287E1A"/>
<path d="M372.552 106.075L370.825 104.213L369.099 106.075L370.825 107.937L372.552 106.075Z" fill="#287E1A"/>
<path d="M394.25 106.075L392.524 104.213L390.798 106.075L392.524 107.937L394.25 106.075Z" fill="#287E1A"/>
<path d="M415.948 106.075L414.222 104.213L412.496 106.075L414.222 107.937L415.948 106.075Z" fill="#287E1A"/>
<path d="M437.646 106.075L435.92 104.213L434.194 106.075L435.92 107.937L437.646 106.075Z" fill="#287E1A"/>
<path d="M459.344 106.075L457.618 104.213L455.892 106.075L457.618 107.937L459.344 106.075Z" fill="#287E1A"/>
<path d="M481.042 106.075L479.316 104.213L477.59 106.075L479.316 107.937L481.042 106.075Z" fill="#287E1A"/>
<path d="M502.74 106.075L501.014 104.213L499.288 106.075L501.014 107.937L502.74 106.075Z" fill="#287E1A"/>
<path d="M524.438 106.075L522.712 104.213L520.986 106.075L522.712 107.937L524.438 106.075Z" fill="#287E1A"/>
<path d="M546.136 106.075L544.41 104.213L542.684 106.075L544.41 107.937L546.136 106.075Z" fill="#287E1A"/>
<path d="M567.834 106.075L566.108 104.213L564.382 106.075L566.108 107.937L567.834 106.075Z" fill="#287E1A"/>
<path d="M589.532 106.075L587.806 104.213L586.08 106.075L587.806 107.937L589.532 106.075Z" fill="#287E1A"/>
<path d="M611.23 106.075L609.504 104.213L607.778 106.075L609.504 107.937L611.23 106.075Z" fill="#287E1A"/>
<path d="M220.665 129.479L218.939 127.617L217.213 129.479L218.939 131.341L220.665 129.479Z" fill="#287E1A"/>
<path d="M242.363 129.479L240.637 127.617L238.911 129.479L240.637 131.341L242.363 129.479Z" fill="#287E1A"/>
<path d="M264.061 129.479L262.335 127.617L260.609 129.479L262.335 131.341L264.061 129.479Z" fill="#287E1A"/>
<path d="M285.76 129.479L284.033 127.617L282.307 129.479L284.033 131.341L285.76 129.479Z" fill="#287E1A"/>
<path d="M307.458 129.479L305.732 127.617L304.005 129.479L305.732 131.341L307.458 129.479Z" fill="#287E1A"/>
<path d="M329.156 129.479L327.429 127.617L325.703 129.479L327.429 131.341L329.156 129.479Z" fill="#287E1A"/>
<path d="M350.854 129.479L349.128 127.617L347.402 129.479L349.128 131.341L350.854 129.479Z" fill="#287E1A"/>
<path d="M372.552 129.479L370.825 127.617L369.099 129.479L370.825 131.341L372.552 129.479Z" fill="#287E1A"/>
<path d="M394.25 129.479L392.524 127.617L390.798 129.479L392.524 131.341L394.25 129.479Z" fill="#287E1A"/>
<path d="M415.948 129.479L414.222 127.617L412.496 129.479L414.222 131.341L415.948 129.479Z" fill="#287E1A"/>
<path d="M437.646 129.479L435.92 127.617L434.194 129.479L435.92 131.341L437.646 129.479Z" fill="#287E1A"/>
<path d="M459.344 129.479L457.618 127.617L455.892 129.479L457.618 131.341L459.344 129.479Z" fill="#287E1A"/>
<path d="M481.042 129.479L479.316 127.617L477.59 129.479L479.316 131.341L481.042 129.479Z" fill="#287E1A"/>
<path d="M502.74 129.479L501.014 127.617L499.288 129.479L501.014 131.341L502.74 129.479Z" fill="#287E1A"/>
<path d="M524.438 129.479L522.712 127.617L520.986 129.479L522.712 131.341L524.438 129.479Z" fill="#287E1A"/>
<path d="M546.136 129.479L544.41 127.617L542.684 129.479L544.41 131.341L546.136 129.479Z" fill="#287E1A"/>
<path d="M567.834 129.479L566.108 127.617L564.382 129.479L566.108 131.341L567.834 129.479Z" fill="#287E1A"/>
<path d="M589.532 129.479L587.806 127.617L586.08 129.479L587.806 131.341L589.532 129.479Z" fill="#287E1A"/>
<path d="M611.23 129.479L609.504 127.617L607.778 129.479L609.504 131.341L611.23 129.479Z" fill="#287E1A"/>
<path d="M220.665 152.883L218.939 151.021L217.213 152.883L218.939 154.745L220.665 152.883Z" fill="#287E1A"/>
<path d="M242.363 152.883L240.637 151.021L238.911 152.883L240.637 154.745L242.363 152.883Z" fill="#287E1A"/>
<path d="M264.061 152.883L262.335 151.021L260.609 152.883L262.335 154.745L264.061 152.883Z" fill="#287E1A"/>
<path d="M285.76 152.883L284.033 151.021L282.307 152.883L284.033 154.745L285.76 152.883Z" fill="#287E1A"/>
<path d="M307.458 152.883L305.732 151.021L304.005 152.883L305.732 154.745L307.458 152.883Z" fill="#287E1A"/>
<path d="M329.156 152.883L327.429 151.021L325.703 152.883L327.429 154.745L329.156 152.883Z" fill="#287E1A"/>
<path d="M350.854 152.883L349.128 151.021L347.402 152.883L349.128 154.745L350.854 152.883Z" fill="#287E1A"/>
<path d="M372.552 152.883L370.825 151.021L369.099 152.883L370.825 154.745L372.552 152.883Z" fill="#287E1A"/>
<path d="M394.25 152.883L392.524 151.021L390.798 152.883L392.524 154.745L394.25 152.883Z" fill="#287E1A"/>
<path d="M415.948 152.883L414.222 151.021L412.496 152.883L414.222 154.745L415.948 152.883Z" fill="#287E1A"/>
<path d="M437.646 152.883L435.92 151.021L434.194 152.883L435.92 154.745L437.646 152.883Z" fill="#287E1A"/>
<path d="M459.344 152.883L457.618 151.021L455.892 152.883L457.618 154.745L459.344 152.883Z" fill="#287E1A"/>
<path d="M481.042 152.883L479.316 151.021L477.59 152.883L479.316 154.745L481.042 152.883Z" fill="#287E1A"/>
<path d="M502.74 152.883L501.014 151.021L499.288 152.883L501.014 154.745L502.74 152.883Z" fill="#287E1A"/>
<path d="M524.438 152.883L522.712 151.021L520.986 152.883L522.712 154.745L524.438 152.883Z" fill="#287E1A"/>
<path d="M546.136 152.883L544.41 151.021L542.684 152.883L544.41 154.745L546.136 152.883Z" fill="#287E1A"/>
<path d="M567.834 152.883L566.108 151.021L564.382 152.883L566.108 154.745L567.834 152.883Z" fill="#287E1A"/>
<path d="M589.532 152.883L587.806 151.021L586.08 152.883L587.806 154.745L589.532 152.883Z" fill="#287E1A"/>
<path d="M611.23 152.883L609.504 151.021L607.778 152.883L609.504 154.745L611.23 152.883Z" fill="#287E1A"/>
<path d="M220.665 176.287L218.939 174.426L217.213 176.287L218.939 178.149L220.665 176.287Z" fill="#287E1A"/>
<path d="M242.363 176.287L240.637 174.426L238.911 176.287L240.637 178.149L242.363 176.287Z" fill="#287E1A"/>
<path d="M264.061 176.287L262.335 174.426L260.609 176.287L262.335 178.149L264.061 176.287Z" fill="#287E1A"/>
<path d="M285.76 176.287L284.033 174.426L282.307 176.287L284.033 178.149L285.76 176.287Z" fill="#287E1A"/>
<path d="M307.458 176.287L305.732 174.426L304.005 176.287L305.732 178.149L307.458 176.287Z" fill="#287E1A"/>
<path d="M329.156 176.287L327.429 174.426L325.703 176.287L327.429 178.149L329.156 176.287Z" fill="#287E1A"/>
<path d="M350.854 176.287L349.128 174.426L347.402 176.287L349.128 178.149L350.854 176.287Z" fill="#287E1A"/>
<path d="M372.552 176.287L370.825 174.426L369.099 176.287L370.825 178.149L372.552 176.287Z" fill="#287E1A"/>
<path d="M394.25 176.287L392.524 174.426L390.798 176.287L392.524 178.149L394.25 176.287Z" fill="#287E1A"/>
<path d="M415.948 176.287L414.222 174.426L412.496 176.287L414.222 178.149L415.948 176.287Z" fill="#287E1A"/>
<path d="M437.646 176.287L435.92 174.426L434.194 176.287L435.92 178.149L437.646 176.287Z" fill="#287E1A"/>
<path d="M459.344 176.287L457.618 174.426L455.892 176.287L457.618 178.149L459.344 176.287Z" fill="#287E1A"/>
<path d="M481.042 176.287L479.316 174.426L477.59 176.287L479.316 178.149L481.042 176.287Z" fill="#287E1A"/>
<path d="M502.74 176.287L501.014 174.426L499.288 176.287L501.014 178.149L502.74 176.287Z" fill="#287E1A"/>
<path d="M524.438 176.287L522.712 174.426L520.986 176.287L522.712 178.149L524.438 176.287Z" fill="#287E1A"/>
<path d="M546.136 176.287L544.41 174.426L542.684 176.287L544.41 178.149L546.136 176.287Z" fill="#287E1A"/>
<path d="M567.834 176.287L566.108 174.426L564.382 176.287L566.108 178.149L567.834 176.287Z" fill="#287E1A"/>
<path d="M589.532 176.287L587.806 174.426L586.08 176.287L587.806 178.149L589.532 176.287Z" fill="#287E1A"/>
<path d="M611.23 176.287L609.504 174.426L607.778 176.287L609.504 178.149L611.23 176.287Z" fill="#287E1A"/>
<path d="M220.665 199.691L218.939 197.829L217.213 199.691L218.939 201.553L220.665 199.691Z" fill="#287E1A"/>
<path d="M242.363 199.691L240.637 197.829L238.911 199.691L240.637 201.553L242.363 199.691Z" fill="#287E1A"/>
<path d="M264.061 199.691L262.335 197.829L260.609 199.691L262.335 201.553L264.061 199.691Z" fill="#287E1A"/>
<path d="M285.76 199.691L284.033 197.829L282.307 199.691L284.033 201.553L285.76 199.691Z" fill="#287E1A"/>
<path d="M307.458 199.691L305.732 197.829L304.005 199.691L305.732 201.553L307.458 199.691Z" fill="#287E1A"/>
<path d="M329.156 199.691L327.429 197.829L325.703 199.691L327.429 201.553L329.156 199.691Z" fill="#287E1A"/>
<path d="M350.854 199.691L349.128 197.829L347.402 199.691L349.128 201.553L350.854 199.691Z" fill="#287E1A"/>
<path d="M372.552 199.691L370.825 197.829L369.099 199.691L370.825 201.553L372.552 199.691Z" fill="#287E1A"/>
<path d="M394.25 199.691L392.524 197.829L390.798 199.691L392.524 201.553L394.25 199.691Z" fill="#287E1A"/>
<path d="M415.948 199.691L414.222 197.829L412.496 199.691L414.222 201.553L415.948 199.691Z" fill="#287E1A"/>
<path d="M437.646 199.691L435.92 197.829L434.194 199.691L435.92 201.553L437.646 199.691Z" fill="#287E1A"/>
<path d="M459.344 199.691L457.618 197.829L455.892 199.691L457.618 201.553L459.344 199.691Z" fill="#287E1A"/>
<path d="M481.042 199.691L479.316 197.829L477.59 199.691L479.316 201.553L481.042 199.691Z" fill="#287E1A"/>
<path d="M502.74 199.691L501.014 197.829L499.288 199.691L501.014 201.553L502.74 199.691Z" fill="#287E1A"/>
<path d="M524.438 199.691L522.712 197.829L520.986 199.691L522.712 201.553L524.438 199.691Z" fill="#287E1A"/>
<path d="M546.136 199.691L544.41 197.829L542.684 199.691L544.41 201.553L546.136 199.691Z" fill="#287E1A"/>
<path d="M567.834 199.691L566.108 197.829L564.382 199.691L566.108 201.553L567.834 199.691Z" fill="#287E1A"/>
<path d="M589.532 199.691L587.806 197.829L586.08 199.691L587.806 201.553L589.532 199.691Z" fill="#287E1A"/>
<path d="M611.23 199.691L609.504 197.829L607.778 199.691L609.504 201.553L611.23 199.691Z" fill="#287E1A"/>
<path d="M220.665 223.096L218.939 221.234L217.213 223.096L218.939 224.958L220.665 223.096Z" fill="#287E1A"/>
<path d="M242.363 223.096L240.637 221.234L238.911 223.096L240.637 224.958L242.363 223.096Z" fill="#287E1A"/>
<path d="M264.061 223.096L262.335 221.234L260.609 223.096L262.335 224.958L264.061 223.096Z" fill="#287E1A"/>
<path d="M285.76 223.096L284.033 221.234L282.307 223.096L284.033 224.958L285.76 223.096Z" fill="#287E1A"/>
<path d="M307.458 223.096L305.732 221.234L304.005 223.096L305.732 224.958L307.458 223.096Z" fill="#287E1A"/>
<path d="M329.156 223.096L327.429 221.234L325.703 223.096L327.429 224.958L329.156 223.096Z" fill="#287E1A"/>
<path d="M350.854 223.096L349.128 221.234L347.402 223.096L349.128 224.958L350.854 223.096Z" fill="#287E1A"/>
<path d="M372.552 223.096L370.825 221.234L369.099 223.096L370.825 224.958L372.552 223.096Z" fill="#287E1A"/>
<path d="M394.25 223.096L392.524 221.234L390.798 223.096L392.524 224.958L394.25 223.096Z" fill="#287E1A"/>
<path d="M415.948 223.096L414.222 221.234L412.496 223.096L414.222 224.958L415.948 223.096Z" fill="#287E1A"/>
<path d="M437.646 223.096L435.92 221.234L434.194 223.096L435.92 224.958L437.646 223.096Z" fill="#287E1A"/>
<path d="M459.344 223.096L457.618 221.234L455.892 223.096L457.618 224.958L459.344 223.096Z" fill="#287E1A"/>
<path d="M481.042 223.096L479.316 221.234L477.59 223.096L479.316 224.958L481.042 223.096Z" fill="#287E1A"/>
<path d="M502.74 223.096L501.014 221.234L499.288 223.096L501.014 224.958L502.74 223.096Z" fill="#287E1A"/>
<path d="M524.438 223.096L522.712 221.234L520.986 223.096L522.712 224.958L524.438 223.096Z" fill="#287E1A"/>
<path d="M546.136 223.096L544.41 221.234L542.684 223.096L544.41 224.958L546.136 223.096Z" fill="#287E1A"/>
<path d="M567.834 223.096L566.108 221.234L564.382 223.096L566.108 224.958L567.834 223.096Z" fill="#287E1A"/>
<path d="M589.532 223.096L587.806 221.234L586.08 223.096L587.806 224.958L589.532 223.096Z" fill="#287E1A"/>
<path d="M611.23 223.096L609.504 221.234L607.778 223.096L609.504 224.958L611.23 223.096Z" fill="#287E1A"/>
<path d="M220.665 246.5L218.939 244.638L217.213 246.5L218.939 248.362L220.665 246.5Z" fill="#287E1A"/>
<path d="M242.363 246.5L240.637 244.638L238.911 246.5L240.637 248.362L242.363 246.5Z" fill="#287E1A"/>
<path d="M264.061 246.5L262.335 244.638L260.609 246.5L262.335 248.362L264.061 246.5Z" fill="#287E1A"/>
<path d="M285.76 246.5L284.033 244.638L282.307 246.5L284.033 248.362L285.76 246.5Z" fill="#287E1A"/>
<path d="M307.458 246.5L305.732 244.638L304.005 246.5L305.732 248.362L307.458 246.5Z" fill="#287E1A"/>
<path d="M329.156 246.5L327.429 244.638L325.703 246.5L327.429 248.362L329.156 246.5Z" fill="#287E1A"/>
<path d="M350.854 246.5L349.128 244.638L347.402 246.5L349.128 248.362L350.854 246.5Z" fill="#287E1A"/>
<path d="M372.552 246.5L370.825 244.638L369.099 246.5L370.825 248.362L372.552 246.5Z" fill="#287E1A"/>
<path d="M394.25 246.5L392.524 244.638L390.798 246.5L392.524 248.362L394.25 246.5Z" fill="#287E1A"/>
<path d="M415.948 246.5L414.222 244.638L412.496 246.5L414.222 248.362L415.948 246.5Z" fill="#287E1A"/>
<path d="M437.646 246.5L435.92 244.638L434.194 246.5L435.92 248.362L437.646 246.5Z" fill="#287E1A"/>
<path d="M459.344 246.5L457.618 244.638L455.892 246.5L457.618 248.362L459.344 246.5Z" fill="#287E1A"/>
<path d="M481.042 246.5L479.316 244.638L477.59 246.5L479.316 248.362L481.042 246.5Z" fill="#287E1A"/>
<path d="M502.74 246.5L501.014 244.638L499.288 246.5L501.014 248.362L502.74 246.5Z" fill="#287E1A"/>
<path d="M524.438 246.5L522.712 244.638L520.986 246.5L522.712 248.362L524.438 246.5Z" fill="#287E1A"/>
<path d="M546.136 246.5L544.41 244.638L542.684 246.5L544.41 248.362L546.136 246.5Z" fill="#287E1A"/>
<path d="M567.834 246.5L566.108 244.638L564.382 246.5L566.108 248.362L567.834 246.5Z" fill="#287E1A"/>
<path d="M589.532 246.5L587.806 244.638L586.08 246.5L587.806 248.362L589.532 246.5Z" fill="#287E1A"/>
<path d="M611.23 246.5L609.504 244.638L607.778 246.5L609.504 248.362L611.23 246.5Z" fill="#287E1A"/>
<path d="M220.665 269.904L218.939 268.042L217.213 269.904L218.939 271.766L220.665 269.904Z" fill="#287E1A"/>
<path d="M242.363 269.904L240.637 268.042L238.911 269.904L240.637 271.766L242.363 269.904Z" fill="#287E1A"/>
<path d="M264.061 269.904L262.335 268.042L260.609 269.904L262.335 271.766L264.061 269.904Z" fill="#287E1A"/>
<path d="M285.76 269.904L284.033 268.042L282.307 269.904L284.033 271.766L285.76 269.904Z" fill="#287E1A"/>
<path d="M307.458 269.904L305.732 268.042L304.005 269.904L305.732 271.766L307.458 269.904Z" fill="#287E1A"/>
<path d="M329.156 269.904L327.429 268.042L325.703 269.904L327.429 271.766L329.156 269.904Z" fill="#287E1A"/>
<path d="M350.854 269.904L349.128 268.042L347.402 269.904L349.128 271.766L350.854 269.904Z" fill="#287E1A"/>
<path d="M372.552 269.904L370.825 268.042L369.099 269.904L370.825 271.766L372.552 269.904Z" fill="#287E1A"/>
<path d="M394.25 269.904L392.524 268.042L390.798 269.904L392.524 271.766L394.25 269.904Z" fill="#287E1A"/>
<path d="M415.948 269.904L414.222 268.042L412.496 269.904L414.222 271.766L415.948 269.904Z" fill="#287E1A"/>
<path d="M437.646 269.904L435.92 268.042L434.194 269.904L435.92 271.766L437.646 269.904Z" fill="#287E1A"/>
<path d="M459.344 269.904L457.618 268.042L455.892 269.904L457.618 271.766L459.344 269.904Z" fill="#287E1A"/>
<path d="M481.042 269.904L479.316 268.042L477.59 269.904L479.316 271.766L481.042 269.904Z" fill="#287E1A"/>
<path d="M502.74 269.904L501.014 268.042L499.288 269.904L501.014 271.766L502.74 269.904Z" fill="#287E1A"/>
<path d="M524.438 269.904L522.712 268.042L520.986 269.904L522.712 271.766L524.438 269.904Z" fill="#287E1A"/>
<path d="M546.136 269.904L544.41 268.042L542.684 269.904L544.41 271.766L546.136 269.904Z" fill="#287E1A"/>
<path d="M567.834 269.904L566.108 268.042L564.382 269.904L566.108 271.766L567.834 269.904Z" fill="#287E1A"/>
<path d="M589.532 269.904L587.806 268.042L586.08 269.904L587.806 271.766L589.532 269.904Z" fill="#287E1A"/>
<path d="M611.23 269.904L609.504 268.042L607.778 269.904L609.504 271.766L611.23 269.904Z" fill="#287E1A"/>
<path d="M220.665 293.308L218.939 291.446L217.213 293.308L218.939 295.17L220.665 293.308Z" fill="#287E1A"/>
<path d="M242.363 293.308L240.637 291.446L238.911 293.308L240.637 295.17L242.363 293.308Z" fill="#287E1A"/>
<path d="M264.061 293.308L262.335 291.446L260.609 293.308L262.335 295.17L264.061 293.308Z" fill="#287E1A"/>
<path d="M285.76 293.308L284.033 291.446L282.307 293.308L284.033 295.17L285.76 293.308Z" fill="#287E1A"/>
<path d="M307.458 293.308L305.732 291.446L304.005 293.308L305.732 295.17L307.458 293.308Z" fill="#287E1A"/>
<path d="M329.156 293.308L327.429 291.446L325.703 293.308L327.429 295.17L329.156 293.308Z" fill="#287E1A"/>
<path d="M350.854 293.308L349.128 291.446L347.402 293.308L349.128 295.17L350.854 293.308Z" fill="#287E1A"/>
<path d="M372.552 293.308L370.825 291.446L369.099 293.308L370.825 295.17L372.552 293.308Z" fill="#287E1A"/>
<path d="M394.25 293.308L392.524 291.446L390.798 293.308L392.524 295.17L394.25 293.308Z" fill="#287E1A"/>
<path d="M415.948 293.308L414.222 291.446L412.496 293.308L414.222 295.17L415.948 293.308Z" fill="#287E1A"/>
<path d="M437.646 293.308L435.92 291.446L434.194 293.308L435.92 295.17L437.646 293.308Z" fill="#287E1A"/>
<path d="M459.344 293.308L457.618 291.446L455.892 293.308L457.618 295.17L459.344 293.308Z" fill="#287E1A"/>
<path d="M481.042 293.308L479.316 291.446L477.59 293.308L479.316 295.17L481.042 293.308Z" fill="#287E1A"/>
<path d="M502.74 293.308L501.014 291.446L499.288 293.308L501.014 295.17L502.74 293.308Z" fill="#287E1A"/>
<path d="M524.438 293.308L522.712 291.446L520.986 293.308L522.712 295.17L524.438 293.308Z" fill="#287E1A"/>
<path d="M546.136 293.308L544.41 291.446L542.684 293.308L544.41 295.17L546.136 293.308Z" fill="#287E1A"/>
<path d="M567.834 293.308L566.108 291.446L564.382 293.308L566.108 295.17L567.834 293.308Z" fill="#287E1A"/>
<path d="M589.532 293.308L587.806 291.446L586.08 293.308L587.806 295.17L589.532 293.308Z" fill="#287E1A"/>
<path d="M611.23 293.308L609.504 291.446L607.778 293.308L609.504 295.17L611.23 293.308Z" fill="#287E1A"/>
<path d="M220.665 316.713L218.939 314.851L217.213 316.713L218.939 318.575L220.665 316.713Z" fill="#287E1A"/>
<path d="M242.363 316.713L240.637 314.851L238.911 316.713L240.637 318.575L242.363 316.713Z" fill="#287E1A"/>
<path d="M264.061 316.713L262.335 314.851L260.609 316.713L262.335 318.575L264.061 316.713Z" fill="#287E1A"/>
<path d="M285.76 316.713L284.033 314.851L282.307 316.713L284.033 318.575L285.76 316.713Z" fill="#287E1A"/>
<path d="M307.458 316.713L305.732 314.851L304.005 316.713L305.732 318.575L307.458 316.713Z" fill="#287E1A"/>
<path d="M329.156 316.713L327.429 314.851L325.703 316.713L327.429 318.575L329.156 316.713Z" fill="#287E1A"/>
<path d="M350.854 316.713L349.128 314.851L347.402 316.713L349.128 318.575L350.854 316.713Z" fill="#287E1A"/>
<path d="M372.552 316.713L370.825 314.851L369.099 316.713L370.825 318.575L372.552 316.713Z" fill="#287E1A"/>
<path d="M394.25 316.713L392.524 314.851L390.798 316.713L392.524 318.575L394.25 316.713Z" fill="#287E1A"/>
<path d="M415.948 316.713L414.222 314.851L412.496 316.713L414.222 318.575L415.948 316.713Z" fill="#287E1A"/>
<path d="M437.646 316.713L435.92 314.851L434.194 316.713L435.92 318.575L437.646 316.713Z" fill="#287E1A"/>
<path d="M459.344 316.713L457.618 314.851L455.892 316.713L457.618 318.575L459.344 316.713Z" fill="#287E1A"/>
<path d="M481.042 316.713L479.316 314.851L477.59 316.713L479.316 318.575L481.042 316.713Z" fill="#287E1A"/>
<path d="M502.74 316.713L501.014 314.851L499.288 316.713L501.014 318.575L502.74 316.713Z" fill="#287E1A"/>
<path d="M524.438 316.713L522.712 314.851L520.986 316.713L522.712 318.575L524.438 316.713Z" fill="#287E1A"/>
<path d="M546.136 316.713L544.41 314.851L542.684 316.713L544.41 318.575L546.136 316.713Z" fill="#287E1A"/>
<path d="M567.834 316.713L566.108 314.851L564.382 316.713L566.108 318.575L567.834 316.713Z" fill="#287E1A"/>
<path d="M589.532 316.713L587.806 314.851L586.08 316.713L587.806 318.575L589.532 316.713Z" fill="#287E1A"/>
<path d="M611.23 316.713L609.504 314.851L607.778 316.713L609.504 318.575L611.23 316.713Z" fill="#287E1A"/>
<path d="M220.665 340.117L218.939 338.255L217.213 340.117L218.939 341.979L220.665 340.117Z" fill="#287E1A"/>
<path d="M242.363 340.117L240.637 338.255L238.911 340.117L240.637 341.979L242.363 340.117Z" fill="#287E1A"/>
<path d="M264.061 340.117L262.335 338.255L260.609 340.117L262.335 341.979L264.061 340.117Z" fill="#287E1A"/>
<path d="M285.76 340.117L284.033 338.255L282.307 340.117L284.033 341.979L285.76 340.117Z" fill="#287E1A"/>
<path d="M307.458 340.117L305.732 338.255L304.005 340.117L305.732 341.979L307.458 340.117Z" fill="#287E1A"/>
<path d="M329.156 340.117L327.429 338.255L325.703 340.117L327.429 341.979L329.156 340.117Z" fill="#287E1A"/>
<path d="M350.854 340.117L349.128 338.255L347.402 340.117L349.128 341.979L350.854 340.117Z" fill="#287E1A"/>
<path d="M372.552 340.117L370.825 338.255L369.099 340.117L370.825 341.979L372.552 340.117Z" fill="#287E1A"/>
<path d="M394.25 340.117L392.524 338.255L390.798 340.117L392.524 341.979L394.25 340.117Z" fill="#287E1A"/>
<path d="M415.948 340.117L414.222 338.255L412.496 340.117L414.222 341.979L415.948 340.117Z" fill="#287E1A"/>
<path d="M437.646 340.117L435.92 338.255L434.194 340.117L435.92 341.979L437.646 340.117Z" fill="#287E1A"/>
<path d="M459.344 340.117L457.618 338.255L455.892 340.117L457.618 341.979L459.344 340.117Z" fill="#287E1A"/>
<path d="M481.042 340.117L479.316 338.255L477.59 340.117L479.316 341.979L481.042 340.117Z" fill="#287E1A"/>
<path d="M502.74 340.117L501.014 338.255L499.288 340.117L501.014 341.979L502.74 340.117Z" fill="#287E1A"/>
<path d="M524.438 340.117L522.712 338.255L520.986 340.117L522.712 341.979L524.438 340.117Z" fill="#287E1A"/>
<path d="M546.136 340.117L544.41 338.255L542.684 340.117L544.41 341.979L546.136 340.117Z" fill="#287E1A"/>
<path d="M567.834 340.117L566.108 338.255L564.382 340.117L566.108 341.979L567.834 340.117Z" fill="#287E1A"/>
<path d="M589.532 340.117L587.806 338.255L586.08 340.117L587.806 341.979L589.532 340.117Z" fill="#287E1A"/>
<path d="M611.23 340.117L609.504 338.255L607.778 340.117L609.504 341.979L611.23 340.117Z" fill="#287E1A"/>
<path d="M220.665 363.521L218.939 361.659L217.213 363.521L218.939 365.383L220.665 363.521Z" fill="#287E1A"/>
<path d="M242.363 363.521L240.637 361.659L238.911 363.521L240.637 365.383L242.363 363.521Z" fill="#287E1A"/>
<path d="M264.061 363.521L262.335 361.659L260.609 363.521L262.335 365.383L264.061 363.521Z" fill="#287E1A"/>
<path d="M285.76 363.521L284.033 361.659L282.307 363.521L284.033 365.383L285.76 363.521Z" fill="#287E1A"/>
<path d="M307.458 363.521L305.732 361.659L304.005 363.521L305.732 365.383L307.458 363.521Z" fill="#287E1A"/>
<path d="M329.156 363.521L327.429 361.659L325.703 363.521L327.429 365.383L329.156 363.521Z" fill="#287E1A"/>
<path d="M350.854 363.521L349.128 361.659L347.402 363.521L349.128 365.383L350.854 363.521Z" fill="#287E1A"/>
<path d="M372.552 363.521L370.825 361.659L369.099 363.521L370.825 365.383L372.552 363.521Z" fill="#287E1A"/>
<path d="M394.25 363.521L392.524 361.659L390.798 363.521L392.524 365.383L394.25 363.521Z" fill="#287E1A"/>
<path d="M415.948 363.521L414.222 361.659L412.496 363.521L414.222 365.383L415.948 363.521Z" fill="#287E1A"/>
<path d="M437.646 363.521L435.92 361.659L434.194 363.521L435.92 365.383L437.646 363.521Z" fill="#287E1A"/>
<path d="M459.344 363.521L457.618 361.659L455.892 363.521L457.618 365.383L459.344 363.521Z" fill="#287E1A"/>
<path d="M481.042 363.521L479.316 361.659L477.59 363.521L479.316 365.383L481.042 363.521Z" fill="#287E1A"/>
<path d="M502.74 363.521L501.014 361.659L499.288 363.521L501.014 365.383L502.74 363.521Z" fill="#287E1A"/>
<path d="M524.438 363.521L522.712 361.659L520.986 363.521L522.712 365.383L524.438 363.521Z" fill="#287E1A"/>
<path d="M546.136 363.521L544.41 361.659L542.684 363.521L544.41 365.383L546.136 363.521Z" fill="#287E1A"/>
<path d="M567.834 363.521L566.108 361.659L564.382 363.521L566.108 365.383L567.834 363.521Z" fill="#287E1A"/>
<path d="M589.532 363.521L587.806 361.659L586.08 363.521L587.806 365.383L589.532 363.521Z" fill="#287E1A"/>
<path d="M611.23 363.521L609.504 361.659L607.778 363.521L609.504 365.383L611.23 363.521Z" fill="#287E1A"/>
<path d="M220.665 386.925L218.939 385.064L217.213 386.925L218.939 388.787L220.665 386.925Z" fill="#287E1A"/>
<path d="M242.363 386.925L240.637 385.064L238.911 386.925L240.637 388.787L242.363 386.925Z" fill="#287E1A"/>
<path d="M264.061 386.925L262.335 385.064L260.609 386.925L262.335 388.787L264.061 386.925Z" fill="#287E1A"/>
<path d="M285.76 386.925L284.033 385.064L282.307 386.925L284.033 388.787L285.76 386.925Z" fill="#287E1A"/>
<path d="M307.458 386.925L305.732 385.064L304.005 386.925L305.732 388.787L307.458 386.925Z" fill="#287E1A"/>
<path d="M329.156 386.925L327.429 385.064L325.703 386.925L327.429 388.787L329.156 386.925Z" fill="#287E1A"/>
<path d="M350.854 386.925L349.128 385.064L347.402 386.925L349.128 388.787L350.854 386.925Z" fill="#287E1A"/>
<path d="M372.552 386.925L370.825 385.064L369.099 386.925L370.825 388.787L372.552 386.925Z" fill="#287E1A"/>
<path d="M394.25 386.925L392.524 385.064L390.798 386.925L392.524 388.787L394.25 386.925Z" fill="#287E1A"/>
<path d="M415.948 386.925L414.222 385.064L412.496 386.925L414.222 388.787L415.948 386.925Z" fill="#287E1A"/>
<path d="M437.646 386.925L435.92 385.064L434.194 386.925L435.92 388.787L437.646 386.925Z" fill="#287E1A"/>
<path d="M459.344 386.925L457.618 385.064L455.892 386.925L457.618 388.787L459.344 386.925Z" fill="#287E1A"/>
<path d="M481.042 386.925L479.316 385.064L477.59 386.925L479.316 388.787L481.042 386.925Z" fill="#287E1A"/>
<path d="M502.74 386.925L501.014 385.064L499.288 386.925L501.014 388.787L502.74 386.925Z" fill="#287E1A"/>
<path d="M524.438 386.925L522.712 385.064L520.986 386.925L522.712 388.787L524.438 386.925Z" fill="#287E1A"/>
<path d="M546.136 386.925L544.41 385.064L542.684 386.925L544.41 388.787L546.136 386.925Z" fill="#287E1A"/>
<path d="M567.834 386.925L566.108 385.064L564.382 386.925L566.108 388.787L567.834 386.925Z" fill="#287E1A"/>
<path d="M589.532 386.925L587.806 385.064L586.08 386.925L587.806 388.787L589.532 386.925Z" fill="#287E1A"/>
<path d="M611.23 386.925L609.504 385.064L607.778 386.925L609.504 388.787L611.23 386.925Z" fill="#287E1A"/>
<path d="M220.665 410.33L218.939 408.468L217.213 410.33L218.939 412.191L220.665 410.33Z" fill="#287E1A"/>
<path d="M242.363 410.33L240.637 408.468L238.911 410.33L240.637 412.191L242.363 410.33Z" fill="#287E1A"/>
<path d="M264.061 410.33L262.335 408.468L260.609 410.33L262.335 412.191L264.061 410.33Z" fill="#287E1A"/>
<path d="M285.76 410.33L284.033 408.468L282.307 410.33L284.033 412.191L285.76 410.33Z" fill="#287E1A"/>
<path d="M307.458 410.33L305.732 408.468L304.005 410.33L305.732 412.191L307.458 410.33Z" fill="#287E1A"/>
<path d="M329.156 410.33L327.429 408.468L325.703 410.33L327.429 412.191L329.156 410.33Z" fill="#287E1A"/>
<path d="M350.854 410.33L349.128 408.468L347.402 410.33L349.128 412.191L350.854 410.33Z" fill="#287E1A"/>
<path d="M372.552 410.33L370.825 408.468L369.099 410.33L370.825 412.191L372.552 410.33Z" fill="#287E1A"/>
<path d="M394.25 410.33L392.524 408.468L390.798 410.33L392.524 412.191L394.25 410.33Z" fill="#287E1A"/>
<path d="M415.948 410.33L414.222 408.468L412.496 410.33L414.222 412.191L415.948 410.33Z" fill="#287E1A"/>
<path d="M437.646 410.33L435.92 408.468L434.194 410.33L435.92 412.191L437.646 410.33Z" fill="#287E1A"/>
<path d="M459.344 410.33L457.618 408.468L455.892 410.33L457.618 412.191L459.344 410.33Z" fill="#287E1A"/>
<path d="M481.042 410.33L479.316 408.468L477.59 410.33L479.316 412.191L481.042 410.33Z" fill="#287E1A"/>
<path d="M502.74 410.33L501.014 408.468L499.288 410.33L501.014 412.191L502.74 410.33Z" fill="#287E1A"/>
<path d="M524.438 410.33L522.712 408.468L520.986 410.33L522.712 412.191L524.438 410.33Z" fill="#287E1A"/>
<path d="M546.136 410.33L544.41 408.468L542.684 410.33L544.41 412.191L546.136 410.33Z" fill="#287E1A"/>
<path d="M567.834 410.33L566.108 408.468L564.382 410.33L566.108 412.191L567.834 410.33Z" fill="#287E1A"/>
<path d="M589.532 410.33L587.806 408.468L586.08 410.33L587.806 412.191L589.532 410.33Z" fill="#287E1A"/>
<path d="M611.23 410.33L609.504 408.468L607.778 410.33L609.504 412.191L611.23 410.33Z" fill="#287E1A"/>
<path d="M220.665 433.734L218.939 431.872L217.213 433.734L218.939 435.595L220.665 433.734Z" fill="#287E1A"/>
<path d="M242.363 433.734L240.637 431.872L238.911 433.734L240.637 435.595L242.363 433.734Z" fill="#287E1A"/>
<path d="M264.061 433.734L262.335 431.872L260.609 433.734L262.335 435.595L264.061 433.734Z" fill="#287E1A"/>
<path d="M285.76 433.734L284.033 431.872L282.307 433.734L284.033 435.595L285.76 433.734Z" fill="#287E1A"/>
<path d="M307.458 433.734L305.732 431.872L304.005 433.734L305.732 435.595L307.458 433.734Z" fill="#287E1A"/>
<path d="M329.156 433.734L327.429 431.872L325.703 433.734L327.429 435.595L329.156 433.734Z" fill="#287E1A"/>
<path d="M350.854 433.734L349.128 431.872L347.402 433.734L349.128 435.595L350.854 433.734Z" fill="#287E1A"/>
<path d="M372.552 433.734L370.825 431.872L369.099 433.734L370.825 435.595L372.552 433.734Z" fill="#287E1A"/>
<path d="M394.25 433.734L392.524 431.872L390.798 433.734L392.524 435.595L394.25 433.734Z" fill="#287E1A"/>
<path d="M415.948 433.734L414.222 431.872L412.496 433.734L414.222 435.595L415.948 433.734Z" fill="#287E1A"/>
<path d="M437.646 433.734L435.92 431.872L434.194 433.734L435.92 435.595L437.646 433.734Z" fill="#287E1A"/>
<path d="M459.344 433.734L457.618 431.872L455.892 433.734L457.618 435.595L459.344 433.734Z" fill="#287E1A"/>
<path d="M481.042 433.734L479.316 431.872L477.59 433.734L479.316 435.595L481.042 433.734Z" fill="#287E1A"/>
<path d="M502.74 433.734L501.014 431.872L499.288 433.734L501.014 435.595L502.74 433.734Z" fill="#287E1A"/>
<path d="M524.438 433.734L522.712 431.872L520.986 433.734L522.712 435.595L524.438 433.734Z" fill="#287E1A"/>
<path d="M546.136 433.734L544.41 431.872L542.684 433.734L544.41 435.595L546.136 433.734Z" fill="#287E1A"/>
<path d="M567.834 433.734L566.108 431.872L564.382 433.734L566.108 435.595L567.834 433.734Z" fill="#287E1A"/>
<path d="M589.532 433.734L587.806 431.872L586.08 433.734L587.806 435.595L589.532 433.734Z" fill="#287E1A"/>
<path d="M611.23 433.734L609.504 431.872L607.778 433.734L609.504 435.595L611.23 433.734Z" fill="#287E1A"/>
<path d="M220.665 457.138L218.939 455.276L217.213 457.138L218.939 459L220.665 457.138Z" fill="#287E1A"/>
<path d="M242.363 457.138L240.637 455.276L238.911 457.138L240.637 459L242.363 457.138Z" fill="#287E1A"/>
<path d="M264.061 457.138L262.335 455.276L260.609 457.138L262.335 459L264.061 457.138Z" fill="#287E1A"/>
<path d="M285.76 457.138L284.033 455.276L282.307 457.138L284.033 459L285.76 457.138Z" fill="#287E1A"/>
<path d="M307.458 457.138L305.732 455.276L304.005 457.138L305.732 459L307.458 457.138Z" fill="#287E1A"/>
<path d="M329.156 457.138L327.429 455.276L325.703 457.138L327.429 459L329.156 457.138Z" fill="#287E1A"/>
<path d="M350.854 457.138L349.128 455.276L347.402 457.138L349.128 459L350.854 457.138Z" fill="#287E1A"/>
<path d="M372.552 457.138L370.825 455.276L369.099 457.138L370.825 459L372.552 457.138Z" fill="#287E1A"/>
<path d="M394.25 457.138L392.524 455.276L390.798 457.138L392.524 459L394.25 457.138Z" fill="#287E1A"/>
<path d="M415.948 457.138L414.222 455.276L412.496 457.138L414.222 459L415.948 457.138Z" fill="#287E1A"/>
<path d="M437.646 457.138L435.92 455.276L434.194 457.138L435.92 459L437.646 457.138Z" fill="#287E1A"/>
<path d="M459.344 457.138L457.618 455.276L455.892 457.138L457.618 459L459.344 457.138Z" fill="#287E1A"/>
<path d="M481.042 457.138L479.316 455.276L477.59 457.138L479.316 459L481.042 457.138Z" fill="#287E1A"/>
<path d="M502.74 457.138L501.014 455.276L499.288 457.138L501.014 459L502.74 457.138Z" fill="#287E1A"/>
<path d="M524.438 457.138L522.712 455.276L520.986 457.138L522.712 459L524.438 457.138Z" fill="#287E1A"/>
<path d="M546.136 457.138L544.41 455.276L542.684 457.138L544.41 459L546.136 457.138Z" fill="#287E1A"/>
<path d="M567.834 457.138L566.108 455.276L564.382 457.138L566.108 459L567.834 457.138Z" fill="#287E1A"/>
<path d="M589.532 457.138L587.806 455.276L586.08 457.138L587.806 459L589.532 457.138Z" fill="#287E1A"/>
<path d="M611.23 457.138L609.504 455.276L607.778 457.138L609.504 459L611.23 457.138Z" fill="#287E1A"/>
<path d="M448.937 384.291C450.052 384.48 451.11 383.734 451.302 382.625L451.302 382.624L451.304 382.613C451.306 382.599 451.311 382.574 451.318 382.539C451.332 382.468 451.356 382.356 451.389 382.21C451.457 381.918 451.566 381.489 451.727 380.969C452.052 379.922 452.576 378.547 453.374 377.19C454.969 374.479 457.481 372.08 461.584 372.08C465.854 372.08 469.155 374.608 473.12 377.755L473.332 377.922C475.405 379.569 477.684 381.378 480.312 382.652C482.375 383.651 484.652 384.32 487.215 384.32C489.765 384.32 492.034 383.657 494.09 382.665C496.729 381.391 499.017 379.575 501.097 377.922L501.309 377.755C505.274 374.608 508.575 372.08 512.845 372.08C517.116 372.08 520.417 374.608 524.382 377.755L524.594 377.922C526.694 379.59 529.005 381.425 531.676 382.701C533.712 383.673 535.956 384.32 538.476 384.32C540.985 384.32 543.221 383.679 545.25 382.714C547.932 381.438 550.252 379.596 552.359 377.922L552.57 377.755C556.536 374.608 559.837 372.08 564.107 372.08C568.241 372.08 570.957 374.515 572.75 377.269C573.642 378.639 574.257 380.025 574.65 381.077C574.845 381.6 574.981 382.031 575.068 382.326C575.111 382.473 575.141 382.585 575.16 382.657C575.169 382.692 575.176 382.718 575.179 382.732L575.182 382.742L575.182 382.745L575.183 382.746C575.441 383.841 576.542 384.522 577.644 384.267C578.747 384.011 579.433 382.915 579.176 381.817L577.179 382.28C579.176 381.817 579.176 381.817 579.176 381.816L579.175 381.814L579.174 381.809L579.171 381.796L579.162 381.757C579.154 381.725 579.143 381.682 579.129 381.628C579.1 381.52 579.059 381.37 579.004 381.182C578.894 380.807 578.727 380.283 578.494 379.658C578.031 378.415 577.292 376.741 576.192 375.051C574.001 371.685 570.181 368 564.107 368C558.281 368 553.926 371.459 550.225 374.397L550.013 374.565C546.048 377.712 542.747 380.24 538.476 380.24C534.206 380.24 530.905 377.712 526.94 374.565L526.728 374.397C523.027 371.459 518.672 368 512.845 368C507.019 368 502.664 371.459 498.963 374.397L498.751 374.565C494.786 377.712 491.485 380.24 487.215 380.24C482.944 380.24 479.643 377.712 475.678 374.565L475.466 374.397C471.765 371.459 467.41 368 461.584 368C455.478 368 451.839 371.721 449.835 375.13C448.833 376.833 448.195 378.518 447.808 379.766C447.614 380.394 447.479 380.921 447.392 381.298C447.349 381.486 447.317 381.638 447.295 381.746C447.285 381.801 447.276 381.844 447.27 381.876L447.263 381.916L447.261 381.929L447.26 381.934L447.26 381.936C447.26 381.937 447.259 381.937 449.281 382.28L447.259 381.937C447.069 383.048 447.82 384.102 448.937 384.291Z" fill="#287E1A"/>
<path d="M451.302 399.965C451.11 401.074 450.052 401.82 448.937 401.631C447.82 401.442 447.069 400.388 447.259 399.277L449.281 399.62C447.259 399.277 447.26 399.276 447.26 399.276L447.26 399.274L447.261 399.269L447.263 399.256L447.27 399.216C447.276 399.184 447.285 399.14 447.295 399.086C447.317 398.978 447.349 398.826 447.392 398.637C447.479 398.261 447.614 397.734 447.808 397.106C448.195 395.858 448.833 394.173 449.835 392.47C451.839 389.061 455.478 385.34 461.584 385.34C467.41 385.34 471.765 388.798 475.466 391.737L475.678 391.905C479.643 395.052 482.944 397.58 487.215 397.58C491.485 397.58 494.786 395.052 498.751 391.905L498.963 391.737C502.664 388.798 507.019 385.34 512.845 385.34C518.672 385.34 523.027 388.798 526.728 391.737L526.94 391.905C530.905 395.052 534.206 397.58 538.476 397.58C542.747 397.58 546.048 395.052 550.013 391.905L550.225 391.737C553.926 388.798 558.281 385.34 564.107 385.34C570.181 385.34 574.001 389.024 576.192 392.391C577.292 394.08 578.031 395.754 578.494 396.998C578.727 397.622 578.894 398.147 579.004 398.522C579.059 398.71 579.1 398.86 579.129 398.968C579.143 399.022 579.154 399.065 579.162 399.097L579.171 399.136L579.174 399.149L579.175 399.154L579.176 399.156C579.176 399.156 579.176 399.157 577.179 399.62L579.176 399.157C579.433 400.254 578.747 401.351 577.644 401.607C576.542 401.862 575.441 401.181 575.183 400.086L575.182 400.084L575.182 400.082L575.179 400.072C575.176 400.058 575.169 400.032 575.16 399.996C575.141 399.925 575.111 399.813 575.068 399.666C574.981 399.371 574.845 398.94 574.65 398.417C574.257 397.365 573.642 395.979 572.75 394.609C570.957 391.855 568.241 389.42 564.107 389.42C559.837 389.42 556.536 391.948 552.57 395.095L552.359 395.262C550.252 396.936 547.932 398.778 545.25 400.054C543.221 401.018 540.985 401.66 538.476 401.66C535.956 401.66 533.712 401.013 531.676 400.041C529.005 398.765 526.694 396.93 524.594 395.262L524.382 395.095C520.417 391.948 517.116 389.42 512.845 389.42C508.575 389.42 505.274 391.948 501.309 395.095L501.097 395.262C499.017 396.914 496.729 398.731 494.09 400.005C492.034 400.997 489.765 401.66 487.215 401.66C484.652 401.66 482.375 400.991 480.312 399.991C477.684 398.718 475.405 396.909 473.332 395.262L473.12 395.095C469.155 391.948 465.854 389.42 461.584 389.42C457.481 389.42 454.969 391.819 453.374 394.53C452.576 395.887 452.052 397.262 451.727 398.309C451.566 398.828 451.457 399.258 451.389 399.55C451.356 399.696 451.332 399.808 451.318 399.878C451.311 399.914 451.306 399.939 451.304 399.953L451.302 399.964L451.302 399.965Z" fill="#287E1A"/>
<path d="M451.302 417.304C451.111 418.414 450.052 419.16 448.937 418.971C447.82 418.781 447.069 417.728 447.259 416.617L449.281 416.96C447.259 416.617 447.26 416.616 447.26 416.615L447.26 416.613L447.261 416.608L447.263 416.595L447.27 416.556C447.276 416.524 447.285 416.48 447.295 416.426C447.317 416.317 447.349 416.166 447.392 415.977C447.479 415.6 447.614 415.073 447.808 414.446C448.195 413.197 448.833 411.513 449.835 409.809C451.839 406.401 455.478 402.68 461.584 402.68C467.41 402.68 471.765 406.138 475.466 409.077L475.678 409.245C479.643 412.392 482.944 414.92 487.215 414.92C491.485 414.92 494.786 412.392 498.751 409.245L498.963 409.077C502.664 406.138 507.019 402.68 512.845 402.68C518.672 402.68 523.027 406.138 526.728 409.077L526.94 409.245C530.905 412.392 534.206 414.92 538.476 414.92C542.747 414.92 546.048 412.392 550.013 409.245L550.225 409.077C553.926 406.138 558.281 402.68 564.107 402.68C570.181 402.68 574.001 406.364 576.192 409.731C577.292 411.42 578.031 413.094 578.494 414.337C578.727 414.962 578.894 415.487 579.004 415.862C579.059 416.049 579.1 416.2 579.129 416.308C579.143 416.362 579.154 416.405 579.162 416.437L579.171 416.476L579.174 416.489L579.175 416.493L579.176 416.495C579.176 416.496 579.176 416.497 577.179 416.96L579.176 416.497C579.433 417.594 578.747 418.691 577.644 418.946C576.542 419.202 575.441 418.521 575.183 417.426L575.182 417.424L575.182 417.422L575.179 417.412C575.178 417.406 575.176 417.397 575.173 417.386C575.169 417.372 575.165 417.356 575.16 417.336C575.141 417.265 575.111 417.153 575.068 417.006C574.981 416.711 574.845 416.279 574.65 415.757C574.257 414.705 573.642 413.319 572.75 411.949C570.957 409.195 568.241 406.76 564.107 406.76C559.837 406.76 556.536 409.288 552.57 412.434L552.359 412.602C550.252 414.276 547.932 416.117 545.25 417.393C543.221 418.358 540.985 419 538.476 419C535.956 419 533.712 418.353 531.676 417.38C529.005 416.105 526.694 414.27 524.594 412.602L524.382 412.434C520.417 409.288 517.116 406.76 512.845 406.76C508.575 406.76 505.274 409.288 501.309 412.434L501.097 412.602C499.017 414.254 496.729 416.071 494.09 417.344C492.034 418.337 489.765 419 487.215 419C484.652 419 482.375 418.331 480.312 417.331C477.684 416.058 475.405 414.249 473.332 412.602L473.12 412.434C469.155 409.288 465.854 406.76 461.584 406.76C457.481 406.76 454.969 409.159 453.374 411.87C452.576 413.227 452.052 414.602 451.727 415.649C451.566 416.168 451.457 416.597 451.389 416.89C451.356 417.036 451.332 417.147 451.318 417.218C451.311 417.254 451.306 417.279 451.304 417.293L451.302 417.304Z" fill="#287E1A"/>
<path d="M56.23 -6.99382e-06L56.23 30.1887L96.23 55L136.23 30.1887L136.23 0L96.23 24.8113L56.23 -6.99382e-06Z" fill="#287E1A"/>
<path d="M56.23 75.1887L56.23 45L96.23 69.8113L136.23 45L136.23 75.1887L96.23 100L56.23 75.1887Z" fill="#287E1A"/>
<path d="M56.23 120.189L56.23 90L96.23 114.811L136.23 90L136.23 120.189L96.23 145L56.23 120.189Z" fill="#287E1A"/>
</svg>
