<svg width="1440" height="826" viewBox="0 0 1440 826" fill="none" xmlns="http://www.w3.org/2000/svg">
<path d="M1356.93 12.8649L1358.74 4.16233L1352.37 10.3675L1343.93 13.1539L1352.49 15.5624L1359.12 21.4786L1356.93 12.8649Z" fill="#309924"/>
<path d="M1392.01 32.0899L1393.81 23.3873L1387.45 29.5925L1379.01 32.3789L1387.56 34.7874L1394.2 40.7036L1392.01 32.0899Z" fill="#309924"/>
<path d="M1428.89 42.6123L1427.08 51.3149L1429.27 59.9285L1422.64 54.0124L1414.09 51.6039L1422.53 48.8175L1428.89 42.6123Z" fill="#309924"/>
<path d="M1462.16 70.5399L1463.97 61.8373L1457.6 68.0425L1449.16 70.8289L1457.72 73.2374L1464.35 79.1535L1462.16 70.5399Z" fill="#309924"/>
<path d="M1499.04 81.0623L1497.24 89.7649L1499.43 98.3785L1492.8 92.4623L1484.24 90.0539L1492.68 87.2675L1499.04 81.0623Z" fill="#309924"/>
<path d="M1532.31 108.99L1534.12 100.287L1527.76 106.492L1519.32 109.279L1527.87 111.687L1534.51 117.604L1532.31 108.99Z" fill="#309924"/>
<path d="M1569.2 119.512L1567.39 128.215L1569.58 136.829L1562.95 130.912L1554.39 128.504L1562.83 125.717L1569.2 119.512Z" fill="#309924"/>
<path d="M1602.47 147.44L1604.27 138.737L1597.91 144.942L1589.47 147.729L1598.03 150.137L1604.66 156.054L1602.47 147.44Z" fill="#309924"/>
<path d="M1344.32 30.4701L1342.51 39.1727L1344.7 47.7864L1338.07 41.8702L1329.51 39.4617L1337.95 36.6753L1344.32 30.4701Z" fill="#309924"/>
<path d="M1377.59 58.3977L1379.39 49.6951L1373.03 55.9003L1364.59 58.6867L1373.15 61.0952L1379.78 67.0113L1377.59 58.3977Z" fill="#309924"/>
<path d="M1414.47 68.9201L1412.66 77.6227L1414.86 86.2363L1408.22 80.3202L1399.67 77.9117L1408.11 75.1253L1414.47 68.9201Z" fill="#309924"/>
<path d="M1447.74 96.8477L1449.55 88.1451L1443.18 94.3503L1434.74 97.1367L1443.3 99.5451L1449.93 105.461L1447.74 96.8477Z" fill="#309924"/>
<path d="M1484.62 107.37L1482.82 116.073L1485.01 124.686L1478.38 118.77L1469.82 116.362L1478.26 113.575L1484.62 107.37Z" fill="#309924"/>
<path d="M1517.89 135.298L1519.7 126.595L1513.34 132.8L1504.9 135.587L1513.45 137.995L1520.09 143.911L1517.89 135.298Z" fill="#309924"/>
<path d="M1554.78 145.82L1552.97 154.523L1555.16 163.136L1548.53 157.22L1539.97 154.812L1548.41 152.025L1554.78 145.82Z" fill="#309924"/>
<path d="M1588.05 173.748L1589.86 165.045L1583.49 171.25L1575.05 174.037L1583.61 176.445L1590.24 182.361L1588.05 173.748Z" fill="#309924"/>
<path d="M1329.9 56.7779L1328.09 65.4805L1330.28 74.0941L1323.65 68.178L1315.09 65.7695L1323.53 62.9831L1329.9 56.7779Z" fill="#309924"/>
<path d="M1363.17 84.7055L1364.97 76.0029L1358.61 82.2081L1350.17 84.9945L1358.73 87.4029L1365.36 93.3191L1363.17 84.7055Z" fill="#309924"/>
<path d="M1400.05 95.2279L1398.24 103.93L1400.44 112.544L1393.8 106.628L1385.25 104.219L1393.69 101.433L1400.05 95.2279Z" fill="#309924"/>
<path d="M1433.32 123.155L1435.13 114.453L1428.77 120.658L1420.32 123.444L1428.88 125.853L1435.51 131.769L1433.32 123.155Z" fill="#309924"/>
<path d="M1470.21 133.678L1468.4 142.38L1470.59 150.994L1463.96 145.078L1455.4 142.669L1463.84 139.883L1470.21 133.678Z" fill="#309924"/>
<path d="M1503.48 161.605L1505.28 152.903L1498.92 159.108L1490.48 161.894L1499.03 164.303L1505.67 170.219L1503.48 161.605Z" fill="#309924"/>
<path d="M1540.36 172.128L1538.55 180.83L1540.74 189.444L1534.11 183.528L1525.56 181.119L1534 178.333L1540.36 172.128Z" fill="#309924"/>
<path d="M1573.63 200.055L1575.44 191.353L1569.07 197.558L1560.63 200.344L1569.19 202.753L1575.82 208.669L1573.63 200.055Z" fill="#309924"/>
<path d="M1315.48 83.0857L1313.67 91.7883L1315.86 100.402L1309.23 94.4857L1300.68 92.0773L1309.12 89.2909L1315.48 83.0857Z" fill="#309924"/>
<path d="M1348.75 111.013L1350.56 102.311L1344.19 108.516L1335.75 111.302L1344.31 113.711L1350.94 119.627L1348.75 111.013Z" fill="#309924"/>
<path d="M1385.63 121.536L1383.83 130.238L1386.02 138.852L1379.38 132.936L1370.83 130.527L1379.27 127.741L1385.63 121.536Z" fill="#309924"/>
<path d="M1418.9 149.463L1420.71 140.761L1414.35 146.966L1405.91 149.752L1414.46 152.161L1421.09 158.077L1418.9 149.463Z" fill="#309924"/>
<path d="M1455.79 159.986L1453.98 168.688L1456.17 177.302L1449.54 171.386L1440.98 168.977L1449.42 166.191L1455.79 159.986Z" fill="#309924"/>
<path d="M1489.06 187.913L1490.86 179.211L1484.5 185.416L1476.06 188.202L1484.62 190.611L1491.25 196.527L1489.06 187.913Z" fill="#309924"/>
<path d="M1525.94 198.436L1524.13 207.138L1526.33 215.752L1519.69 209.836L1511.14 207.427L1519.58 204.641L1525.94 198.436Z" fill="#309924"/>
<path d="M1559.21 226.363L1561.02 217.661L1554.65 223.866L1546.21 226.652L1554.77 229.061L1561.4 234.977L1559.21 226.363Z" fill="#309924"/>
<path d="M1301.06 109.393L1299.25 118.096L1301.45 126.71L1294.81 120.794L1286.26 118.385L1294.7 115.599L1301.06 109.393Z" fill="#309924"/>
<path d="M1334.33 137.321L1336.14 128.618L1329.77 134.824L1321.33 137.61L1329.89 140.019L1336.52 145.935L1334.33 137.321Z" fill="#309924"/>
<path d="M1371.21 147.843L1369.41 156.546L1371.6 165.16L1364.97 159.244L1356.41 156.835L1364.85 154.049L1371.21 147.843Z" fill="#309924"/>
<path d="M1404.48 175.771L1406.29 167.068L1399.93 173.274L1391.49 176.06L1400.04 178.469L1406.68 184.385L1404.48 175.771Z" fill="#309924"/>
<path d="M1441.37 186.293L1439.56 194.996L1441.75 203.61L1435.12 197.694L1426.56 195.285L1435 192.499L1441.37 186.293Z" fill="#309924"/>
<path d="M1474.64 214.221L1476.45 205.518L1470.08 211.724L1461.64 214.51L1470.2 216.918L1476.83 222.835L1474.64 214.221Z" fill="#309924"/>
<path d="M1511.52 224.743L1509.72 233.446L1511.91 242.06L1505.27 236.143L1496.72 233.735L1505.16 230.949L1511.52 224.743Z" fill="#309924"/>
<path d="M1544.79 252.671L1546.6 243.968L1540.24 250.174L1531.8 252.96L1540.35 255.368L1546.98 261.285L1544.79 252.671Z" fill="#309924"/>
<path d="M1286.64 135.701L1284.83 144.404L1287.03 153.018L1280.39 147.101L1271.84 144.693L1280.28 141.906L1286.64 135.701Z" fill="#309924"/>
<path d="M1319.91 163.629L1321.72 154.926L1315.35 161.131L1306.91 163.918L1315.47 166.326L1322.1 172.243L1319.91 163.629Z" fill="#309924"/>
<path d="M1356.8 174.151L1354.99 182.854L1357.18 191.467L1350.55 185.551L1341.99 183.143L1350.43 180.356L1356.8 174.151Z" fill="#309924"/>
<path d="M1390.07 202.079L1391.87 193.376L1385.51 199.581L1377.07 202.368L1385.62 204.776L1392.26 210.692L1390.07 202.079Z" fill="#309924"/>
<path d="M1426.95 212.601L1425.14 221.304L1427.33 229.917L1420.7 224.001L1412.15 221.593L1420.59 218.806L1426.95 212.601Z" fill="#309924"/>
<path d="M1460.22 240.529L1462.03 231.826L1455.66 238.031L1447.22 240.818L1455.78 243.226L1462.41 249.142L1460.22 240.529Z" fill="#309924"/>
<path d="M1497.1 251.051L1495.3 259.754L1497.49 268.367L1490.86 262.451L1482.3 260.043L1490.74 257.256L1497.1 251.051Z" fill="#309924"/>
<path d="M1530.37 278.979L1532.18 270.276L1525.82 276.481L1517.38 279.268L1525.93 281.676L1532.57 287.592L1530.37 278.979Z" fill="#309924"/>
<path d="M1272.22 162.009L1270.42 170.712L1272.61 179.325L1265.97 173.409L1257.42 171.001L1265.86 168.214L1272.22 162.009Z" fill="#309924"/>
<path d="M1305.49 189.937L1307.3 181.234L1300.94 187.439L1292.5 190.226L1301.05 192.634L1307.68 198.55L1305.49 189.937Z" fill="#309924"/>
<path d="M1342.38 200.459L1340.57 209.162L1342.76 217.775L1336.13 211.859L1327.57 209.451L1336.01 206.664L1342.38 200.459Z" fill="#309924"/>
<path d="M1375.65 228.387L1377.45 219.684L1371.09 225.889L1362.65 228.676L1371.21 231.084L1377.84 237L1375.65 228.387Z" fill="#309924"/>
<path d="M1412.53 238.909L1410.72 247.612L1412.92 256.225L1406.28 250.309L1397.73 247.901L1406.17 245.114L1412.53 238.909Z" fill="#309924"/>
<path d="M1445.8 266.837L1447.61 258.134L1441.24 264.339L1432.8 267.126L1441.36 269.534L1447.99 275.45L1445.8 266.837Z" fill="#309924"/>
<path d="M1482.68 277.359L1480.88 286.062L1483.07 294.675L1476.44 288.759L1467.88 286.351L1476.32 283.564L1482.68 277.359Z" fill="#309924"/>
<path d="M1515.95 305.287L1517.76 296.584L1511.4 302.789L1502.96 305.576L1511.51 307.984L1518.15 313.9L1515.95 305.287Z" fill="#309924"/>
<path d="M1257.8 188.317L1256 197.019L1258.19 205.633L1251.56 199.717L1243 197.308L1251.44 194.522L1257.8 188.317Z" fill="#309924"/>
<path d="M1291.07 216.244L1292.88 207.542L1286.52 213.747L1278.08 216.533L1286.63 218.942L1293.27 224.858L1291.07 216.244Z" fill="#309924"/>
<path d="M1327.96 226.767L1326.15 235.469L1328.34 244.083L1321.71 238.167L1313.15 235.758L1321.59 232.972L1327.96 226.767Z" fill="#309924"/>
<path d="M1361.23 254.694L1363.03 245.992L1356.67 252.197L1348.23 254.983L1356.79 257.392L1363.42 263.308L1361.23 254.694Z" fill="#309924"/>
<path d="M1398.11 265.217L1396.31 273.919L1398.5 282.533L1391.86 276.617L1383.31 274.208L1391.75 271.422L1398.11 265.217Z" fill="#309924"/>
<path d="M1431.38 293.144L1433.19 284.442L1426.83 290.647L1418.39 293.433L1426.94 295.842L1433.57 301.758L1431.38 293.144Z" fill="#309924"/>
<path d="M1468.27 303.667L1466.46 312.369L1468.65 320.983L1462.02 315.067L1453.46 312.658L1461.9 309.872L1468.27 303.667Z" fill="#309924"/>
<path d="M1501.54 331.594L1503.34 322.892L1496.98 329.097L1488.54 331.883L1497.1 334.292L1503.73 340.208L1501.54 331.594Z" fill="#309924"/>
<path d="M-96.603 478.174L-94.2121 487.097L-57.1222 450.007L-72.5771 454.148L-96.603 478.174Z" fill="#287E1A" fill-opacity="0.2"/>
<path d="M-30.7512 442.941L-90.1325 502.322L-87.7416 511.245L-15.2964 438.8L-30.7512 442.941Z" fill="#287E1A" fill-opacity="0.2"/>
<path d="M11.0746 431.734L-83.662 526.47L-81.2711 535.393L26.5294 427.592L11.0746 431.734Z" fill="#287E1A" fill-opacity="0.2"/>
<path d="M52.9004 420.526L-77.1915 550.618L-74.8007 559.541L68.3552 416.385L52.9004 420.526Z" fill="#287E1A" fill-opacity="0.2"/>
<path d="M92.5783 411.467L-70.7211 574.766L-68.3302 583.689L94.9691 420.39L92.5783 411.467Z" fill="#287E1A" fill-opacity="0.2"/>
<path d="M99.0487 435.615L-64.2506 598.915L-61.8597 607.837L101.44 444.538L99.0487 435.615Z" fill="#287E1A" fill-opacity="0.2"/>
<path d="M105.519 459.763L-57.7801 623.063L-55.3892 631.986L107.91 468.686L105.519 459.763Z" fill="#287E1A" fill-opacity="0.2"/>
<path d="M111.99 483.911L-51.3096 647.211L-48.9188 656.134L114.381 492.834L111.99 483.911Z" fill="#287E1A" fill-opacity="0.2"/>
<path d="M118.46 508.06L-44.8391 671.359L-42.4483 680.282L120.851 516.982L118.46 508.06Z" fill="#287E1A" fill-opacity="0.2"/>
<path d="M124.931 532.208L-38.3687 695.507L-35.9778 704.43L127.322 541.131L124.931 532.208Z" fill="#287E1A" fill-opacity="0.2"/>
<path d="M131.401 556.356L-31.8982 719.655L-29.5073 728.578L133.792 565.279L131.401 556.356Z" fill="#287E1A" fill-opacity="0.2"/>
<path d="M137.872 580.504L-25.4277 743.803L-23.3543 751.542L-21.3024 750.992L140.262 589.427L137.872 580.504Z" fill="#287E1A" fill-opacity="0.2"/>
<path d="M144.342 604.652L5.06866 743.926L20.5235 739.785L146.733 613.575L144.342 604.652Z" fill="#287E1A" fill-opacity="0.2"/>
<path d="M150.813 628.8L46.8945 732.718L62.3493 728.577L153.203 637.723L150.813 628.8Z" fill="#287E1A" fill-opacity="0.2"/>
<path d="M157.283 652.949L88.7203 721.511L104.175 717.37L159.674 661.871L157.283 652.949Z" fill="#287E1A" fill-opacity="0.2"/>
<path d="M163.754 677.097L130.546 710.304L146.001 706.163L166.144 686.02L163.754 677.097Z" fill="#287E1A" fill-opacity="0.2"/>
<path d="M1159.55 365.696L1162.03 365.761L1155.32 353.409L1155.21 357.695L1159.55 365.696Z" fill="#287E1A" fill-opacity="0.05"/>
<path d="M1155.51 346.095L1166.25 365.871L1168.72 365.935L1155.62 341.809L1155.51 346.095Z" fill="#287E1A" fill-opacity="0.05"/>
<path d="M1155.81 334.495L1172.95 366.045L1175.42 366.109L1155.92 330.209L1155.81 334.495Z" fill="#287E1A" fill-opacity="0.05"/>
<path d="M1156.11 322.895L1179.64 366.219L1182.12 366.284L1156.22 318.609L1156.11 322.895Z" fill="#287E1A" fill-opacity="0.05"/>
<path d="M1156.8 312.011L1186.34 366.393L1188.81 366.458L1159.28 312.075L1156.8 312.011Z" fill="#287E1A" fill-opacity="0.05"/>
<path d="M1163.5 312.185L1193.04 366.568L1195.51 366.632L1165.97 312.249L1163.5 312.185Z" fill="#287E1A" fill-opacity="0.05"/>
<path d="M1170.2 312.359L1199.73 366.742L1202.21 366.806L1172.67 312.424L1170.2 312.359Z" fill="#287E1A" fill-opacity="0.05"/>
<path d="M1176.89 312.533L1206.43 366.916L1208.91 366.981L1179.37 312.598L1176.89 312.533Z" fill="#287E1A" fill-opacity="0.05"/>
<path d="M1183.59 312.708L1213.13 367.091L1215.6 367.155L1186.06 312.772L1183.59 312.708Z" fill="#287E1A" fill-opacity="0.05"/>
<path d="M1190.29 312.882L1219.83 367.265L1222.3 367.329L1192.76 312.946L1190.29 312.882Z" fill="#287E1A" fill-opacity="0.05"/>
<path d="M1196.98 313.056L1226.52 367.439L1229 367.504L1199.46 313.121L1196.98 313.056Z" fill="#287E1A" fill-opacity="0.05"/>
<path d="M1203.68 313.231L1233.22 367.613L1235.37 367.669L1235.38 367.1L1206.16 313.295L1203.68 313.231Z" fill="#287E1A" fill-opacity="0.05"/>
<path d="M1210.38 313.405L1235.57 359.786L1235.68 355.5L1212.85 313.469L1210.38 313.405Z" fill="#287E1A" fill-opacity="0.05"/>
<path d="M1217.08 313.579L1235.87 348.187L1235.99 343.9L1219.55 313.644L1217.08 313.579Z" fill="#287E1A" fill-opacity="0.05"/>
<path d="M1223.77 313.753L1236.18 336.587L1236.29 332.3L1226.25 313.818L1223.77 313.753Z" fill="#287E1A" fill-opacity="0.05"/>
<path d="M1230.47 313.928L1236.48 324.987L1236.59 320.7L1232.95 313.992L1230.47 313.928Z" fill="#287E1A" fill-opacity="0.05"/>
<path d="M200 114L215 105.5L200 97L200 114Z" fill="#287E1A" fill-opacity="0.15"/>
<path d="M235 105.5L220 114V97L235 105.5Z" fill="#287E1A" fill-opacity="0.15"/>
<path d="M255 105.5L240 114V97L255 105.5Z" fill="#287E1A" fill-opacity="0.15"/>
<path fill-rule="evenodd" clip-rule="evenodd" d="M1283 617L1254 674H1312L1283 617ZM1283 627.133L1261.73 668.933H1304.27L1283 627.133Z" fill="#287E1A" fill-opacity="0.5"/>
<path fill-rule="evenodd" clip-rule="evenodd" d="M1283 693L1254 750H1312L1283 693ZM1283 703.133L1261.73 744.933H1304.27L1283 703.133Z" fill="#287E1A" fill-opacity="0.5"/>
<path fill-rule="evenodd" clip-rule="evenodd" d="M1283 769L1312 826H1254L1283 769ZM1261.73 820.933L1283 779.133L1304.27 820.933H1261.73Z" fill="#287E1A" fill-opacity="0.5"/>
<path d="M136.788 360.682C132.487 348.339 145.273 332.662 165.347 325.666C185.42 318.671 205.18 323.006 209.482 335.349" stroke="#8CBB33" stroke-opacity="0.05" stroke-width="20" stroke-linecap="round"/>
<path d="M128.21 225.902C165.768 290.072 206.109 348.428 211.902 418.604C217.696 488.781 189.699 570.001 146.89 620.607C104.711 671.305 46.9624 692.166 -9.64622 709.64C-66.2549 727.114 -122.353 741.107 -175.62 722.629C-228.256 704.244 -278.564 652.426 -284.995 586.6C-291.554 521.644 -255.37 441.625 -228.139 365.625C-200.406 290.588 -181.499 218.701 -141.704 162.321C-101.781 105.07 -41.7268 64.1037 6.50904 77.3994C54.6172 91.5651 90.6521 161.733 128.21 225.902Z" fill="#287E1A" fill-opacity="0.2"/>
</svg>
