<svg width="999" height="953" viewBox="0 0 999 953" fill="none" xmlns="http://www.w3.org/2000/svg">
<path d="M1060.78 865.062L984.148 908.562L1060.78 952.062L1060.78 865.062Z" fill="#287E1A" fill-opacity="0.15"/>
<path d="M881.966 908.562L958.602 865.062L958.602 952.062L881.966 908.562Z" fill="#287E1A" fill-opacity="0.15"/>
<path d="M779.784 908.562L856.421 865.062L856.421 952.062L779.784 908.562Z" fill="#287E1A" fill-opacity="0.15"/>
<path d="M5.20974 44.2457C6.33963 44.1875 7.21039 43.2294 7.15582 42.1051L7.15576 42.1039L7.15537 42.0932C7.15484 42.0788 7.15399 42.0532 7.15317 42.0171C7.15152 41.945 7.14994 41.8313 7.15106 41.6814C7.15331 41.3811 7.16634 40.9385 7.21061 40.3962C7.29979 39.3038 7.51252 37.8475 7.99623 36.3497C8.96286 33.3564 10.8932 30.4683 14.8975 29.5758C19.0654 28.6469 22.8378 30.3961 27.3925 32.6049L27.6353 32.7227C30.0172 33.8786 32.6351 35.149 35.4769 35.82C37.7077 36.3467 40.0764 36.5041 42.5773 35.9467C45.0671 35.3917 47.1375 34.251 48.928 32.8355C51.227 31.018 53.0645 28.7475 54.7358 26.6824L54.9056 26.4726C58.0912 22.5386 60.7636 19.353 64.9316 18.424C69.0995 17.495 72.8719 19.2442 77.4266 21.453L77.6694 21.5708C80.0821 22.7417 82.737 24.0301 85.6215 24.6939C87.8199 25.1999 90.1517 25.343 92.6114 24.7948C95.06 24.249 97.103 23.1367 98.873 21.7537C101.214 19.9247 103.077 17.6223 104.77 15.5305L104.94 15.3207C108.125 11.3868 110.798 8.2011 114.966 7.27213C119.001 6.37277 122.182 8.15889 124.53 10.4566C125.699 11.6 126.601 12.819 127.213 13.7603C127.517 14.228 127.744 14.6196 127.893 14.8882C127.967 15.0223 128.021 15.1252 128.055 15.1909C128.072 15.2238 128.083 15.2473 128.09 15.2607L128.095 15.2699L128.096 15.2719L128.096 15.2735C128.587 16.2861 129.81 16.7109 130.829 16.2222C131.85 15.7329 132.281 14.5133 131.792 13.4981L129.943 14.384C131.792 13.4981 131.792 13.4974 131.791 13.4966L131.79 13.4948L131.788 13.4904L131.782 13.4785L131.765 13.4425C131.75 13.4132 131.73 13.3734 131.704 13.3239C131.653 13.2248 131.581 13.0866 131.486 12.9154C131.297 12.5734 131.02 12.0977 130.657 11.5385C129.934 10.426 128.849 8.95287 127.407 7.54299C124.536 4.73398 120.006 1.96859 114.078 3.28989C108.391 4.55737 104.893 8.88063 101.92 12.5542L101.75 12.764C98.5642 16.6979 95.8917 19.8836 91.7238 20.8126C87.5558 21.7415 83.7835 19.9923 79.2288 17.7835L78.986 17.6657C74.7343 15.6025 69.7307 13.1743 64.044 14.4417C58.3573 15.7092 54.8585 20.0325 51.8854 23.706L51.7156 23.9158C48.5301 27.8498 45.8576 31.0354 41.6897 31.9644C37.5217 32.8934 33.7494 31.1442 29.1947 28.9354L28.9519 28.8176C24.7002 26.7543 19.6966 24.3261 14.0099 25.5936C8.05085 26.9218 5.3085 31.3453 4.09322 35.1085C3.48598 36.9889 3.23046 38.7719 3.12413 40.0745C3.07064 40.7296 3.05411 41.2733 3.05122 41.6599C3.04977 41.8535 3.05174 42.0084 3.05428 42.119C3.05554 42.1744 3.05695 42.2187 3.05815 42.2513L3.05975 42.2914L3.06035 42.3047L3.06058 42.3096L3.06068 42.3116C3.06072 42.3125 3.06076 42.3134 5.10823 42.2079L3.06076 42.3134C3.11683 43.4388 4.07895 44.3039 5.20974 44.2457Z" fill="#287E1A" fill-opacity="0.05"/>
<path d="M10.9281 59.0296C10.9826 60.1539 10.1119 61.112 8.98197 61.1702C7.85118 61.2285 6.88906 60.3634 6.83299 59.2379L8.88046 59.1325C6.83299 59.2379 6.83295 59.2371 6.83291 59.2362L6.83281 59.2342L6.83258 59.2292L6.83198 59.2159L6.83038 59.1758C6.82918 59.1432 6.82777 59.0989 6.82651 59.0436C6.82397 58.9329 6.822 58.778 6.82345 58.5845C6.82634 58.1979 6.84288 57.6542 6.89636 56.999C7.00269 55.6965 7.25821 53.9134 7.86545 52.033C9.08073 48.2698 11.8231 43.8463 17.7821 42.5181C23.4688 41.2507 28.4724 43.6789 32.7241 45.7421L32.9669 45.8599C37.5216 48.0687 41.294 49.8179 45.4619 48.889C49.6298 47.96 52.3023 44.7743 55.4879 40.8404L55.6577 40.6306C58.6307 36.957 62.1295 32.6338 67.8162 31.3663C73.5029 30.0988 78.5065 32.527 82.7582 34.5903L83.001 34.7081C87.5557 36.9169 91.3281 38.6661 95.496 37.7371C99.6639 36.8081 102.336 33.6225 105.522 29.6885L105.692 29.4787C108.665 25.8052 112.164 21.4819 117.85 20.2144C123.778 18.8931 128.308 21.6585 131.18 24.4675C132.621 25.8774 133.706 27.3506 134.429 28.463C134.792 29.0222 135.069 29.498 135.258 29.84C135.353 30.0111 135.426 30.1494 135.477 30.2484C135.502 30.298 135.522 30.3378 135.537 30.3671L135.555 30.403L135.56 30.4149L135.563 30.4193L135.563 30.4211C135.564 30.4219 135.564 30.4227 133.716 31.3086L135.564 30.4227C136.054 31.4378 135.623 32.6574 134.602 33.1467C133.582 33.6354 132.359 33.2106 131.869 32.198L131.868 32.1965L131.867 32.1945L131.862 32.1853C131.856 32.1718 131.844 32.1483 131.827 32.1155C131.793 32.0497 131.739 31.9469 131.665 31.8127C131.516 31.5441 131.289 31.1526 130.985 30.6849C130.373 29.7436 129.471 28.5246 128.302 27.3811C125.954 25.0834 122.773 23.2973 118.738 24.1967C114.57 25.1257 111.897 28.3113 108.712 32.2453L108.542 32.4551C106.849 34.5468 104.986 36.8493 102.645 38.6782C100.875 40.0613 98.8322 41.1736 96.3836 41.7194C93.924 42.2676 91.5922 42.1244 89.3937 41.6185C86.5092 40.9546 83.8543 39.6662 81.4416 38.4954L81.1988 38.3776C76.6441 36.1688 72.8717 34.4196 68.7038 35.3485C64.5359 36.2775 61.8634 39.4632 58.6778 43.3972L58.508 43.6069C56.8367 45.6721 54.9992 47.9425 52.7002 49.76C50.9097 51.1755 48.8393 52.3163 46.3495 52.8712C43.8486 53.4286 41.4799 53.2713 39.2491 52.7446C36.4073 52.0736 33.7894 50.8031 31.4075 49.6472L31.1647 49.5294C26.61 47.3207 22.8376 45.5714 18.6697 46.5004C14.6655 47.3929 12.7351 50.281 11.7685 53.2742C11.2848 54.772 11.072 56.2284 10.9828 57.3207C10.9386 57.863 10.9255 58.3056 10.9233 58.6059C10.9222 58.7558 10.9237 58.8696 10.9254 58.9417C10.9262 58.9777 10.9271 59.0033 10.9276 59.0178L10.928 59.0285L10.9281 59.0296Z" fill="#287E1A" fill-opacity="0.05"/>
<path d="M14.7003 75.9535C14.7552 77.0781 13.8843 78.0365 12.7542 78.0948C11.6234 78.153 10.6613 77.2879 10.6052 76.1625L12.6527 76.057C10.6052 76.1625 10.6052 76.1616 10.6051 76.1607L10.605 76.1587L10.6048 76.1538L10.6042 76.1405L10.6026 76.1004C10.6014 76.0678 10.6 76.0235 10.5987 75.9681C10.5962 75.8575 10.5942 75.7026 10.5957 75.509C10.5986 75.1224 10.6151 74.5787 10.6686 73.9236C10.7749 72.6211 11.0304 70.838 11.6377 68.9576C12.853 65.1944 15.5953 60.7709 21.5543 59.4427C27.241 58.1752 32.2446 60.6034 36.4963 62.6667L36.7391 62.7845C41.2938 64.9933 45.0662 66.7425 49.2341 65.8135C53.4021 64.8846 56.0745 61.6989 59.2601 57.7649L59.4299 57.5551C62.4029 53.8816 65.9017 49.5583 71.5884 48.2908C77.2751 47.0234 82.2788 49.4516 86.5304 51.5148L86.7732 51.6326C91.3279 53.8414 95.1003 55.5906 99.2682 54.6617C103.436 53.7327 106.109 50.547 109.294 46.6131L109.464 46.4033C112.437 42.7297 115.936 38.4065 121.623 37.139C127.551 35.8177 132.081 38.5831 134.952 41.3921C136.393 42.802 137.478 44.2751 138.201 45.3876C138.565 45.9468 138.842 46.4226 139.03 46.7645C139.125 46.9357 139.198 47.0739 139.249 47.173C139.274 47.2225 139.294 47.2623 139.309 47.2916L139.327 47.3276L139.333 47.3395L139.335 47.3439L139.336 47.3457C139.336 47.3465 139.336 47.3472 137.488 48.2331L139.336 47.3472C139.826 48.3624 139.395 49.582 138.374 50.0713C137.354 50.56 136.131 50.1352 135.641 49.1226L135.64 49.121L135.639 49.119L135.635 49.1098C135.632 49.1038 135.627 49.0956 135.622 49.0855C135.616 49.0732 135.608 49.058 135.599 49.04C135.565 48.9743 135.511 48.8714 135.437 48.7373C135.289 48.4687 135.061 48.0771 134.757 47.6094C134.146 46.6681 133.243 45.4491 132.075 44.3057C129.726 42.008 126.545 40.2219 122.51 41.1212C118.342 42.0502 115.67 45.2359 112.484 49.1698L112.314 49.3796C110.622 51.4714 108.758 53.7738 106.417 55.6028C104.647 56.9858 102.604 58.0981 100.156 58.6439C97.6962 59.1921 95.3644 59.049 93.1659 58.543C90.2815 57.8792 87.6266 56.5908 85.2138 55.4199L84.971 55.3021C80.4163 53.0934 76.6439 51.3441 72.476 52.2731C68.3081 53.2021 65.6356 56.3878 62.45 60.3217L62.2802 60.5315C60.6089 62.5966 58.7714 64.8671 56.4725 66.6846C54.682 68.1001 52.6115 69.2408 50.1217 69.7958C47.6209 70.3532 45.2521 70.1958 43.0213 69.6691C40.1795 68.9981 37.5617 67.7277 35.1798 66.5718L34.9369 66.454C30.3822 64.2452 26.6098 62.496 22.4419 63.425C18.4377 64.3174 16.5073 67.2055 15.5407 70.1988C15.057 71.6966 14.8442 73.1529 14.7551 74.2453C14.7108 74.7876 14.6978 75.2302 14.6955 75.5305C14.6944 75.6804 14.696 75.7941 14.6976 75.8662C14.6985 75.9023 14.6993 75.9279 14.6998 75.9423L14.7003 75.9535Z" fill="#287E1A" fill-opacity="0.05"/>
</svg>
