<svg width="1440" height="733" viewBox="0 0 1440 733" fill="none" xmlns="http://www.w3.org/2000/svg">
<path d="M0 46.4048H1443V732.405H0V46.4048Z" fill="#E3E8D6"/>
<path fill-rule="evenodd" clip-rule="evenodd" d="M1384.17 255.519C1386.06 255.288 1388.08 255.37 1389.84 256.115C1393.57 257.702 1394.64 262.116 1394.59 265.704C1394.53 269.566 1393.71 273.785 1396.65 276.896C1398 278.327 1399.68 279.422 1401 280.879C1402.42 282.436 1403.53 284.217 1404.35 286.13C1405.86 289.643 1406.6 293.775 1405.22 297.461C1404.01 300.706 1400.95 303.635 1401.61 307.325C1402.3 311.175 1406.18 314.118 1408.6 316.985C1411.35 320.229 1413.88 324.377 1414.29 328.632C1414.69 332.71 1412.92 336.834 1410.19 339.917C1404.75 346.076 1396.57 349.096 1388.32 349.077C1384.82 349.069 1380.85 348.911 1377.83 347.028C1376.89 346.447 1376.4 345.794 1375.85 344.887C1375.35 344.073 1374.69 343.544 1373.93 342.968C1372.26 341.704 1371.05 339.999 1370.28 338.092C1367.28 330.682 1369.68 321.515 1373.87 314.935C1374.86 313.376 1375.67 311.876 1375.19 310.017C1374.69 308.078 1373.45 306.328 1372.35 304.661C1371.27 303.013 1370.04 301.441 1369.19 299.659C1368.31 297.793 1368.06 295.838 1368.22 293.796C1368.51 289.959 1370.17 286.418 1372.51 283.332C1374.77 280.36 1377.42 277.516 1377.43 273.621C1377.43 269.493 1374.68 265.821 1375.85 261.625C1376.34 259.887 1377.32 258.104 1378.89 257.062C1380.4 256.063 1382.4 255.736 1384.17 255.519Z" fill="#309924"/>
<path fill-rule="evenodd" clip-rule="evenodd" d="M1382.94 262.118C1382.98 261.563 1383.63 261.231 1384.15 261.376C1384.83 261.566 1384.82 262.203 1384.8 262.77C1384.75 264.514 1385 266.208 1385.42 267.9C1386.29 271.417 1387.9 274.658 1389.17 278.037C1390.45 281.412 1391.05 284.898 1390.3 288.47C1389.59 291.838 1388.49 295.119 1387.77 298.491C1387.13 301.463 1386.45 304.598 1387.42 307.562C1388.35 310.416 1390.41 312.74 1391.9 315.319C1394.97 320.658 1396.33 326.58 1396.51 332.675C1396.59 335.505 1396.52 338.361 1395.86 341.137C1395.48 342.735 1394.98 344.895 1393.61 345.999C1392.97 346.507 1391.89 346.683 1391.36 345.93C1390.86 345.223 1391.3 344.129 1391.46 343.375C1392.15 340.114 1392.28 336.782 1392.12 333.471C1391.96 330.263 1391.58 327.061 1390.57 323.998C1389.64 321.155 1388.21 318.602 1386.54 316.115C1384.83 313.581 1383.06 311.042 1382.35 308.039C1381.63 304.989 1382.22 301.886 1382.99 298.895C1383.82 295.73 1384.9 292.657 1386.01 289.579C1387.1 286.579 1387.48 283.741 1386.88 280.601C1385.7 274.399 1382.53 268.577 1382.94 262.118Z" fill="#8CBB33"/>
<path fill-rule="evenodd" clip-rule="evenodd" d="M1434.07 263.045C1436.41 263.755 1438.73 264.901 1440.4 266.697C1443.94 270.517 1442.85 276.29 1440.9 280.507C1438.79 285.046 1435.6 289.608 1437.4 294.815C1438.22 297.209 1439.61 299.377 1440.4 301.79C1441.24 304.368 1441.6 307.052 1441.55 309.743C1441.47 314.684 1440.15 319.956 1436.58 323.596C1433.44 326.801 1428.31 328.673 1427.13 333.381C1425.91 338.292 1428.9 343.792 1430.23 348.445C1431.74 353.711 1432.51 359.93 1430.75 365.179C1429.06 370.209 1424.8 374.163 1419.97 376.391C1410.33 380.844 1399.14 380.159 1389.48 375.845C1385.37 374.013 1380.81 371.763 1378.25 367.965C1377.47 366.791 1377.23 365.763 1377.06 364.401C1376.91 363.18 1376.42 362.211 1375.83 361.135C1374.53 358.769 1374.02 356.125 1374.12 353.468C1374.53 343.147 1382.18 333.551 1390.57 327.949C1392.56 326.622 1394.31 325.271 1394.72 322.822C1395.16 320.267 1394.63 317.554 1394.23 315.013C1393.83 312.502 1393.22 310 1393.17 307.454C1393.11 304.786 1393.86 302.345 1395.12 300.01C1397.49 295.626 1401.31 292.3 1405.69 289.87C1409.91 287.53 1414.52 285.547 1416.59 280.944C1418.78 276.066 1417.48 270.287 1421.08 265.936C1422.57 264.134 1424.66 262.534 1427.05 262.122C1429.36 261.726 1431.87 262.377 1434.07 263.045Z" fill="#309924"/>
<path fill-rule="evenodd" clip-rule="evenodd" d="M1429.29 271.112C1429.62 270.474 1430.57 270.425 1431.1 270.868C1431.79 271.45 1431.44 272.197 1431.13 272.86C1430.15 274.896 1429.56 277.035 1429.16 279.258C1428.34 283.88 1428.52 288.561 1428.24 293.231C1427.97 297.896 1426.84 302.338 1424.09 306.176C1421.51 309.795 1418.49 313.1 1415.88 316.716C1413.58 319.902 1411.15 323.26 1410.73 327.278C1410.33 331.146 1411.52 334.977 1411.9 338.809C1412.69 346.74 1411.19 354.467 1408.21 361.78C1406.82 365.176 1405.24 368.519 1403.02 371.462C1401.74 373.156 1400.01 375.448 1397.83 376.037C1396.83 376.309 1395.47 375.951 1395.25 374.78C1395.03 373.681 1396.12 372.615 1396.7 371.806C1399.21 368.304 1401.11 364.429 1402.66 360.422C1404.15 356.54 1405.38 352.55 1405.81 348.393C1406.2 344.536 1405.87 340.766 1405.22 336.943C1404.55 333.048 1403.8 329.11 1404.55 325.184C1405.31 321.197 1407.62 317.828 1410.09 314.693C1412.71 311.377 1415.58 308.303 1418.5 305.242C1421.34 302.259 1423.28 299.1 1424.22 295.067C1426.08 287.101 1425.43 278.545 1429.29 271.112Z" fill="#8CBB33"/>
<path fill-rule="evenodd" clip-rule="evenodd" d="M1361.78 292.346C1365.67 292.346 1369.08 294.407 1371.44 297.332C1374.2 300.755 1374.75 304.936 1375.87 309.017C1376.43 311.048 1377.39 313.063 1379.07 314.443C1380.6 315.698 1382.53 315.949 1384.36 316.562C1388.02 317.787 1390.97 320.738 1392.13 324.339C1393.55 328.732 1392.05 333.162 1392.31 337.613C1392.55 341.701 1396.58 344.252 1399.82 346.211C1403.02 348.144 1405.9 349.953 1406.86 353.718C1407.88 357.71 1408.22 362.167 1406.81 366.111C1404.45 372.679 1397.56 375.571 1390.9 376.019C1384.86 376.426 1377.26 375.787 1372.72 371.4C1370 368.774 1369.02 365.102 1369.14 361.449C1369.22 359.177 1369.67 356.927 1370.25 354.731C1370.66 353.175 1371.22 351.626 1371.38 350.018C1371.8 345.741 1367.84 344.919 1364.48 343.745C1360.2 342.252 1357.21 339.433 1355.13 335.505C1353.19 331.848 1352.37 327.742 1353.54 323.716C1354.13 321.66 1355.21 319.794 1356.67 318.208C1357.31 317.51 1358.22 316.927 1358.8 316.193C1359.34 315.508 1359.22 314.62 1359.03 313.818C1358.17 310.111 1355.48 307.042 1354.52 303.342C1353.65 300.002 1354.17 295.845 1357.22 293.69C1358.54 292.759 1360.17 292.356 1361.78 292.346Z" fill="#8CBB33"/>
<path fill-rule="evenodd" clip-rule="evenodd" d="M1367.08 302.004C1371.2 306.394 1372.32 312.35 1372.65 318.123C1372.83 321.36 1372.64 324.775 1373.59 327.914C1374.4 330.602 1376.31 332.656 1378.28 334.598C1382.24 338.506 1386.65 342.48 1387.81 348.136C1388.49 351.456 1388.03 354.884 1388.97 358.167C1389.82 361.151 1391.32 364.083 1393.15 366.603C1394.62 368.632 1396.54 370.186 1398.15 372.078C1398.64 372.655 1399.34 373.505 1399.14 374.32C1398.9 375.275 1397.69 375.577 1396.83 375.427C1394.81 375.078 1393.12 373.157 1391.8 371.76C1389.88 369.718 1388.25 367.522 1386.92 365.059C1385.44 362.323 1384.26 359.42 1383.75 356.35C1383.22 353.166 1383.49 349.847 1382.28 346.791C1380.26 341.649 1375.35 338.615 1371.81 334.607C1367.39 329.613 1368.05 323.397 1368.5 317.254C1368.75 313.878 1368.99 310.066 1367.29 306.983C1366.64 305.807 1365.18 304.71 1364.9 303.372C1364.65 302.147 1366.05 300.909 1367.08 302.004Z" fill="#AFB9C5"/>
<path fill-rule="evenodd" clip-rule="evenodd" d="M1371.47 374.144C1371.47 399.25 1375.57 412.405 1397.2 412.405C1418.83 412.405 1422.92 399.25 1422.92 374.144H1371.47Z" fill="#BAD685"/>
<path fill-rule="evenodd" clip-rule="evenodd" d="M1208.2 288.547C1203.28 286.109 1196.73 288.936 1199.47 295.38C1202.39 302.281 1213.22 302.366 1219.33 302.229C1218.72 302.197 1216.75 295.869 1216.08 294.913C1214.09 292.092 1211.22 290.048 1208.2 288.547ZM1264.84 412.264C1266.08 413.324 1264.94 412.363 1264.84 412.264V412.264ZM1203.47 319.757C1200.59 321.956 1200.45 325.839 1202.8 328.467C1205.6 331.595 1210.71 331.481 1214.52 331.177C1216.25 331.039 1225.46 330.301 1223.28 328.793C1223.44 328.857 1223.79 329.011 1224.17 329.22C1224.37 329.958 1224.58 330.694 1224.81 331.426C1224.75 331.458 1224.71 331.492 1224.65 331.523C1224.71 331.496 1224.75 331.466 1224.81 331.438C1227.02 338.757 1230.18 345.726 1234.31 352.246C1232.76 351.638 1231.16 351.177 1229.54 350.973C1224.73 350.365 1214.62 354.099 1220 360.498C1225.15 366.632 1233.18 360.051 1239.03 359.144C1244.7 367.063 1250.96 374.652 1257.51 381.988C1257.11 382.114 1256.76 382.376 1256.56 382.784C1253.93 381.45 1251.19 379.541 1248.75 379.024C1245.24 378.279 1238.04 377.828 1235.38 380.972C1232.12 384.838 1235.62 387.978 1239.48 388.719C1245.07 389.795 1252.39 387.062 1257.77 385.215C1258.39 385.324 1259.06 385.144 1259.46 384.651C1259.58 384.612 1259.7 384.574 1259.82 384.537C1266.46 391.837 1273.35 398.896 1280.2 405.8C1280.13 405.796 1280.06 405.792 1279.98 405.788C1278.19 404.615 1276.28 403.654 1274.2 403.15C1269.39 401.978 1263.74 401.973 1259.83 405.451C1255.95 408.914 1254.57 414.971 1258.59 418.859C1266.64 426.644 1278.49 408.895 1282.55 408.154C1289.52 415.097 1296.88 421.583 1304.36 427.939C1303.51 427.68 1302.63 427.49 1301.73 427.405C1294.4 426.703 1277.19 435.693 1286.19 444.538C1294.03 452.245 1303.11 437.41 1309.43 432.222C1316.47 438.146 1323.56 444.029 1330.45 450.142C1326.69 449.144 1323.06 448.997 1319.03 450.214C1314.87 451.475 1308.15 454.62 1310.78 460.245C1313.46 465.965 1321.53 463.362 1325.74 461.546C1328.03 460.556 1332.63 457.213 1336.66 455.805C1347.65 466.179 1357.17 477.605 1364.37 491.066C1368.87 499.47 1372.29 508.449 1374.69 517.678C1376.22 523.568 1379.25 533.461 1378.64 541.128C1381.52 525.782 1376.31 507.351 1370.69 493.634C1365.53 481.021 1357.8 469.948 1348.75 459.981C1351.02 453.148 1370.14 443.293 1358.71 436.945C1352.64 433.588 1346.42 439.158 1345.09 445.057C1344.18 449.11 1345.57 454.203 1347.05 458.137C1344.2 455.099 1341.24 452.159 1338.19 449.316C1333.97 445.386 1329.65 441.571 1325.3 437.804C1332.48 431.057 1339.27 411.769 1329.64 408.615C1315.43 403.97 1322.27 430.279 1323.26 435.21C1323.55 435.227 1323.77 435.142 1323.93 434.959C1323.85 435.411 1323.75 435.894 1323.64 436.381C1315.3 429.208 1306.83 422.177 1298.65 414.833C1299.39 414.288 1300.56 412.205 1301.48 411.096C1303.56 408.597 1305.55 405.986 1307 403.062C1309.3 398.441 1311.52 391.071 1305.43 388.353C1298.8 385.392 1295.66 393.728 1295.61 398.701C1295.58 402.14 1296.52 405.407 1297 408.778C1297.16 409.829 1296.57 414.568 1298 412.53C1297.93 413.281 1297.92 413.826 1297.96 414.212C1296.49 412.887 1295.03 411.547 1293.58 410.198C1293.65 410.028 1293.7 409.842 1293.71 409.627C1293.79 408.144 1292.29 407.573 1291.25 408.007C1289.34 406.19 1287.44 404.35 1285.58 402.473C1281.64 398.498 1277.64 394.409 1273.67 390.232C1274.53 389.492 1274.19 388.467 1275 387.681C1275.8 386.897 1277.39 386.464 1278.33 385.736C1280.71 383.903 1282.68 381.233 1284.11 378.605C1286.47 374.263 1289.51 365.155 1282.63 363.085C1275.54 360.949 1271.94 369.717 1271.48 375.198C1271.39 376.26 1272.19 385.829 1272.79 389.304C1265.45 381.542 1258.22 373.49 1251.67 365.297C1253.66 365.278 1259.29 361.211 1260.42 360.101C1263.2 357.394 1267.61 351.412 1262.75 348.247C1258.42 345.439 1253.08 349.506 1251.23 353.458C1250.93 354.109 1249.86 360.166 1249.77 362.883C1247.06 359.409 1244.48 355.914 1242.07 352.408C1240.47 350.078 1238.97 347.685 1237.57 345.242C1237.9 345.05 1238.22 344.717 1238.52 344.302C1245.74 343.077 1254.94 331.815 1246.46 327.896C1242.43 326.033 1238.05 329.879 1236.07 333.028C1235.67 333.672 1235.01 336.911 1234.48 339.466C1230.44 331.371 1227.36 322.802 1225.01 314.016C1225.64 313.86 1226.17 313.38 1226.24 312.554C1229.75 310.556 1232.52 308.893 1234.96 305.051C1236.48 302.665 1239.22 297.213 1234.75 295.888C1228.94 294.165 1225.29 303.041 1224.82 307.413C1224.76 307.921 1224.76 309.397 1224.78 310.749C1224.58 310.722 1224.38 310.725 1224.18 310.76C1222.84 305.32 1221.78 299.809 1220.93 294.289C1224.1 293.268 1224.65 276.61 1222.54 274.238C1217.82 268.927 1214.49 276.599 1214.74 280.654C1215.04 285.435 1217.2 289.784 1219.78 293.644C1220.06 294.053 1219.98 294.033 1220.05 293.464C1220.09 293.745 1220.19 293.953 1220.32 294.103C1220.19 296.62 1219.93 299.196 1220.06 301.423C1220.41 307.801 1221.16 314.215 1222.24 320.511C1222.5 322.042 1222.8 323.56 1223.14 325.066C1220.59 322.894 1217.15 320.964 1215.8 320.361C1212.31 318.796 1206.93 317.107 1203.47 319.757ZM1379.05 541.149C1378.89 543.373 1378.49 545.409 1377.74 547.089C1378.3 545.177 1378.73 543.19 1379.05 541.149Z" fill="#F2F2F2"/>
<g opacity="0.7">
<path fill-rule="evenodd" clip-rule="evenodd" d="M1303.82 439.175C1317.47 438.466 1334.36 446.435 1335.82 461.275C1336.87 472.058 1336.55 482.81 1338.18 493.576C1339.49 502.181 1342.26 510.441 1346.04 518.279C1349.67 525.816 1357.2 532.232 1359.16 540.284C1360.41 545.414 1359.71 552.632 1357.99 557.65C1355.9 563.752 1357.01 563.269 1361.18 568.389C1369.36 578.423 1376.72 588.711 1381.93 600.694C1389.43 617.954 1394.35 638.13 1391.56 657.023C1391.21 659.422 1390.79 668.032 1387.49 668.634C1383.8 669.307 1385.52 664.382 1385.72 662.792C1386.97 652.643 1388.09 643.771 1386.58 633.463C1380.73 593.693 1352.2 567.49 1333.62 533.735C1332.6 531.995 1330.45 527.85 1328.95 525.115C1326.58 520.798 1324.2 512.583 1321 509.382C1314.96 503.351 1320.51 515.475 1321.69 517.79C1323.17 520.718 1324.81 523.829 1326.33 526.395C1333.3 538.286 1341.08 551.267 1348.28 563.525C1317.15 570.619 1295.22 533.19 1286.87 508.583C1279.98 488.309 1271.75 440.909 1303.82 439.175Z" fill="#309924"/>
<path fill-rule="evenodd" clip-rule="evenodd" d="M1486.81 401.526C1463.98 403.337 1449.33 418.396 1442.51 439.46C1438.83 450.812 1438.41 462.473 1436.37 474.138C1433.3 491.689 1426.69 504.989 1413.76 517.493C1409.76 521.366 1406.81 525.342 1404.72 529.596C1400.55 533.843 1396.93 538.649 1394.27 544.525C1390.87 552.029 1389.91 561.033 1393.83 568.514C1394.89 570.525 1397.52 574.563 1400.25 576.397C1390.03 598.157 1384.42 621.989 1385.05 645.79C1385.43 660.158 1386.13 674.532 1386.95 688.882C1387.17 692.735 1388.43 699.097 1390.31 692.635C1392.04 686.725 1389.87 677.446 1389.67 671.271C1388.7 641.19 1387.87 613.84 1400.25 585.736C1401.55 582.79 1402.92 579.868 1404.36 576.97C1404.44 576.921 1404.52 576.862 1404.6 576.805C1404.65 576.847 1404.7 576.892 1404.76 576.933C1404.85 576.77 1404.97 576.576 1405.12 576.358C1405.53 575.934 1405.89 575.398 1406.23 574.799C1407.33 573.277 1408.57 571.489 1408.58 570.51C1408.58 570.502 1408.58 570.491 1408.58 570.483C1416.24 557.97 1425.02 546.146 1433.99 534.554C1433.92 534.638 1443.72 521.302 1442.2 528.677C1441.47 532.231 1434.27 539 1431.36 542.765C1424.92 551.14 1417.36 561.752 1411.08 572.014C1410.24 572.5 1409.04 574.885 1408.18 576.661C1407.7 577.561 1407.26 578.469 1406.82 579.259C1429.08 586.613 1446.39 571.801 1458.2 554.572C1458.21 554.552 1458.22 554.531 1458.24 554.511C1461.83 549.75 1465.51 545.023 1470.11 541.26C1477.78 534.981 1485.99 533.873 1495.04 530.783C1519.7 522.356 1530.19 490.392 1533.52 466.674C1537.27 439.917 1518.89 398.888 1486.81 401.526Z" fill="#BAD685"/>
<path fill-rule="evenodd" clip-rule="evenodd" d="M1441.72 326.595C1418.3 350.974 1406.98 384.788 1398.02 416.576C1388.01 452.081 1381.4 488.133 1381.15 525.047C1380.98 549.299 1380.32 573.703 1381.74 597.928C1382.24 606.531 1383.1 615.149 1384.46 623.66C1384.57 624.36 1387.63 643.363 1390.54 638.934C1392.2 636.416 1387.42 619.222 1387.06 616.358C1385.02 600.227 1384.55 583.978 1384.65 567.73C1384.81 540.98 1384.02 514.366 1386.73 487.714C1387.14 483.735 1387.46 479.555 1388.4 475.663C1389.41 471.524 1388.13 473.331 1391.4 471.692C1394.57 470.099 1398.5 470.327 1401.79 468.329C1414.87 460.402 1421.55 440.04 1426.76 426.68C1432.71 411.402 1436.33 395.111 1439.22 379.033C1441.34 367.22 1442.86 355.48 1443.72 343.515C1443.99 339.744 1444 335.801 1444.74 332.093C1444.94 331.093 1445.95 329.323 1445.91 328.438C1445.83 326.563 1444.7 325.461 1444.61 323.885C1443.63 324.768 1442.66 325.672 1441.72 326.595Z" fill="#BAD685"/>
<path fill-rule="evenodd" clip-rule="evenodd" d="M1314 651.405C1314 691.721 1346.68 724.405 1387 724.405C1427.32 724.405 1460 691.721 1460 651.405" fill="#BAD685"/>
<path fill-rule="evenodd" clip-rule="evenodd" d="M1392.86 651.637H1389C1389.27 646.798 1389.62 641.966 1390.43 637.181C1393.52 618.878 1403.2 591.996 1424.42 589.025C1425.2 588.914 1428.08 588.896 1431.57 589.1C1433.22 588.177 1435.08 587.618 1437.03 587.489C1455.09 586.157 1475.27 600.733 1483.99 615.901C1491.01 628.131 1489.83 644.19 1485.49 657.182C1482.58 665.881 1476.24 678.283 1465.66 678.404C1452.43 678.555 1451.79 662.201 1451.54 652.641C1451.2 639.93 1449.59 628.858 1439.58 620.194C1437.24 618.176 1434.69 616.4 1432.33 614.41C1428.64 611.294 1424.56 608.105 1424.09 602.951C1423.43 595.841 1427.44 594.561 1433.57 595.882C1434.62 596.107 1445.14 600.829 1443.58 597.096C1443.11 595.956 1441.37 595.053 1439.17 594.376C1433.5 593.759 1426.73 593.043 1424.79 593.471C1403.79 598.077 1395.62 627.16 1393.45 645.638C1393.21 647.632 1393.02 649.633 1392.86 651.637Z" fill="#309924"/>
</g>
<path fill-rule="evenodd" clip-rule="evenodd" d="M31.258 486.578C34.1225 486.228 37.1799 486.351 39.8439 487.482C45.5085 489.887 47.1187 496.579 47.041 502.018C46.9573 507.873 45.714 514.267 50.1651 518.985C52.2112 521.153 54.7563 522.813 56.7654 525.021C58.9122 527.381 60.5966 530.082 61.8438 532.982C64.1338 538.308 65.2578 544.572 63.1637 550.159C61.3199 555.078 56.6811 559.519 57.6834 565.112C58.729 570.948 64.6122 575.409 68.2904 579.755C72.4532 584.674 76.2859 590.961 76.9155 597.411C77.5193 603.593 74.8284 609.845 70.6988 614.518C62.4477 623.856 50.0452 628.433 37.5396 628.405C32.23 628.392 26.2186 628.153 21.6366 625.299C20.2204 624.417 19.4733 623.428 18.6315 622.052C17.8767 620.819 16.8796 620.017 15.7255 619.144C13.1899 617.227 11.3587 614.644 10.1901 611.752C5.65222 600.519 9.27917 586.622 15.6312 576.648C17.1364 574.284 18.3686 572.01 17.6374 569.193C16.8744 566.253 14.999 563.601 13.3403 561.073C11.7011 558.575 9.82988 556.192 8.54876 553.491C7.20699 550.662 6.82916 547.699 7.06624 544.603C7.5118 538.786 10.0227 533.418 13.5777 528.74C17.0017 524.235 21.0221 519.923 21.0311 514.019C21.041 507.762 16.8577 502.196 18.6399 495.834C19.3778 493.199 20.86 490.497 23.2485 488.917C25.5393 487.403 28.5639 486.907 31.258 486.578Z" fill="#309924"/>
<path fill-rule="evenodd" clip-rule="evenodd" d="M29.3862 496.581C29.4399 495.741 30.4367 495.237 31.2215 495.456C32.2545 495.745 32.2346 496.71 32.2073 497.57C32.1237 500.213 32.5063 502.782 33.1417 505.346C34.4622 510.678 36.9027 515.591 38.8362 520.713C40.768 525.83 41.6748 531.114 40.5416 536.529C39.4732 541.635 37.7948 546.608 36.7014 551.72C35.7378 556.226 34.7123 560.977 36.1799 565.472C37.5921 569.798 40.7142 573.321 42.9625 577.23C47.6165 585.323 49.6813 594.301 49.9574 603.54C50.0854 607.83 49.9702 612.16 48.9749 616.368C48.402 618.791 47.6322 622.065 45.5559 623.738C44.5985 624.509 42.961 624.776 42.1552 623.634C41.3987 622.562 42.0624 620.904 42.3025 619.762C43.3427 614.818 43.5519 609.766 43.3029 604.746C43.0619 599.884 42.4874 595.03 40.9572 590.387C39.5369 586.078 37.3792 582.207 34.8398 578.437C32.2521 574.596 29.562 570.746 28.4928 566.194C27.4065 561.571 28.289 556.867 29.4691 552.332C30.7171 547.535 32.3518 542.876 34.0417 538.21C35.6886 533.663 36.2724 529.36 35.3632 524.601C33.5672 515.198 28.7598 506.373 29.3862 496.581Z" fill="#8CBB33"/>
<path fill-rule="evenodd" clip-rule="evenodd" d="M106.892 497.987C110.437 499.063 113.958 500.8 116.485 503.523C121.858 509.314 120.209 518.066 117.243 524.458C114.05 531.338 109.212 538.254 111.94 546.148C113.193 549.777 115.301 553.064 116.49 556.721C117.761 560.629 118.309 564.699 118.239 568.777C118.11 576.267 116.118 584.26 110.708 589.778C105.945 594.636 98.1575 597.474 96.3765 604.611C94.5185 612.056 99.0609 620.393 101.078 627.446C103.36 635.429 104.533 644.858 101.862 652.814C99.3025 660.438 92.8418 666.433 85.5282 669.811C70.9152 676.561 53.9487 675.522 39.2958 668.983C33.0748 666.206 26.1506 662.795 22.2845 657.037C21.0897 655.258 20.7364 653.699 20.476 651.634C20.2426 649.783 19.4972 648.316 18.6048 646.683C16.644 643.097 15.8618 639.089 16.0198 635.061C16.6345 619.416 28.2336 604.869 40.9562 596.377C43.9708 594.365 46.6181 592.316 47.2494 588.605C47.9086 584.73 47.1108 580.618 46.5012 576.766C45.899 572.959 44.9638 569.167 44.8888 565.307C44.8105 561.263 45.9334 557.562 47.8482 554.023C51.4453 547.376 57.2275 542.335 63.8696 538.652C70.2672 535.104 77.2616 532.097 80.3928 525.12C83.7118 517.725 81.7473 508.966 87.2003 502.369C89.4582 499.638 92.6252 497.212 96.2615 496.587C99.7489 495.987 103.558 496.975 106.892 497.987Z" fill="#309924"/>
<path fill-rule="evenodd" clip-rule="evenodd" d="M99.6512 510.216C100.154 509.249 101.584 509.174 102.387 509.845C103.443 510.729 102.914 511.861 102.432 512.865C100.95 515.951 100.052 519.194 99.4521 522.564C98.2037 529.57 98.4845 536.667 98.0629 543.746C97.6416 550.819 95.9348 557.551 91.7736 563.37C87.8504 568.857 83.2832 573.866 79.3274 579.347C75.8408 584.178 72.1533 589.267 71.5156 595.359C70.9012 601.222 72.7069 607.031 73.2882 612.839C74.4919 624.862 72.2042 636.576 67.6884 647.662C65.5911 652.81 63.1887 657.877 59.8211 662.338C57.8824 664.907 55.2673 668.381 51.9634 669.274C50.4399 669.686 48.3855 669.144 48.0415 667.368C47.7181 665.703 49.3628 664.087 50.2417 662.86C54.047 657.551 56.9376 651.678 59.2753 645.603C61.5399 639.719 63.4103 633.669 64.0529 627.368C64.6491 621.521 64.1532 615.806 63.1581 610.011C62.1443 604.105 61.0149 598.136 62.1486 592.185C63.2996 586.141 66.7953 581.033 70.5501 576.281C74.5215 571.255 78.8729 566.595 83.293 561.954C87.6003 557.432 90.5362 552.643 91.9656 546.53C94.7899 534.454 93.7907 521.483 99.6512 510.216Z" fill="#8CBB33"/>
<path fill-rule="evenodd" clip-rule="evenodd" d="M-2.69402 542.405C3.20026 542.405 8.38233 545.529 11.9531 549.963C16.133 555.153 16.9772 561.491 18.6745 567.677C19.5191 570.755 20.9717 573.811 23.5174 575.902C25.8327 577.805 28.7721 578.185 31.5435 579.114C37.0822 580.972 41.5547 585.445 43.321 590.904C45.4758 597.563 43.1934 604.278 43.5864 611.026C43.9472 617.224 50.0576 621.09 54.9738 624.061C59.8215 626.99 64.1886 629.733 65.6487 635.44C67.1969 641.492 67.7164 648.248 65.5719 654.228C62.0015 664.184 51.5525 668.567 41.456 669.247C32.2932 669.864 20.7719 668.896 13.8907 662.245C9.77304 658.264 8.28186 652.698 8.46686 647.16C8.5818 643.716 9.26399 640.304 10.146 636.976C10.7711 634.617 11.6157 632.269 11.8563 629.831C12.4959 623.347 6.50259 622.102 1.40098 620.321C-5.0817 618.058 -9.62013 613.785 -12.776 607.83C-15.715 602.286 -16.9481 596.063 -15.1863 589.959C-14.2865 586.842 -12.6544 584.015 -10.441 581.609C-9.46664 580.551 -8.09335 579.668 -7.21392 578.556C-6.39306 577.517 -6.57177 576.171 -6.85466 574.955C-8.16269 569.335 -12.238 564.682 -13.6955 559.073C-15.0113 554.01 -14.2335 547.709 -9.60456 544.443C-7.6047 543.031 -5.13842 542.42 -2.69402 542.405Z" fill="#8CBB33"/>
<path fill-rule="evenodd" clip-rule="evenodd" d="M5.33769 557.046C11.585 563.701 13.2831 572.73 13.7815 581.481C14.0606 586.388 13.7701 591.564 15.2118 596.324C16.4454 600.398 19.3373 603.512 22.3183 606.455C28.3188 612.38 35.0108 618.404 36.7659 626.978C37.7957 632.011 37.1006 637.208 38.5236 642.185C39.8175 646.709 42.0956 651.153 44.8665 654.973C47.0975 658.049 50.0042 660.404 52.443 663.272C53.1871 664.147 54.2529 665.436 53.9458 666.672C53.5865 668.119 51.7431 668.577 50.4352 668.35C47.3859 667.82 44.8191 664.908 42.8253 662.791C39.9098 659.696 37.4323 656.366 35.4187 652.632C33.1832 648.484 31.3833 644.083 30.6142 639.43C29.8161 634.603 30.2133 629.573 28.3909 624.94C25.3242 617.145 17.886 612.545 12.5082 606.469C5.80773 598.899 6.80702 589.476 7.49332 580.164C7.87031 575.046 8.24509 569.267 5.65914 564.594C4.67199 562.811 2.47112 561.148 2.04669 559.12C1.65793 557.263 3.77972 555.386 5.33769 557.046Z" fill="#AFB9C5"/>
<path fill-rule="evenodd" clip-rule="evenodd" d="M12 666.405C12.0004 704.463 18.2112 724.405 51.0001 724.405C83.789 724.405 89.9998 704.463 90 666.405H12Z" fill="white"/>
<g opacity="0.5">
<path fill-rule="evenodd" clip-rule="evenodd" d="M39.223 111.445C43.4253 105.453 51.2236 90.2348 57.1383 88.0936C60.9479 86.7146 59.8372 100.98 59.8842 103.7C60.0675 114.224 59.0429 124.681 57.7777 135.116C55.4983 153.937 48.0449 170.697 37.822 186.715C32.5615 194.957 26.3914 203.3 17.8455 208.442C13.9118 210.811 9.17854 211.207 5.29376 213.248C0.769375 215.623 3.23335 213.703 1.19437 218.417C-1.6372 224.963 -2.54289 233.408 -3.85301 240.392C-9.86844 272.455 -24.4317 441.944 -21.907 474.558C-21.6827 477.449 -25.7135 478.14 -25.9147 474.611C-26.9842 455.899 -17.7296 326.322 -13.0604 283.947C-8.3913 241.571 -3.66637 204.134 1.07132 189.474C6.81885 171.687 17.1992 150.298 25.8401 133.711C29.8538 126.006 34.2287 118.565 39.223 111.445Z" fill="#309924"/>
<path fill-rule="evenodd" clip-rule="evenodd" d="M70.4141 319.278C81.3492 311.25 93.1855 326.401 83.2904 334.43C77.8202 338.868 72.1014 337.29 68.8819 333.591C66.7919 336.139 64.8357 338.803 62.9561 341.052C57.2294 347.908 51.8168 354.928 46.6439 362.111C35.898 377.035 26.689 392.801 17.0603 408.278C7.55805 423.554 -1.86822 438.908 -10.4809 454.571C-17.7771 467.841 -27.502 483.452 -30 498C-26.2099 467.146 -11.8281 437.49 5.29802 410.291C22.2848 383.314 41.7791 353.853 68.081 332.564C65.4041 328.627 65.3298 323.008 70.4141 319.278Z" fill="#8CBB33"/>
<path fill-rule="evenodd" clip-rule="evenodd" d="M135.846 157.887C136.202 157.374 138.517 153.807 137.351 154.035C139.724 153.57 134.087 157.969 140 155.27C137.192 157.922 138.813 161.366 138.85 164.935C138.911 170.73 137.942 176.476 136.851 182.146C135.126 191.109 132.557 199.823 128.828 208.159C120.701 226.326 106.901 243.814 90.5183 255.172C82.4304 260.779 74.5039 262.689 65.2796 265.27C59.4532 266.901 58.9912 269.915 55.8985 275.569C49.4597 287.345 43.1357 299.078 37.4573 311.251C30.6769 325.787 24.0948 340.34 17.8859 355.132C-3.03058 404.957 -20.0547 456.578 -28.9952 510C-29.2141 478.519 -21.9314 446.095 -12.7449 416.088C-6.05313 394.226 2.65832 373.151 11.9499 352.289C14.2015 347.236 17.6135 340.735 18.5696 335.155C19.2391 331.245 17.1923 327.486 16.2551 323.367C12.6015 307.33 12.863 289.363 16.0714 273.239C19.6089 255.461 29.8392 247.209 47.1451 244.691C53.4742 243.769 61.5187 244.107 67.3222 241.408C73.645 238.47 76.2533 228.81 79.8486 222.61C89.5057 205.953 100.98 189.979 114.155 175.945C117.803 172.059 121.726 168.473 125.888 165.15C128.513 163.053 134.058 160.47 135.846 157.887Z" fill="#309924"/>
<path fill-rule="evenodd" clip-rule="evenodd" d="M-58.2086 476H3.20852C5.96994 476 8.20852 478.239 8.20852 481C8.20852 481.244 8.19065 481.488 8.15503 481.729L3.40805 513.918C1.96094 523.73 -6.45929 531 -16.378 531H-38.6221C-48.5408 531 -56.961 523.73 -58.4081 513.918L-63.1551 481.729C-63.5579 478.998 -61.6699 476.456 -58.9381 476.053C-58.6965 476.018 -58.4527 476 -58.2086 476Z" fill="#8CBB33"/>
</g>
<path fill-rule="evenodd" clip-rule="evenodd" d="M1462.5 211.304C1462.19 200.92 1457.44 191.584 1452.27 182.808C1442.19 165.725 1437.06 155.458 1437.45 134.522C1437.68 122.209 1438.04 109.193 1431.19 98.3818C1426.21 90.5089 1416.19 82.332 1406.17 84.3282C1390.37 88.8069 1382.25 104.506 1379.62 119.808C1376.36 138.775 1381.95 152.505 1396.73 163.774C1405.07 170.121 1409.93 176.855 1412.64 187.045C1414.82 195.193 1414.82 204.668 1418.21 212.437C1423.28 224.049 1431.7 230.862 1443.9 232.428C1438.31 209.177 1430.91 185.238 1419.94 163.985C1418.95 161.877 1412.13 153.001 1414.64 150.537C1417.41 147.825 1422.98 162.295 1422.94 162.205C1426.06 168.601 1428.77 175.232 1431.38 181.895C1431.37 181.898 1431.36 181.898 1431.34 181.9C1434.04 188.742 1436.68 195.658 1439.22 202.625C1440.22 205.552 1441.17 208.499 1442.03 211.49C1443.29 215.879 1444.02 227.573 1447.12 230.895C1447.78 231.605 1448.45 232.08 1449.1 232.379C1450.53 237.217 1451.88 242.07 1453.09 246.94C1456.26 259.66 1458.39 272.765 1457.46 285.917C1457.19 289.756 1453.03 303.274 1454.82 306.576C1458.08 312.615 1459.23 302.978 1459.71 300.104C1463.66 276.302 1460.63 254.31 1453.77 231.57C1458.78 227.714 1462.62 215.511 1462.5 211.304Z" fill="#BAD685"/>
<path fill-rule="evenodd" clip-rule="evenodd" d="M1303.5 180.711C1309.82 176.34 1321.62 178.473 1328.57 180.744C1337.18 183.553 1345.59 188.084 1353.21 192.882C1365.76 200.786 1377 212.079 1387.05 222.791C1388.26 224.081 1403.28 239.644 1401.19 241.109C1399.12 242.56 1384.97 225.063 1381.64 221.809C1374.55 214.865 1368.37 207.248 1359.99 201.672C1351.31 195.899 1341.57 191.922 1331.51 189.322C1330.22 188.989 1326.26 186.966 1325.66 188.846C1325.08 190.685 1332.28 191.575 1333.51 191.914C1338.55 193.317 1343.52 195.158 1348.27 197.371C1357.18 201.519 1365.08 207.183 1371.72 214.405C1368.1 219 1362.1 219.96 1356.83 217.155C1352.28 214.73 1348.29 210.691 1343.75 208.616C1340.62 207.187 1337.26 206.637 1333.84 206.709C1324.81 206.899 1318.64 210.591 1310.37 204.655C1303.88 200.002 1294.42 187 1303.5 180.711Z" fill="#BAD685"/>
<path fill-rule="evenodd" clip-rule="evenodd" d="M1323.27 128.625L1325.55 129.234C1326.16 126.308 1326.72 123.375 1327 120.394C1328.04 109.219 1326.53 91.9953 1314.47 86.9055C1314.03 86.7171 1312.33 86.2509 1310.24 85.8187C1309.41 85.018 1308.41 84.399 1307.28 84.0154C1296.82 80.381 1282.63 85.6998 1275.12 93.177C1269.06 99.2057 1267.25 108.768 1267.77 117.039C1268.13 122.577 1269.93 130.82 1276.15 132.563C1283.94 134.744 1286.87 125.297 1288.52 119.756C1290.71 112.39 1293.39 106.179 1300.65 102.705C1302.35 101.896 1304.13 101.263 1305.83 100.474C1308.5 99.2387 1311.41 98.0218 1312.49 95.0882C1313.99 91.041 1311.83 89.6593 1308 89.4615C1307.35 89.4276 1300.4 90.5203 1301.91 88.5878C1302.36 87.9974 1303.53 87.7446 1304.93 87.6962C1308.38 88.2332 1312.48 88.8854 1313.56 89.4428C1325.23 95.4518 1325.51 113.723 1323.9 124.854C1323.72 126.114 1323.5 127.371 1323.27 128.625Z" fill="#BAD685"/>
<path fill-rule="evenodd" clip-rule="evenodd" d="M130.513 264.163C130.322 261.058 127.08 258.636 124.685 261.801C122.121 265.191 125.14 270.537 126.936 273.504C126.778 273.194 129.332 270.436 129.611 269.835C130.435 268.059 130.63 266.073 130.513 264.163ZM85.7145 326.977C85.5439 327.887 85.6941 327.055 85.7145 326.977V326.977ZM113.834 270.659C111.94 269.867 109.992 270.897 109.365 272.795C108.618 275.054 110.119 277.534 111.347 279.322C111.902 280.131 114.869 284.45 114.993 282.951C115.009 283.051 115.033 283.267 115.036 283.511C114.73 283.819 114.429 284.131 114.131 284.447C114.1 284.429 114.07 284.416 114.039 284.397C114.07 284.42 114.097 284.433 114.126 284.452C111.155 287.61 108.621 291.13 106.583 295.003C106.446 294.072 106.22 293.155 105.862 292.299C104.802 289.765 100.108 285.852 98.4826 290.303C96.9246 294.571 102.428 296.655 104.528 299.274C102.239 304.301 100.278 309.522 98.5253 314.818C98.3499 314.656 98.1214 314.557 97.8636 314.573C97.776 312.903 97.9395 311.016 97.5053 309.674C96.8783 307.737 95.0641 304.069 92.7681 303.653C89.9447 303.14 89.3907 305.749 90.1169 307.855C91.1697 310.908 94.5833 313.735 97.0127 315.859C97.1332 316.192 97.4118 316.471 97.7673 316.53C97.8201 316.577 97.8726 316.625 97.9236 316.671C96.2125 321.998 94.6915 327.382 93.2348 332.701C93.2161 332.665 93.1977 332.627 93.1781 332.589C93.249 331.379 93.1798 330.165 92.84 329.001C92.057 326.307 90.4609 323.526 87.6486 322.592C84.8478 321.661 81.4816 322.696 80.7066 325.772C79.1551 331.927 91.2305 332.737 92.7421 334.522C91.2979 339.907 90.1909 345.36 89.1809 350.832C89.0679 350.342 88.9151 349.86 88.7026 349.393C86.9747 345.591 77.6902 339.672 75.8868 346.596C74.3152 352.629 84.1731 352.897 88.5099 354.537C87.5902 359.675 86.7014 364.821 85.6436 369.933C85.0721 367.805 84.1182 365.98 82.382 364.345C80.5846 362.654 77.138 360.239 75.1178 363.123C73.0635 366.057 76.6249 369.289 78.7062 370.842C79.8413 371.689 82.7842 373.004 84.6176 374.59C82.6248 382.924 79.699 390.833 75.1199 398.18C72.2606 402.767 68.8122 406.983 64.9553 410.773C62.4936 413.192 58.4851 417.474 54.5457 419.344C62.9039 416.423 70.4892 408.65 75.6436 402.011C80.3834 395.907 83.6411 388.978 85.9809 381.71C89.9817 380.895 100.232 387.508 100.12 380.095C100.054 376.162 95.5588 374.681 92.2843 375.696C90.0342 376.394 87.9233 378.516 86.4061 380.353C87.0944 378.094 87.7029 375.808 88.2379 373.505C88.9773 370.321 89.6322 367.121 90.2518 363.914C95.5984 365.537 107.001 363.425 105.829 357.8C104.092 349.497 93.0957 360.3 90.9524 362.182C91.0238 362.325 91.1277 362.409 91.263 362.437C91.0185 362.525 90.7549 362.616 90.4838 362.698C91.6511 356.571 92.7142 350.422 94.0096 344.322C94.4861 344.53 95.8415 344.518 96.6469 344.657C98.4634 344.973 100.309 345.213 102.157 345.101C105.078 344.924 109.327 343.93 108.941 340.168C108.525 336.076 103.538 336.886 101.081 338.269C99.3812 339.226 98.0401 340.609 96.5211 341.802C96.0475 342.174 93.5521 343.226 94.959 343.353C94.5705 343.532 94.3001 343.682 94.1199 343.807C94.3557 342.71 94.6018 341.615 94.8553 340.521C94.958 340.506 95.0633 340.478 95.1724 340.422C95.923 340.041 95.7819 339.147 95.2728 338.755C95.6254 337.302 95.9945 335.851 96.3912 334.406C97.2311 331.345 98.1106 328.223 99.0407 325.091C99.6481 325.305 100.055 324.847 100.669 325.021C101.282 325.195 101.943 325.851 102.568 326.11C104.142 326.761 106.012 326.976 107.707 326.935C110.507 326.865 115.845 325.786 114.916 321.819C113.961 317.728 108.634 318.437 105.81 319.763C105.263 320.019 100.785 323.115 99.249 324.397C100.987 318.591 102.902 312.762 105.078 307.228C105.648 308.198 109.238 309.815 110.106 310.061C112.221 310.66 116.409 311.138 116.589 307.851C116.745 304.93 113.239 303.457 110.773 303.665C110.367 303.699 107.086 304.884 105.727 305.612C106.669 303.297 107.655 301.039 108.699 298.866C109.391 297.418 110.143 296.005 110.948 294.625C111.137 294.737 111.391 294.799 111.68 294.829C114.323 298.03 122.46 299.37 121.989 294.095C121.764 291.584 118.636 290.52 116.529 290.438C116.098 290.421 114.32 291.014 112.914 291.474C115.752 287.202 119.092 283.264 122.747 279.627C123.002 279.892 123.388 280.018 123.814 279.819C125.786 280.976 127.386 281.866 129.966 281.983C131.569 282.055 135.023 281.859 134.411 279.29C133.615 275.946 128.22 276.661 125.937 277.663C125.672 277.78 124.947 278.198 124.288 278.59C124.244 278.483 124.185 278.383 124.111 278.295C126.408 276.101 128.815 274.019 131.289 272.043C132.687 273.313 141.03 268.873 141.599 267.165C142.875 263.343 138.163 263.875 136.241 265.145C133.975 266.643 132.45 268.937 131.282 271.297C131.159 271.548 131.147 271.504 131.447 271.378C131.32 271.477 131.244 271.582 131.21 271.693C129.935 272.339 128.595 272.94 127.536 273.631C124.502 275.609 121.559 277.788 118.77 280.098C118.091 280.66 117.43 281.237 116.785 281.828C117.132 279.961 117.109 277.726 117.025 276.894C116.807 274.736 116.117 271.614 113.834 270.659ZM54.6509 419.551C53.512 420.1 52.3976 420.479 51.3604 420.585C52.459 420.321 53.5575 419.971 54.6509 419.551Z" fill="#F2F2F2"/>
<g opacity="0.7">
<path fill-rule="evenodd" clip-rule="evenodd" d="M83.5075 353.746C87.7152 360.257 88.5713 370.809 81.6888 375.72C76.6879 379.288 71.3105 382.167 66.4814 386.015C62.6221 389.091 59.3448 392.788 56.5599 396.86C53.8818 400.776 52.8579 406.292 49.4541 409.532C47.2853 411.596 43.5402 413.293 40.5867 413.865C36.9954 414.56 37.5471 414.971 36.2104 418.47C33.5905 425.326 30.6148 431.854 26.1968 437.801C19.8334 446.367 11.3069 454.487 1.23334 458.46C-0.0461287 458.964 -4.39677 461.192 -5.62655 459.738C-7.00039 458.115 -4.09228 457.571 -3.25475 457.218C2.08877 454.966 6.76471 453.006 11.4032 449.348C29.2996 435.232 34.1136 413.801 45.4529 395.127C46.0197 394.133 47.4476 391.902 48.3679 390.392C49.8209 388.008 53.1861 384.516 53.8539 382.036C55.1124 377.366 50.7213 383.52 49.916 384.752C48.8972 386.31 47.8301 387.994 46.9997 389.468C43.1251 396.256 38.9441 403.749 34.9539 410.753C22.6657 397.455 34.8646 376.097 44.5978 365.034C52.6169 355.919 73.587 338.471 83.5075 353.746Z" fill="#309924"/>
<path fill-rule="evenodd" clip-rule="evenodd" d="M153.743 433.045C146.401 422.339 134.856 419.394 122.575 421.997C115.956 423.399 110.105 426.488 103.793 428.782C94.298 432.233 85.8913 432.743 76.0923 429.927C73.0574 429.054 70.2693 428.729 67.5857 428.901C64.3215 428.056 60.9349 427.634 57.2942 427.986C52.6444 428.437 47.947 430.509 45.3794 434.554C44.6892 435.641 43.4491 438.077 43.3189 439.937C29.7348 441.066 16.4327 445.042 4.91257 452.082C-2.04143 456.332 -8.90823 460.74 -15.7304 465.199C-17.562 466.397 -20.3347 468.812 -16.6257 467.912C-13.2328 467.089 -9.28352 463.402 -6.30495 461.558C8.20533 452.576 21.4136 444.434 38.7283 442.576C40.5432 442.381 42.3687 442.232 44.1987 442.117C44.2465 442.145 44.2975 442.167 44.348 442.189C44.3428 442.228 44.3345 442.265 44.3297 442.304C44.4358 442.303 44.5669 442.309 44.715 442.32C45.0398 442.402 45.4049 442.427 45.7956 442.426C46.8543 442.535 48.0846 442.641 48.5677 442.367C48.5714 442.365 48.576 442.36 48.5797 442.358C56.8974 442.588 65.1912 443.561 73.4245 444.692C73.3641 444.683 82.6884 445.727 78.635 447.068C76.6816 447.714 71.3179 446.086 68.6448 445.72C62.7083 444.923 55.3552 444.208 48.5353 444.022C48.0576 443.744 46.5477 443.831 45.4305 443.909C44.8533 443.929 44.2815 443.967 43.7693 443.975C46.4468 456.994 58.622 461.316 70.4278 462.249C70.4418 462.25 70.4557 462.25 70.4694 462.251C73.8251 462.671 77.1889 463.144 80.3383 464.34C85.5933 466.335 88.4601 470.06 92.5359 473.632C103.65 483.372 122.326 479.49 134.925 474.422C149.14 468.705 164.111 448.072 153.743 433.045Z" fill="#BAD685"/>
<path fill-rule="evenodd" clip-rule="evenodd" d="M177.828 389.702C159.223 385.081 139.404 389.078 121.246 393.66C100.965 398.778 81.3752 405.721 63.1592 416.031C51.1914 422.806 39.0096 429.381 27.5028 436.925C23.416 439.604 19.4223 442.462 15.6245 445.538C15.3125 445.791 6.83436 452.663 9.83617 452.846C11.5433 452.95 18.6416 445.736 19.947 444.748C27.3004 439.188 35.1538 434.361 43.1679 429.817C56.3626 422.335 69.221 414.424 83.0878 408.222C85.158 407.295 87.3028 406.271 89.4835 405.635C91.8014 404.958 90.5521 404.841 92.2816 405.985C93.9625 407.096 94.9603 409.089 96.8741 410.144C104.466 414.329 116.365 411.86 124.403 410.641C133.595 409.248 142.626 406.421 151.346 403.296C157.752 400.999 163.952 398.426 170.075 395.466C172.005 394.532 173.948 393.426 175.98 392.742C176.528 392.557 177.681 392.549 178.106 392.281C179.006 391.713 179.228 390.845 179.976 390.355C179.265 390.122 178.548 389.904 177.828 389.702Z" fill="#BAD685"/>
<path fill-rule="evenodd" clip-rule="evenodd" d="M-17.9326 418.747C-37.7495 430.145 -44.5746 455.449 -33.177 475.266C-21.7794 495.083 3.5249 501.908 23.3418 490.51" fill="#BAD685"/>
<path fill-rule="evenodd" clip-rule="evenodd" d="M4.24632 457.573L3.15585 455.677C5.61029 454.441 8.08483 453.249 10.6658 452.294C20.537 448.64 36.4856 445.796 43.9448 455.387C44.2205 455.741 45.0438 457.151 45.9294 458.923C46.8508 459.475 47.649 460.227 48.2637 461.15C54.026 469.654 52.5656 483.692 47.5737 492.263C43.5486 499.174 35.3206 503.132 27.7076 504.672C22.6106 505.703 14.7218 506.092 11.6725 500.927C7.85747 494.466 15.7155 489.529 20.3424 486.701C26.4938 482.94 31.4822 479.021 32.9094 471.649C33.2415 469.931 33.393 468.175 33.7048 466.453C34.1923 463.758 34.6066 460.85 37.0054 459.16C40.3148 456.827 42.0784 458.438 43.1615 461.823C43.3463 462.4 44.0002 468.908 45.3942 467.087C45.8202 466.531 45.7731 465.421 45.4859 464.152C44.185 461.188 42.6238 457.66 41.8634 456.824C33.6639 447.806 17.0579 452.01 7.36176 456.167C6.31518 456.615 5.27808 457.088 4.24632 457.573Z" fill="#309924"/>
</g>
</svg>
