<svg width="31" height="31" viewBox="0 0 31 31" fill="none" xmlns="http://www.w3.org/2000/svg">
<rect x="0.380859" y="0.404785" width="30.1043" height="30" rx="15" fill="#232323"/>
<path d="M15.8232 8.95408C15.5528 9.22066 15.5275 9.64189 15.7491 9.93744L15.8157 10.0147L20.3914 14.6548L8.68311 14.6548C8.26889 14.6548 7.93311 14.9906 7.93311 15.4048C7.93311 15.7872 8.21922 16.1027 8.58903 16.149L8.68311 16.1548H20.3914L15.8157 20.7949C15.5491 21.0653 15.5297 21.4869 15.7556 21.7792L15.8232 21.8556C16.0936 22.1221 16.5151 22.1415 16.8075 21.9157L16.8838 21.848L22.7172 15.9314C22.9811 15.6637 23.0031 15.2472 22.7832 14.9548L22.7172 14.8783L16.8838 8.9616C16.593 8.66664 16.1182 8.66327 15.8232 8.95408Z" fill="white"/>
</svg>
