<svg width="31" height="31" viewBox="0 0 31 31" fill="none" xmlns="http://www.w3.org/2000/svg">
<rect width="30.1043" height="30" rx="15" transform="matrix(-1 0 0 1 30.626 0.404785)" fill="#232323"/>
<path d="M15.1836 8.95408C15.454 9.22066 15.4794 9.64189 15.2577 9.93744L15.1911 10.0147L10.6154 14.6548L22.3237 14.6548C22.7379 14.6548 23.0737 14.9906 23.0737 15.4048C23.0737 15.7872 22.7876 16.1027 22.4178 16.149L22.3237 16.1548H10.6154L15.1911 20.7949C15.4577 21.0653 15.4771 21.4869 15.2513 21.7792L15.1836 21.8556C14.9132 22.1221 14.4917 22.1415 14.1993 21.9157L14.123 21.848L8.28965 15.9314C8.02575 15.6637 8.00376 15.2472 8.22368 14.9548L8.28965 14.8783L14.123 8.9616C14.4138 8.66664 14.8887 8.66327 15.1836 8.95408Z" fill="white"/>
</svg>
