<svg width="21" height="21" viewBox="0 0 21 21" fill="none" xmlns="http://www.w3.org/2000/svg">
<path d="M10.5854 4.3889C10.315 4.65547 10.2897 5.0767 10.5113 5.37225L10.5779 5.44953L15.1536 10.0896L3.44531 10.0896C3.0311 10.0896 2.69531 10.4254 2.69531 10.8396C2.69531 11.222 2.98143 11.5375 3.35123 11.5838L3.44531 11.5896H15.1536L10.5779 16.2298C10.3113 16.5001 10.2919 16.9217 10.5178 17.2141L10.5854 17.2904C10.8558 17.557 11.2774 17.5763 11.5697 17.3505L11.6461 17.2829L17.4794 11.3662C17.7433 11.0985 17.7653 10.682 17.5454 10.3896L17.4794 10.3131L11.6461 4.39642C11.3552 4.10146 10.8804 4.09809 10.5854 4.3889Z" fill="white"/>
</svg>
