<svg width="362" height="337" viewBox="0 0 362 337" fill="none" xmlns="http://www.w3.org/2000/svg">
<path d="M113.928 8.86491L115.735 0.162333L109.371 6.36751L100.931 9.15389L109.487 11.5624L116.12 17.4786L113.928 8.86491Z" fill="#309924" fill-opacity="0.3"/>
<path d="M149.005 28.0899L150.812 19.3873L144.448 25.5925L136.008 28.3789L144.564 30.7874L151.197 36.7036L149.005 28.0899Z" fill="#309924" fill-opacity="0.3"/>
<path d="M185.889 38.6123L184.082 47.3149L186.274 55.9285L179.641 50.0124L171.085 47.6039L179.526 44.8175L185.889 38.6123Z" fill="#309924" fill-opacity="0.3"/>
<path d="M219.159 66.5399L220.966 57.8373L214.603 64.0425L206.162 66.8289L214.718 69.2374L221.351 75.1535L219.159 66.5399Z" fill="#309924" fill-opacity="0.3"/>
<path d="M256.043 77.0623L254.236 85.7649L256.428 94.3785L249.795 88.4623L241.239 86.0539L249.68 83.2675L256.043 77.0623Z" fill="#309924" fill-opacity="0.3"/>
<path d="M289.313 104.99L291.12 96.2873L284.757 102.492L276.317 105.279L284.872 107.687L291.505 113.604L289.313 104.99Z" fill="#309924" fill-opacity="0.3"/>
<path d="M326.197 115.512L324.39 124.215L326.582 132.829L319.949 126.912L311.394 124.504L319.834 121.717L326.197 115.512Z" fill="#309924" fill-opacity="0.3"/>
<path d="M359.467 143.44L361.274 134.737L354.911 140.942L346.471 143.729L355.026 146.137L361.659 152.054L359.467 143.44Z" fill="#309924" fill-opacity="0.3"/>
<path d="M101.316 26.4701L99.5093 35.1727L101.701 43.7864L95.0682 37.8702L86.5125 35.4617L94.9527 32.6753L101.316 26.4701Z" fill="#309924" fill-opacity="0.3"/>
<path d="M134.586 54.3977L136.393 45.6951L130.03 51.9003L121.59 54.6867L130.145 57.0952L136.778 63.0113L134.586 54.3977Z" fill="#309924" fill-opacity="0.3"/>
<path d="M171.47 64.9201L169.663 73.6227L171.855 82.2363L165.222 76.3202L156.667 73.9117L165.107 71.1253L171.47 64.9201Z" fill="#309924" fill-opacity="0.3"/>
<path d="M204.74 92.8477L206.547 84.1451L200.184 90.3503L191.744 93.1367L200.299 95.5451L206.932 101.461L204.74 92.8477Z" fill="#309924" fill-opacity="0.3"/>
<path d="M241.624 103.37L239.818 112.073L242.01 120.686L235.376 114.77L226.821 112.362L235.261 109.575L241.624 103.37Z" fill="#309924" fill-opacity="0.3"/>
<path d="M274.895 131.298L276.702 122.595L270.338 128.8L261.898 131.587L270.453 133.995L277.087 139.911L274.895 131.298Z" fill="#309924" fill-opacity="0.3"/>
<path d="M311.779 141.82L309.972 150.523L312.164 159.136L305.53 153.22L296.975 150.812L305.415 148.025L311.779 141.82Z" fill="#309924" fill-opacity="0.3"/>
<path d="M345.049 169.748L346.856 161.045L340.492 167.25L332.052 170.037L340.608 172.445L347.241 178.361L345.049 169.748Z" fill="#309924" fill-opacity="0.3"/>
<path d="M86.8975 52.7779L85.0906 61.4805L87.2826 70.0941L80.6494 64.178L72.0938 61.7695L80.5339 58.9831L86.8975 52.7779Z" fill="#309924" fill-opacity="0.3"/>
<path d="M120.168 80.7055L121.975 72.0029L115.611 78.2081L107.171 80.9945L115.726 83.4029L122.36 89.3191L120.168 80.7055Z" fill="#309924" fill-opacity="0.3"/>
<path d="M157.052 91.2279L155.245 99.9305L157.437 108.544L150.804 102.628L142.248 100.219L150.688 97.4331L157.052 91.2279Z" fill="#309924" fill-opacity="0.3"/>
<path d="M190.322 119.155L192.129 110.453L185.765 116.658L177.325 119.444L185.881 121.853L192.514 127.769L190.322 119.155Z" fill="#309924" fill-opacity="0.3"/>
<path d="M227.206 129.678L225.399 138.38L227.591 146.994L220.958 141.078L212.402 138.669L220.842 135.883L227.206 129.678Z" fill="#309924" fill-opacity="0.3"/>
<path d="M260.476 157.605L262.283 148.903L255.919 155.108L247.479 157.894L256.035 160.303L262.668 166.219L260.476 157.605Z" fill="#309924" fill-opacity="0.3"/>
<path d="M297.36 168.128L295.553 176.83L297.745 185.444L291.112 179.528L282.556 177.119L290.996 174.333L297.36 168.128Z" fill="#309924" fill-opacity="0.3"/>
<path d="M330.63 196.055L332.437 187.353L326.073 193.558L317.633 196.344L326.189 198.753L332.822 204.669L330.63 196.055Z" fill="#309924" fill-opacity="0.3"/>
<path d="M72.4788 79.0857L70.6718 87.7883L72.8638 96.4019L66.2307 90.4857L57.675 88.0773L66.1152 85.2909L72.4788 79.0857Z" fill="#309924" fill-opacity="0.3"/>
<path d="M105.749 107.013L107.556 98.3107L101.192 104.516L92.7521 107.302L101.308 109.711L107.941 115.627L105.749 107.013Z" fill="#309924" fill-opacity="0.3"/>
<path d="M142.633 117.536L140.826 126.238L143.018 134.852L136.385 128.936L127.829 126.527L136.269 123.741L142.633 117.536Z" fill="#309924" fill-opacity="0.3"/>
<path d="M175.903 145.463L177.71 136.761L171.346 142.966L162.906 145.752L171.462 148.161L178.095 154.077L175.903 145.463Z" fill="#309924" fill-opacity="0.3"/>
<path d="M212.787 155.986L210.98 164.688L213.172 173.302L206.539 167.386L197.983 164.977L206.423 162.191L212.787 155.986Z" fill="#309924" fill-opacity="0.3"/>
<path d="M246.057 183.913L247.864 175.211L241.5 181.416L233.06 184.202L241.616 186.611L248.249 192.527L246.057 183.913Z" fill="#309924" fill-opacity="0.3"/>
<path d="M282.941 194.436L281.134 203.138L283.326 211.752L276.693 205.836L268.137 203.427L276.577 200.641L282.941 194.436Z" fill="#309924" fill-opacity="0.3"/>
<path d="M316.211 222.363L318.018 213.661L311.655 219.866L303.214 222.652L311.77 225.061L318.403 230.977L316.211 222.363Z" fill="#309924" fill-opacity="0.3"/>
<path d="M58.0601 105.393L56.2531 114.096L58.4451 122.71L51.8119 116.794L43.2563 114.385L51.6964 111.599L58.0601 105.393Z" fill="#309924" fill-opacity="0.3"/>
<path d="M91.3301 133.321L93.1371 124.618L86.7735 130.824L78.3333 133.61L86.889 136.019L93.5221 141.935L91.3301 133.321Z" fill="#309924" fill-opacity="0.3"/>
<path d="M128.214 143.843L126.407 152.546L128.599 161.16L121.966 155.244L113.41 152.835L121.851 150.049L128.214 143.843Z" fill="#309924" fill-opacity="0.3"/>
<path d="M161.484 171.771L163.291 163.068L156.928 169.274L148.487 172.06L157.043 174.469L163.676 180.385L161.484 171.771Z" fill="#309924" fill-opacity="0.3"/>
<path d="M198.368 182.293L196.561 190.996L198.753 199.61L192.12 193.694L183.564 191.285L192.005 188.499L198.368 182.293Z" fill="#309924" fill-opacity="0.3"/>
<path d="M231.638 210.221L233.445 201.518L227.082 207.724L218.642 210.51L227.197 212.918L233.83 218.835L231.638 210.221Z" fill="#309924" fill-opacity="0.3"/>
<path d="M268.522 220.743L266.715 229.446L268.907 238.06L262.274 232.143L253.719 229.735L262.159 226.949L268.522 220.743Z" fill="#309924" fill-opacity="0.3"/>
<path d="M301.792 248.671L303.599 239.968L297.236 246.174L288.796 248.96L297.351 251.368L303.984 257.285L301.792 248.671Z" fill="#309924" fill-opacity="0.3"/>
<path d="M43.6413 131.701L41.8343 140.404L44.0263 149.018L37.3932 143.101L28.8375 140.693L37.2777 137.906L43.6413 131.701Z" fill="#309924" fill-opacity="0.3"/>
<path d="M76.9114 159.629L78.7184 150.926L72.3547 157.131L63.9146 159.918L72.4702 162.326L79.1034 168.243L76.9114 159.629Z" fill="#309924" fill-opacity="0.3"/>
<path d="M113.795 170.151L111.988 178.854L114.18 187.467L107.547 181.551L98.9916 179.143L107.432 176.356L113.795 170.151Z" fill="#309924" fill-opacity="0.3"/>
<path d="M147.065 198.079L148.872 189.376L142.509 195.581L134.069 198.368L142.624 200.776L149.257 206.692L147.065 198.079Z" fill="#309924" fill-opacity="0.3"/>
<path d="M183.95 208.601L182.143 217.304L184.335 225.917L177.701 220.001L169.146 217.593L177.586 214.806L183.95 208.601Z" fill="#309924" fill-opacity="0.3"/>
<path d="M217.22 236.529L219.027 227.826L212.663 234.031L204.223 236.818L212.778 239.226L219.412 245.142L217.22 236.529Z" fill="#309924" fill-opacity="0.3"/>
<path d="M254.104 247.051L252.297 255.754L254.489 264.367L247.855 258.451L239.3 256.043L247.74 253.256L254.104 247.051Z" fill="#309924" fill-opacity="0.3"/>
<path d="M287.374 274.979L289.181 266.276L282.817 272.481L274.377 275.268L282.933 277.676L289.566 283.592L287.374 274.979Z" fill="#309924" fill-opacity="0.3"/>
<path d="M29.2226 158.009L27.4156 166.712L29.6076 175.325L22.9744 169.409L14.4188 167.001L22.8589 164.214L29.2226 158.009Z" fill="#309924" fill-opacity="0.3"/>
<path d="M62.4926 185.937L64.2996 177.234L57.936 183.439L49.4958 186.226L58.0515 188.634L64.6846 194.55L62.4926 185.937Z" fill="#309924" fill-opacity="0.3"/>
<path d="M99.3767 196.459L97.5697 205.162L99.7617 213.775L93.1285 207.859L84.5729 205.451L93.013 202.664L99.3767 196.459Z" fill="#309924" fill-opacity="0.3"/>
<path d="M132.647 224.387L134.454 215.684L128.09 221.889L119.65 224.676L128.206 227.084L134.839 233L132.647 224.387Z" fill="#309924" fill-opacity="0.3"/>
<path d="M169.531 234.909L167.724 243.612L169.916 252.225L163.283 246.309L154.727 243.901L163.167 241.114L169.531 234.909Z" fill="#309924" fill-opacity="0.3"/>
<path d="M202.801 262.837L204.608 254.134L198.244 260.339L189.804 263.126L198.36 265.534L204.993 271.45L202.801 262.837Z" fill="#309924" fill-opacity="0.3"/>
<path d="M239.685 273.359L237.878 282.062L240.07 290.675L233.437 284.759L224.881 282.351L233.321 279.564L239.685 273.359Z" fill="#309924" fill-opacity="0.3"/>
<path d="M272.955 301.287L274.762 292.584L268.398 298.789L259.958 301.576L268.514 303.984L275.147 309.9L272.955 301.287Z" fill="#309924" fill-opacity="0.3"/>
<path d="M14.8038 184.317L12.9968 193.019L15.1889 201.633L8.55569 195.717L3.94285e-05 193.308L8.44018 190.522L14.8038 184.317Z" fill="#309924" fill-opacity="0.3"/>
<path d="M48.0739 212.244L49.8809 203.542L43.5172 209.747L35.0771 212.533L43.6327 214.942L50.2659 220.858L48.0739 212.244Z" fill="#309924" fill-opacity="0.3"/>
<path d="M84.9579 222.767L83.1509 231.469L85.343 240.083L78.7098 234.167L70.1541 231.758L78.5943 228.972L84.9579 222.767Z" fill="#309924" fill-opacity="0.3"/>
<path d="M118.228 250.694L120.035 241.992L113.671 248.197L105.231 250.983L113.787 253.392L120.42 259.308L118.228 250.694Z" fill="#309924" fill-opacity="0.3"/>
<path d="M155.112 261.217L153.305 269.919L155.497 278.533L148.864 272.617L140.308 270.208L148.748 267.422L155.112 261.217Z" fill="#309924" fill-opacity="0.3"/>
<path d="M188.382 289.144L190.189 280.442L183.825 286.647L175.385 289.433L183.941 291.842L190.574 297.758L188.382 289.144Z" fill="#309924" fill-opacity="0.3"/>
<path d="M225.266 299.667L223.459 308.369L225.651 316.983L219.018 311.067L210.462 308.658L218.902 305.872L225.266 299.667Z" fill="#309924" fill-opacity="0.3"/>
<path d="M258.536 327.594L260.343 318.892L253.98 325.097L245.539 327.883L254.095 330.292L260.728 336.208L258.536 327.594Z" fill="#309924" fill-opacity="0.3"/>
</svg>
